<?xml version="1.0" encoding="utf-8"?>
<svg version="1.1" xmlns:xlink="http://www.w3.org/1999/xlink" width="17px" height="18px" xmlns="http://www.w3.org/2000/svg">
  <g transform="matrix(1 0 0 1 -614 -807 )">
    <path d="M 1 5.39999999999996  L 6.26315789473684 0.00270000000000008  L 6.26315789473684 0  L 16.1034736842105 0  C 16.5973684210526 0  17 0.409499999999997  17 0.892799999999994  L 17 17.1071999999999  C 16.9995062021529 17.600425372479  16.6018675780046 18.0000002501019  16.1115263157895 18  L 1.78321052631579 18  C 1.29150853353273 17.9965499576512  0.894714768146062 17.5946282852967  0.894714768146062 17.1000218951135  C 0.894714768146062 17.0979145772463  0.894722126177845 17.0958072658777  1 17.0936999999999  L 1 5.39999999999996  Z M 6.26315789473684 2.54699999999998  L 3.42684210526316 5.39999999999996  L 6.26315789473684 5.39999999999996  L 6.26315789473684 2.54699999999998  Z M 15 1.79999999999999  L 8.05263157894737 1.79999999999999  L 8.05263157894737 6.29999999999996  C 8.05263157894737 6.79705627484767  7.6520442498486 7.19999999999995  7.1578947368421 7.19999999999995  L 2.68421052631579 7.19999999999995  L 2.68421052631579 16  L 15 16  L 15 1.79999999999999  Z " fill-rule="nonzero" fill="#797979" stroke="none" transform="matrix(1 0 0 1 614 807 )" />
  </g>
</svg>