<?xml version="1.0" encoding="utf-8"?>
<svg version="1.1" xmlns:xlink="http://www.w3.org/1999/xlink" width="21px" height="19px" xmlns="http://www.w3.org/2000/svg">
  <g transform="matrix(1 0 0 1 -552 -172 )">
    <path d="M 9.79372197309417 14.25  L 10.4529147982063 14.25  L 11.8183856502242 12.6846590909091  L 10.0291479820628 10.6335227272727  L 8.66367713004484 12.1988636363636  L 8.66367713004484 12.9545454545455  L 9.79372197309417 12.9545454545455  L 9.79372197309417 14.25  Z M 15.6205156950673 4.97940340909091  C 15.7539237668161 4.8264678030303  15.7578475336323 4.6780303030303  15.6322869955157 4.53409090909091  C 15.5067264573991 4.39015151515151  15.3772421524664 4.39464962121212  15.2438340807175 4.54758522727273  L 11.1238789237668 9.27059659090909  C 10.9904708520179 9.4235321969697  10.9865470852018 9.5719696969697  11.1121076233184 9.71590909090909  C 11.237668161435 9.85984848484848  11.3671524663677 9.85535037878788  11.5005605381166 9.70241477272727  L 15.6205156950673 4.97940340909091  Z M 16.3385650224215 12.1583806818182  C 16.4955156950673 12.2303503787879  16.5739910313901 12.3607954545455  16.5739910313901 12.5497159090909  L 16.5739910313901 15.1136363636364  C 16.5739910313901 16.1841856060606  16.242432735426 17.0995501893939  15.5793161434978 17.8597301136364  C 14.9161995515695 18.6199100378788  14.1177130044843 19  13.1838565022422 19  L 3.39013452914798 19  C 2.45627802690583 19  1.65779147982063 18.6199100378788  0.994674887892377 17.8597301136364  C 0.331558295964126 17.0995501893939  0 16.1841856060606  0 15.1136363636364  L 0 3.88636363636364  C 0 2.81581439393939  0.331558295964126 1.90044981060606  0.994674887892377 1.14026988636364  C 1.65779147982063 0.38008996212121  2.45627802690583 0  3.39013452914798 0  L 13.1838565022422 0  C 13.6782511210762 0  14.137331838565 0.11245265151515  14.5610986547085 0.337357954545454  C 14.6788116591928 0.400331439393938  14.7494394618834 0.503787878787878  14.7729820627803 0.647727272727272  C 14.7965246636771 0.800662878787878  14.7612107623318 0.931107954545454  14.6670403587444 1.0390625  L 14.0902466367713 1.70028409090909  C 13.9803811659193 1.82623106060606  13.8548206278027 1.86221590909091  13.7135650224215 1.80823863636364  C 13.5330717488789 1.75426136363636  13.3565022421525 1.72727272727273  13.1838565022422 1.72727272727273  L 3.39013452914798 1.72727272727273  C 2.87219730941704 1.72727272727273  2.42881165919283 1.93868371212121  2.05997757847534 2.36150568181818  C 1.69114349775785 2.78432765151515  1.5067264573991 3.29261363636364  1.5067264573991 3.88636363636364  L 1.5067264573991 15.1136363636364  C 1.5067264573991 15.7073863636364  1.69114349775785 16.2156723484848  2.05997757847534 16.6384943181818  C 2.42881165919283 17.0613162878788  2.87219730941704 17.2727272727273  3.39013452914798 17.2727272727273  L 13.1838565022422 17.2727272727273  C 13.7017937219731 17.2727272727273  14.1451793721973 17.0613162878788  14.5140134529148 16.6384943181818  C 14.8828475336323 16.2156723484848  15.067264573991 15.7073863636364  15.067264573991 15.1136363636364  L 15.067264573991 13.4133522727273  C 15.067264573991 13.2964015151515  15.1025784753363 13.1974431818182  15.1732062780269 13.1164772727273  L 15.9265695067265 12.2528409090909  C 16.0442825112108 12.1178977272727  16.1816143497758 12.0864109848485  16.3385650224215 12.1583806818182  Z M 7.53363228699552 11.6590909090909  L 15.4439461883408 2.59090909090909  L 18.8340807174888 6.47727272727273  L 10.9237668161435 15.5454545454545  L 7.53363228699552 15.5454545454545  L 7.53363228699552 11.6590909090909  Z M 21 3.45454545454545  C 21 3.81439393939394  20.890134529148 4.12026515151515  20.6704035874439 4.37215909090909  L 19.5874439461883 5.61363636363636  L 16.1973094170404 1.72727272727273  L 17.280269058296 0.485795454545454  C 17.5 0.233901515151513  17.7668161434978 0.107954545454546  18.0807174887892 0.107954545454546  C 18.3946188340807 0.107954545454546  18.6614349775785 0.233901515151513  18.8811659192825 0.485795454545454  L 20.6704035874439 2.53693181818182  C 20.890134529148 2.78882575757575  21 3.09469696969697  21 3.45454545454545  Z " fill-rule="nonzero" fill="#a1a1a1" stroke="none" transform="matrix(1 0 0 1 552 172 )" />
  </g>
</svg>