<?xml version="1.0" encoding="utf-8"?>
<svg version="1.1" xmlns:xlink="http://www.w3.org/1999/xlink" width="14px" height="5px" xmlns="http://www.w3.org/2000/svg">
  <g transform="matrix(1 0 0 1 -23 -91 )">
    <path d="M 0.0741394455400552 5  L 0.0741394455400552 0.00699301382212525  L 2.26866726714199 0.00699301382212525  C 3.54386585254854 0.00699301382212525  4.18887908449636 0.517482522035266  4.18887908449636 1.53846153846155  C 4.18887908449636 2.56643356870995  3.54386585254855 3.08391609074522  2.25383936210558 3.08391609074522  L 0.941571040655347 3.08391609074522  L 0.941571040655347 5  L 0.0741394455400552 5  Z M 2.20194174757282 0.706293694911835  L 0.941571040655347 0.706293694911835  L 0.941571040655347 2.38461538461536  L 2.20194174757282 2.38461538461536  C 2.58746690685679 2.38461538461536  2.86919681052791 2.31468532151445  3.04713151168083 2.18881119791666  C 3.22506618628641 2.05594406049681  3.31403353686287 1.83916085737178  3.31403353686287 1.53846153846155  C 3.31403353686287 1.23776224459135  3.21765226031553 1.02797203024841  3.03971755916263 0.902097906650624  C 2.86178288455704 0.769230769230774  2.58005295433858 0.70629371995193  2.20194174757282 0.706293694911835  Z M 4.93027361953884 5  L 4.93027361953884 0.00699301382212525  L 6.86531331538228 0.00699301382212525  C 7.72533095797937 0.00699301382212525  8.37034421647451 0.230769230769226  8.81518094280946 0.678321689703523  C 9.2377758115898 1.09790211838941  9.45278024878641 1.70629371995193  9.45278022223908 2.50349649439102  C 9.45278022223908 3.29370628004807  9.2377758115898 3.90209788161059  8.81518094280946 4.3286713241186  C 8.37034421647451 4.7762237830529  7.72533098452669 5  6.86531331538228 5  L 4.93027361953884 5  Z M 6.70220651926577 0.706293694911835  L 5.79770521465413 0.706293694911835  L 5.79770521465413 4.3006992938702  L 6.70220651926577 4.3006992938702  C 7.36204765625 4.3006992938702  7.8439540920813 4.15384615384613  8.14792585330704 3.86713286258015  C 8.44448366201456 3.57342655749198  8.59276257964198 3.11888110977566  8.59276257964198 2.50349649439102  C 8.59276257964198 1.87412587640222  8.44448366201456 1.41258741486376  8.14792585330704 1.13286713741985  C 7.8439540920813 0.846153846153868  7.36204765625 0.70629371995193  6.70220651926577 0.706293694911835  Z M 10.2683142028216 5  L 10.2683142028216 0.00699301382212525  L 13.878905548392 0.00699301382212525  L 13.878905548392 0.706293694911835  L 11.1357457979369 0.706293694911835  L 11.1357457979369 2.09090907952725  L 13.7232127047937 2.09090907952725  L 13.7232127047937 2.79020978565705  L 11.1357457979369 2.79020978565705  L 11.1357457979369 5  L 10.2683142028216 5  Z " fill-rule="nonzero" fill="#ffffff" stroke="none" transform="matrix(1 0 0 1 23 91 )" />
  </g>
</svg>