<?xml version="1.0" encoding="utf-8"?>
<svg version="1.1" xmlns:xlink="http://www.w3.org/1999/xlink" width="12px" height="12px" xmlns="http://www.w3.org/2000/svg">
  <g transform="matrix(1 0 0 1 -24 -189 )">
    <path d="M 10.9492537313433 0.0248756180037049  L 0.979104477611941 0.0248756180037049  C 0.455223880597018 0.0248756180037049  0.0283582089552255 0.414925373134338  0.0283582089552255 0.939800991138043  L 0.0283582089552255 10.1004975163246  C 0.0283582089552255 10.6248756296641  0.457711438899253 11.0542288596081  0.980099498600751 11  L 11.0288557252799 11  C 11.5512437849813 11.0542288596081  11.9407960237873 10.6248756296641  11.9407960237873 10.1004975163246  L 11.9407960237873 0.939303486473875  C 11.9407960237873 0.41442786847017  11.4721393073694 0.0253731343283334  10.9497512476679 0.0253731343283334  Z M 3.86467662080224 1.38059701492534  C 3.87737426875786 1.38026535539905  3.89007570600255 1.38009950443097  3.90277768465339 1.38009950443097  C 4.70867378760812 1.38009950443097  5.36198166086608 2.03340737768895  5.36198166086608 2.83930348064365  C 5.36198166086608 3.64519958359836  4.70867378760812 4.29850745685633  3.90277768465339 4.29850745685633  C 3.89007570600255 4.29850745685633  3.87737426875786 4.29834160588825  3.86467662080224 4.29800994636196  C 3.05920143498285 4.2980111151856  2.40584980563756 3.64577252445923  2.40447761194029 2.84029850746265  C 2.4058469872034 2.0346955293972  3.05857612641213 1.3819663901885  3.86417910447761 1.38059701492534  Z M 1.62587065065298 9.69004975513059  C 1.51879141549401 9.69038401040979  1.41515369922575 9.65224815671633  1.33383084188432 9.58258706856338  C 1.14540872828694 9.42078110890799  1.12359339892808 9.1369591992152  1.28507462686568 8.94825871035448  L 3.34676617304105 5.83980099113802  C 3.50032728711712 5.66092518969111  3.76611747385091 5.6313688025499  3.95522388059702 5.7721393073694  L 5.77412934934701 7.1243781133395  L 9.03681591651119 3.41890546874998  C 9.19104477611941 3.22487561800375  10.0094527285448 2.31343283582089  10.489552238806 3.34676617304103  C 10.489552238806 3.34427861473881  10.4920397971082 4.71542288945892  10.4920397971082 6.11492537313427  L 10.4920397971082 9.69004975513059  C 10.4850746268657 9.68507462686563  1.63034825093284 9.69004975513059  1.62537313432836 9.69004975513059  Z " fill-rule="nonzero" fill="#ffffff" stroke="none" transform="matrix(1 0 0 1 24 189 )" />
  </g>
</svg>