<?xml version="1.0" encoding="utf-8"?>
<svg version="1.1" xmlns:xlink="http://www.w3.org/1999/xlink" width="14px" height="12px" xmlns="http://www.w3.org/2000/svg">
  <g transform="matrix(1 0 0 1 0 -1 )">
    <path d="M 0 9.44010530934621  C 0 10.7547169811321  1.06888986397541 11.8236068451075  2.3835015357613 11.8236068451075  L 2.53093462044757 11.8236068451075  C 3.84554629223345 11.8236068451075  4.91443615620886 10.7547169811321  4.91443615620886 9.44010530934621  L 4.91443615620886 9.29267222465994  C 4.91443615620886 7.97806055287407  3.84554629223345 6.90917068889864  2.53093462044757 6.90917068889864  L 2.3835015357613 6.90917068889864  C 1.06888986397541 6.90917068889864  0 7.97806055287407  0 9.29267222465994  L 0 9.44010530934621  Z M 2.3835015357613 0.176393154892494  C 1.06888986397541 0.176393154892494  0 1.24528301886792  0 2.55989469065379  L 0 2.70732777534006  C 0 4.02193944712593  1.06888986397541 5.09082931110136  2.3835015357613 5.09082931110136  L 2.53093462044757 5.09082931110136  C 3.84554629223345 5.09082931110136  4.91443615620886 4.02193944712593  4.91443615620886 2.70732777534006  L 4.91443615620886 2.55989469065379  C 4.91443615620886 1.24528301886792  3.84554629223345 0.176393154892494  2.53093462044757 0.176393154892494  L 2.3835015357613 0.176393154892494  Z M 7.18121983326023 0.790697674418603  C 6.87406757349714 0.790697674418603  6.62834576568673 1.04256252742431  6.62834576568673 1.3435717419921  L 6.62834576568673 1.46643264589732  C 6.62834576568673 1.77358490566038  6.88021061869239 2.01930671347082  7.18121983326023 2.01930671347082  L 13.4409828872313 2.01930671347082  C 13.7481351469943 2.01930671347082  13.9938569548048 1.76744186046511  13.9938569548048 1.46643264589732  L 13.9938569548048 1.3435717419921  C 14 1.04256252742431  13.7481351469943 0.790697674418603  13.4409828872313 0.790697674418603  L 7.18121983326023 0.790697674418603  Z M 6.62834576568673 3.80078982009653  L 6.62834576568673 3.92365072400175  C 6.62834576568673 4.23080298376481  6.88021061869239 4.47652479157525  7.18121983326023 4.47652479157525  L 13.4409828872313 4.47652479157525  C 13.7481351469943 4.47652479157525  13.9938569548048 4.22465993856954  13.9938569548048 3.92365072400175  L 13.9938569548048 3.80078982009653  C 14 3.49978060552874  13.7481351469943 3.24791575252303  13.4409828872313 3.24791575252303  L 7.18121983326023 3.24791575252303  C 6.87406757349714 3.24791575252303  6.62834576568673 3.49978060552874  6.62834576568673 3.80078982009653  Z M 7.18121983326023 8.7459412022817  L 13.4409828872313 8.7459412022817  C 13.7481351469943 8.7459412022817  13.9938569548048 8.494076349276  13.9938569548048 8.19306713470821  L 13.9938569548048 8.07634927599825  C 14 7.76919701623519  13.7481351469943 7.52347520842475  13.4409828872313 7.52347520842475  L 7.18121983326023 7.52347520842475  C 6.87406757349714 7.52347520842475  6.62834576568673 7.77534006143046  6.62834576568673 8.07634927599825  L 6.62834576568673 8.19306713470821  C 6.62834576568673 8.50021939447126  6.88021061869239 8.7459412022817  7.18121983326023 8.7459412022817  Z M 13.4409828872313 11.2031592803861  C 13.7481351469943 11.2031592803861  13.9938569548048 10.9512944273804  13.9938569548048 10.6502852128126  L 13.9938569548048 10.5335673541027  C 14 10.2264150943396  13.7481351469943 9.98069328652918  13.4409828872313 9.98069328652918  L 7.18121983326023 9.98069328652918  C 6.87406757349714 9.98069328652918  6.62834576568673 10.2325581395349  6.62834576568673 10.5335673541027  L 6.62834576568673 10.6502852128126  C 6.62834576568673 10.9574374725757  6.88021061869239 11.2031592803861  7.18121983326023 11.2031592803861  L 13.4409828872313 11.2031592803861  Z M 1.22860903905223 9.44010530934621  L 1.22860903905223 9.29267222465994  C 1.22860903905223 8.65379552435279  1.74462483545415 8.13777972795086  2.3835015357613 8.13777972795086  L 2.53093462044757 8.13777972795086  C 3.16981132075472 8.13777972795086  3.68582711715663 8.65379552435279  3.68582711715663 9.29267222465994  L 3.68582711715663 9.44010530934621  C 3.68582711715663 10.0789820096534  3.16981132075472 10.5949978060553  2.53093462044757 10.5949978060553  L 2.3835015357613 10.5949978060553  C 1.74462483545415 10.5949978060553  1.22860903905223 10.0728389644581  1.22860903905223 9.44010530934621  Z M 2.53093462044757 3.86222027204914  L 2.3835015357613 3.86222027204914  C 1.74462483545415 3.86222027204914  1.22860903905223 3.34620447564721  1.22860903905223 2.70732777534006  L 1.22860903905223 2.55989469065379  C 1.22860903905223 1.92101799034664  1.74462483545415 1.40500219394471  2.3835015357613 1.40500219394471  L 2.53093462044757 1.40500219394471  C 3.16981132075472 1.40500219394471  3.68582711715663 1.92101799034664  3.68582711715663 2.55989469065379  L 3.68582711715663 2.70732777534006  C 3.68582711715663 3.34620447564721  3.16981132075472 3.86222027204914  2.53093462044757 3.86222027204914  Z " fill-rule="nonzero" fill="#868686" stroke="none" transform="matrix(1 0 0 1 0 1 )" />
  </g>
</svg>