<?xml version="1.0" encoding="utf-8"?>
<svg version="1.1" xmlns:xlink="http://www.w3.org/1999/xlink" width="20px" height="22px" xmlns="http://www.w3.org/2000/svg">
  <g transform="matrix(1 0 0 1 -22 -399 )">
    <path d="M 1.10333333333333 0  L 14.4444444444444 0  L 20 5.49999999999996  L 20 20.9087999999999  C 19.9993867869873 21.5116310108077  19.5055871883718 22.0000003056801  18.8966666666667 22  L 1.10333333333333 22  C 0.49617282652115 21.9958113945755  0.00484266088876565 21.5098843763839  0 20.9087999999999  L 0 1.09119999999999  C 0 0.488399999999997  0.494444444444444 0  1.10333333333333 0  Z M 14.4444444444444 6.59999999999996  L 12.2222222222222 6.59999999999996  L 12.2222222222222 12.0878999999999  L 10 9.89999999999993  L 7.78888888888889 12.0999999999999  L 7.77777777777778 6.59999999999996  L 5.55555555555555 6.59999999999996  L 5.55555555555555 15.3999999999999  L 7.77777777777778 15.3999999999999  L 10 13.1999999999999  L 12.2222222222222 15.3999999999999  L 14.4444444444444 15.3999999999999  L 14.4444444444444 6.59999999999996  Z " fill-rule="nonzero" fill="#186fbf" stroke="none" transform="matrix(1 0 0 1 22 399 )" />
  </g>
</svg>