<?xml version="1.0" encoding="utf-8"?>
<svg version="1.1" xmlns:xlink="http://www.w3.org/1999/xlink" width="20px" height="23px" xmlns="http://www.w3.org/2000/svg">
  <g transform="matrix(1 0 0 1 -20 -325 )">
    <path d="M 1.10333333333333 0  L 14.4444444444444 0  L 20 5.74999999999996  L 20 21.8591999999999  C 19.9993867869873 22.4894324203899  19.5055871883718 23.0000003195747  18.8966666666667 23  L 1.10333333333333 23  C 0.49617282652115 22.9956210034198  0.00484266088876565 22.4876063934922  0 21.8591999999999  L 0 1.14079999999999  C 0 0.510599999999997  0.494444444444444 0  1.10333333333333 0  Z M 14.4444444444444 16.0999999999999  L 11.3333333333333 11.4999999999999  L 14.4444444444444 6.89999999999996  L 11.7777777777778 6.89999999999996  L 10 9.52889999999994  L 8.22222222222222 6.89999999999996  L 5.55555555555555 6.89999999999996  L 8.66666666666667 11.4999999999999  L 5.55555555555555 16.0999999999999  L 8.22222222222222 16.0999999999999  L 10 13.4710999999999  L 11.7777777777778 16.0999999999999  L 14.4444444444444 16.0999999999999  Z " fill-rule="nonzero" fill="#1b8e6b" stroke="none" transform="matrix(1 0 0 1 20 325 )" />
  </g>
</svg>