<?xml version="1.0" encoding="utf-8"?>
<svg version="1.1" xmlns:xlink="http://www.w3.org/1999/xlink" width="7px" height="13px" xmlns="http://www.w3.org/2000/svg">
  <g transform="matrix(1 0 0 1 -222 -25 )">
    <path d="M 5.95246247735558 6.92506069460524  C 5.76834296663273 6.92506069460524  5.59245210049266 6.84877716112692  5.46663063858705 6.71435635190232  L 0.608312296195621 1.62827648324287  C 0.339884812957109 1.34236424116193  0.339884812957109 0.897061891084832  0.608312296195621 0.611149649003664  C 0.734133758101237 0.476728839778843  0.910024624240762 0.400445306300753  1.09414413496361 0.400445306300753  C 1.27826364568647 0.400445306300753  1.45415451182653 0.476728839778843  1.57997597373215 0.611149649003664  L 6.43829431612302 5.69722951766312  C 6.70672179936154 5.98314175974406  6.70672179936154 6.42844410982116  6.43829431612302 6.71435635190232  C 6.3124728542174 6.84877716112692  6.13658198807788 6.92506069460524  5.95246247735558 6.92506069460524  Z M 0.608312296195621 10.7672635756342  L 5.46663063858705 5.68118369565218  C 5.59245210049266 5.54676288642759  5.76834296663273 5.47047935294927  5.95246247735558 5.47047935294927  C 6.13658198807788 5.47047935294927  6.3124728542174 5.54676288642759  6.43829431612302 5.68118369565218  C 6.70672179936154 5.96709593773335  6.70672179936154 6.41239828781045  6.43829431612302 6.69831052989139  L 1.57997597373215 11.7843903985508  C 1.45415451182653 11.9188112077757  1.27826364568647 11.9950947412538  1.09414413496361 11.9950947412538  C 0.910024624240762 11.9950947412538  0.734133758101237 11.9188112077757  0.608312296195621 11.7843903985508  C 0.340010075683679 11.4983605430948  0.340205213808261 11.0530581732307  0.608758016304279 10.7672635756342  Z " fill-rule="nonzero" fill="#263340" stroke="none" transform="matrix(1 0 0 1 222 25 )" />
  </g>
</svg>