<?xml version="1.0" encoding="utf-8"?>
<svg version="1.1" xmlns:xlink="http://www.w3.org/1999/xlink" width="9px" height="4px" xmlns="http://www.w3.org/2000/svg">
  <g transform="matrix(1 0 0 1 -18 -179 )">
    <path d="M 0.0476610721329962 4  L 0.0476610721329962 0.0055944110577002  L 1.45842895744852 0.0055944110577002  C 2.27819947663841 0.0055944110577002  2.69285084003343 0.413986017628218  2.69285084003343 1.23076923076923  C 2.69285084003343 2.05314685496796  2.27819947663841 2.46713287259618  1.44889673278215 2.46713287259618  L 0.605295668992767 2.46713287259618  L 0.605295668992767 4  L 0.0476610721329962 4  Z M 1.4155339805825 0.565034955929463  L 0.605295668992767 0.565034955929463  L 0.605295668992767 1.90769230769229  L 1.4155339805825 1.90769230769229  C 1.66337158297927 1.90769230769229  1.84448366391075 1.85174825721157  1.95887025750903 1.75104895833334  C 2.07325683404133 1.64475524839744  2.13045013084047 1.47132868589742  2.13045013084047 1.23076923076923  C 2.13045013084047 0.990209795673081  2.06849073877424 0.822377624198737  1.95410414517585 0.721678325320511  C 1.83971756864378 0.615384615384613  1.65860547064631 0.565034975961538  1.4155339805825 0.565034955929463  Z M 3.16946161256067 4  L 3.16946161256067 0.0055944110577002  L 4.41341570274574 0.0055944110577002  C 4.96628418727244 0.0055944110577002  5.38093556773356 0.18461538461537  5.66690203466317 0.542657351762813  C 5.93857016459344 0.878321694711531  6.07678730279133 1.36503497596155  6.07678728572512 2.00279719551281  C 6.07678728572512 2.63496502403845  5.93857016459344 3.12167830528847  5.66690203466317 3.46293705929489  C 5.38093556773356 3.82097902644233  4.96628420433854 4  4.41341570274574 4  L 3.16946161256067 4  Z M 4.30856133381383 0.565034955929463  L 3.72709620942055 0.565034955929463  L 3.72709620942055 3.44055943509616  L 4.30856133381383 3.44055943509616  C 4.73274492187488 3.44055943509616  5.042541916338 3.32307692307691  5.23795233426881 3.09370629006412  C 5.42859663986644 2.8587412459936  5.52391880119842 2.49510488782053  5.52391880119842 2.00279719551281  C 5.52391880119842 1.49930070112177  5.42859663986644 1.130069931891  5.23795233426881 0.906293709935881  C 5.042541916338 0.676923076923089  4.73274492187488 0.565034975961538  4.30856133381383 0.565034955929463  Z M 6.60105913038524 4  L 6.60105913038524 0.0055944110577002  L 8.92215356682345 0.0055944110577002  L 8.92215356682345 0.565034955929463  L 7.15869372724512 0.565034955929463  L 7.15869372724512 1.67272726362179  L 8.82206531022439 1.67272726362179  L 8.82206531022439 2.23216782852563  L 7.15869372724512 2.23216782852563  L 7.15869372724512 4  L 6.60105913038524 4  Z " fill-rule="nonzero" fill="#ffffff" stroke="none" transform="matrix(1 0 0 1 18 179 )" />
  </g>
</svg>