<?xml version="1.0" encoding="utf-8"?>
<svg version="1.1" xmlns:xlink="http://www.w3.org/1999/xlink" width="7px" height="7px" xmlns="http://www.w3.org/2000/svg">
  <g transform="matrix(1 0 0 1 -198 -180 )">
    <path d="M 6.387064676617 0.0145107771688231  L 0.571144278606994 0.0145107771688231  C 0.265547263681583 0.0145107771688231  0.0165422885571616 0.24203980099503  0.0165422885571616 0.548217244830539  L 0.0165422885571616 5.8919568845227  C 0.0165422885571616 6.19784411730407  0.266998339357883 6.44830016810477  0.571724707517092 6.44830016810477  L 6.43349917307989 6.44830016810477  C 6.7382255412391 6.44830016810477  6.96546434720926 6.19784411730407  6.96546434720926 5.8919568845227  L 6.96546434720926 0.547927033776432  C 6.96546434720926 0.241749589940952  6.6920812626322 0.0148009950248422  6.38735489447299 0.0148009950248422  Z M 2.25439469546802 0.805348258706431  C 2.26180165677545 0.805154790649425  2.26921082850151 0.805058044251382  2.2766203160478 0.805058044251382  C 2.74672637610468 0.805058044251382  3.12782263550525 1.1861543036519  3.12782263550525 1.65626036370878  C 3.12782263550525 2.12636642376569  2.74672637610468 2.50746268316621  2.2766203160478 2.50746268316621  C 2.26921082850151 2.50746268316621  2.26180165677545 2.50736593676817  2.25439469546802 2.50717246871116  C 1.78453417040669 2.50717315052492  1.40341238662188 2.12670063926788  1.40261194029847 1.65684079601988  C 1.40341074253524 1.18690572548169  1.7841694070737 0.806147060943289  2.25410447761192 0.805348258706431  Z M 0.948424546214255 5.65252902382616  C 0.88596165903823 5.65272400607239  0.825506324548314 5.63047809141784  0.778067991099192 5.58984245666196  C 0.668155091500694 5.49545564686298  0.655429482708087 5.32989286620887  0.749626865671644 5.21981758104013  L 1.95228026760719 3.40655057816383  C 2.04185758415167 3.30220636065314  2.19690185974639 3.28496513482079  2.30721393034833 3.36708126263215  L 3.36824212045235 4.1558872327814  L 5.27147595129827 1.99436152343748  C 5.36144278606969 1.88117744383553  5.83884742498446 1.34950248756221  6.11890547263681 1.95228026760725  C 6.11890547263681 1.95082919193098  6.12035654831311 2.75066335218438  6.12035654831311 3.56703980099499  L 6.12035654831311 5.65252902382616  C 6.11629353233832 5.64962686567162  0.951036479710865 5.65252902382616  0.948134328358265 5.65252902382616  Z " fill-rule="nonzero" fill="#ffffff" stroke="none" transform="matrix(1 0 0 1 198 180 )" />
  </g>
</svg>