<?xml version="1.0" encoding="utf-8"?>
<svg version="1.1" xmlns:xlink="http://www.w3.org/1999/xlink" width="22px" height="24px" xmlns="http://www.w3.org/2000/svg">
  <g transform="matrix(1 0 0 1 -266 -260 )">
    <path d="M 1.21366666666667 0  L 15.8888888888889 0  L 22 5.99999999999996  L 22 22.8095999999998  C 21.999325465686 23.467233829972  21.4561459072089 24.0000003334692  20.7863333333333 24  L 1.21366666666667 24  C 0.545790109173265 23.9954306122641  0.00532692697764222 23.4653284106006  0 22.8095999999998  L 0 1.19039999999999  C 0 0.532799999999996  0.543888888888889 0  1.21366666666667 0  Z M 15.8888888888889 16.7999999999999  L 12.4666666666667 11.9999999999999  L 15.8888888888889 7.19999999999995  L 12.9555555555556 7.19999999999995  L 11 9.94319999999994  L 9.04444444444444 7.19999999999995  L 6.11111111111111 7.19999999999995  L 9.53333333333333 11.9999999999999  L 6.11111111111111 16.7999999999999  L 9.04444444444444 16.7999999999999  L 11 14.0567999999999  L 12.9555555555556 16.7999999999999  L 15.8888888888889 16.7999999999999  Z " fill-rule="nonzero" fill="#1b8e6b" stroke="none" transform="matrix(1 0 0 1 266 260 )" />
  </g>
</svg>