<?xml version="1.0" encoding="utf-8"?>
<svg version="1.1" xmlns:xlink="http://www.w3.org/1999/xlink" width="13px" height="15px" xmlns="http://www.w3.org/2000/svg">
  <g transform="matrix(1 0 0 1 -195 -339 )">
    <path d="M 0.717166666666666 0  L 9.38888888888889 0  L 13 3.74999999999998  L 13 14.2559999999999  C 12.9996014115417 14.6670211437325  12.6786316724416 15.0000002084183  12.2828333333333 15  L 0.717166666666666 15  C 0.322512337238748 14.9971441326651  0.00314772957769767 14.6658302566254  0 14.2559999999999  L 0 0.743999999999995  C 0 0.332999999999998  0.321388888888889 0  0.717166666666666 0  Z M 9.38888888888889 10.4999999999999  L 7.36666666666667 7.49999999999995  L 9.38888888888889 4.49999999999997  L 7.65555555555555 4.49999999999997  L 6.5 6.21449999999996  L 5.34444444444444 4.49999999999997  L 3.61111111111111 4.49999999999997  L 5.63333333333333 7.49999999999995  L 3.61111111111111 10.4999999999999  L 5.34444444444444 10.4999999999999  L 6.5 8.78549999999994  L 7.65555555555555 10.4999999999999  L 9.38888888888889 10.4999999999999  Z " fill-rule="nonzero" fill="#1b8e6b" stroke="none" transform="matrix(1 0 0 1 195 339 )" />
  </g>
</svg>