<?xml version="1.0" encoding="utf-8"?>
<svg version="1.1" xmlns:xlink="http://www.w3.org/1999/xlink" width="22px" height="25px" xmlns="http://www.w3.org/2000/svg">
  <g transform="matrix(1 0 0 1 -88 -426 )">
    <path d="M 1.21366666666667 0  L 15.8888888888889 0  L 22 6.24999999999996  L 22 23.7599999999998  C 21.999325465686 24.4450352395542  21.4561459072089 25.0000003473638  20.7863333333333 25  L 1.21366666666667 25  C 0.545790109173265 24.9952402211085  0.00532692697764222 24.4430504277089  0 23.7599999999998  L 0 1.23999999999999  C 0 0.554999999999996  0.543888888888889 0  1.21366666666667 0  Z M 15.8888888888889 7.49999999999995  L 13.4444444444444 7.49999999999995  L 13.4444444444444 13.7362499999999  L 11 11.2499999999999  L 8.56777777777778 13.7499999999999  L 8.55555555555555 7.49999999999995  L 6.11111111111111 7.49999999999995  L 6.11111111111111 17.4999999999999  L 8.55555555555555 17.4999999999999  L 11 14.9999999999999  L 13.4444444444444 17.4999999999999  L 15.8888888888889 17.4999999999999  L 15.8888888888889 7.49999999999995  Z " fill-rule="nonzero" fill="#186fbf" stroke="none" transform="matrix(1 0 0 1 88 426 )" />
  </g>
</svg>