<?xml version="1.0" encoding="utf-8"?>
<svg version="1.1" xmlns:xlink="http://www.w3.org/1999/xlink" width="24px" height="17px" xmlns="http://www.w3.org/2000/svg">
  <g transform="matrix(1 0 0 1 -886 -135 )">
    <path d="M 7.96409959467286 17  L 18.2211928199189 17  C 21.3022582513028 17  23.8123914302258 14.489866821077  23.8123914302258 11.4088013896931  L 23.8123914302258 11.192240880139  C 23.8123914302258 9.73537927041112  23.2513028372901 8.35726693688477  22.2374059061957 7.31383902721483  C 21.3908511870295 6.44759698899827  20.3080486392588 5.87666473653735  19.1366531557615 5.68963520555877  C 18.7921250723799 4.20324261725536  17.9849449913144 2.86450492182976  16.8332368268674 1.85060799073538  C 15.4944991314418 0.649681528662427  13.7620150550087 0  11.9606253618992 0  C 10.169079328315 0  8.4365952518819 0.649681528662427  7.0880138969311 1.8407643312102  C 5.93630573248407 2.85466126230457  5.12912565141863 4.20324261725536  4.79444122756223 5.68963520555877  C 3.63288940359001 5.89635205558773  2.56977417486974 6.46728430804863  1.74290677475392 7.3335263462652  C 0.738853503184714 8.38679791546033  0.18760856977417 9.75506658946149  0.18760856977417 11.192240880139  L 0.18760856977417 11.4088013896931  C 0.18760856977417 12.8951939779965  0.768384481760279 14.3028372900984  1.83149971048061 15.3561088592936  C 2.88477127967576 16.4192240880139  4.29241459177763 17  5.77880718008106 17  L 7.96409959467286 17  Z M 17.5124493341054 6.61493920092646  L 17.6108859293573 7.35321366531558  L 18.3590040532716 7.38274464389114  C 20.3867979154604 7.45165026056746  22.0405327156919 9.16444701795021  22.0405327156919 11.192240880139  L 22.0405327156919 11.4088013896931  C 22.0405327156919 13.5153445280834  20.3277359583092 15.2281412854661  18.2211928199189 15  L 6.39895773016792 15  C 6.39895773016792 15.2281412854661  6.38911407064273 15.2281412854661  6.38911407064273 15.2281412854661  L 5.77880718008106 15.2281412854661  C 3.67226404169077 15.2281412854661  1.95946728430806 13.5153445280834  1.95946728430806 11.4088013896931  L 1.95946728430806 11.192240880139  C 1.95946728430806 9.15460335842502  3.55414012738851 7.48118123914303  5.59177764910248 7.38274464389114  L 6.3300521134916 7.34337000579039  L 6.42848870874349 6.61493920092646  C 6.78286045165027 3.85871453387377  9.17486971627102 1.77185871453388  11.9606253618992 1.77185871453388  C 14.7562246670527 1.77185871453388  17.1383902721482 3.85871453387377  17.5124493341054 6.61493920092646  Z M 11.635784597568 12.5998841922409  L 11.6456282570932 10.6409959467284  L 11.6456282570932 6.03416328894036  C 11.635784597568 5.64041690793283  11.320787492762 5.32541980312681  10.9270411117545 5.32541980312681  C 10.5332947307469 5.32541980312681  10.2182976259409 5.64041690793283  10.2182976259409 6.03416328894036  L 10.2182976259409 10.6409959467284  L 9.00752750434282 9.43022582513028  C 8.73190503763755 9.15460335842502  8.27909669947888 9.15460335842502  8.00347423277361 9.43022582513028  C 7.72785176606834 9.70584829183555  7.72785176606834 10.1586566299942  8.00347423277361 10.4342790966995  L 10.4250144759699 12.8558193398958  C 10.5529820497973 12.9837869137232  10.7400115807759 13.0625361899247  10.9270411117545 13.0625361899247  C 11.1140706427331 13.0625361899247  11.3306311522872 13.0428488708743  11.635784597568 12.5998841922409  Z M 16.2623045744065 9.0069484655472  C 16.5379270411117 8.73132599884192  16.5379270411117 8.27851766068326  16.2623045744065 8.00289519397799  L 13.8506079907354 5.5813549507817  C 13.722640416908 5.45338737695425  13.5356108859294 5.37463810075275  13.3485813549508 5.37463810075275  C 13.1615518239722 5.37463810075275  12.9449913144181 5.39432541980312  12.6398378691372 5.8372900984366  L 12.6299942096121 7.79617834394904  L 12.6299942096121 12.3931673422119  C 12.6299942096121 12.7869137232195  12.9449913144181 13.1019108280255  13.3387376954256 13.1019108280255  C 13.7324840764331 13.1019108280255  14.0474811812392 12.7869137232195  14.0474811812392 12.3931673422119  L 14.0474811812392 7.78633468442385  L 15.2582513028373 9.0069484655472  C 15.5338737695425 9.28257093225245  15.9866821077012 9.28257093225245  16.2623045744065 9.0069484655472  Z " fill-rule="nonzero" fill="#263340" stroke="none" transform="matrix(1 0 0 1 886 135 )" />
  </g>
</svg>