<?xml version="1.0" encoding="utf-8"?>
<svg version="1.1" xmlns:xlink="http://www.w3.org/1999/xlink" width="24px" height="20px" xmlns="http://www.w3.org/2000/svg">
  <g transform="matrix(1 0 0 1 -20 -84 )">
    <path d="M 24 4.8  C 23.988 3.48  22.92 2.40000000000001  21.6 2.40000000000001  L 12.9 2.40000000000001  C 12.624 2.40000000000001  12.36 2.244  12.228 1.992  L 12.024 1.62  C 11.256 0.0600000000000023  9.264 0  9.18 0  L 2.4 0  C 1.08 0  0 1.08  0 2.40000000000001  L 0 16.788  C 0 18.108  1.056 19.188  2.376 19  L 21.6 19  L 21.6 19.188  C 22.92 19.188  24 18.108  24 16.788  L 24 4.8  Z M 10.668 14.604  C 10.668 15.132  10.236 15.564  9.708 15.564  L 5.628 15.564  C 5.1 15.564  4.668 15.132  4.668 14.604  C 4.668 14.076  5.1 13.644  5.628 13.644  L 9.708 13.644  C 10.236 13.644  10.668 14.076  10.668 14.604  Z M 14.268 10.932  C 14.268 11.46  13.836 11.892  13.308 11.892  L 5.628 11.892  C 5.1 11.892  4.668 11.46  4.668 10.932  C 4.668 10.404  5.1 9.97199999999999  5.628 9.97199999999999  L 13.308 9.97199999999999  C 13.836 9.97199999999999  14.268 10.404  14.268 10.932  Z M 19.068 7.248  C 19.068 7.776  18.636 8.208  18.108 8.208  L 5.628 8.208  C 5.1 8.208  4.668 7.776  4.668 7.248  C 4.668 6.72  5.1 6.288  5.628 6.288  L 18.108 6.288  C 18.636 6.288  19.068 6.72  19.068 7.248  Z " fill-rule="nonzero" fill="#f7bb0b" stroke="none" transform="matrix(1 0 0 1 20 84 )" />
  </g>
</svg>