<?xml version="1.0" encoding="utf-8"?>
<svg version="1.1" xmlns:xlink="http://www.w3.org/1999/xlink" width="14px" height="14px" xmlns="http://www.w3.org/2000/svg">
  <g transform="matrix(1 0 0 1 -28 -21 )">
    <path d="M 13.0459165154264 13.6726293103448  C 13.267445553539 13.4493137477314  13.267445553539 13.0866492740472  13.0459165154264 12.8633337114338  L 10.2303539019964 10.0495576225046  C 10.7305807622504 9.52789246823957  11.1271892014519 8.92583371143377  11.4094600725952 8.2612465970962  C 11.7185288112523 7.53234460072593  11.8739564428312 6.75877949183302  11.8739564428312 5.96198956442831  C 11.8739564428312 5.16519963702356  11.7185288112523 4.39163452813068  11.4094600725952 3.66273253176041  C 11.1111104809438 2.95884187840289  10.6859176497277 2.32819872958257  10.1428142014519 1.7850952813067  C 9.59971075317594 1.24199183303088  8.96906760435564 0.816799001814871  8.26517695099824 0.518449410163356  C 7.53627495462797 0.209380671506352  6.76270984573506 0.0539530399273929  5.96591991833031 0.0539530399273929  C 5.16912999092557 0.0539530399273929  4.39556488203272 0.209380671506352  3.6666628856625 0.518449410163356  C 2.96277223230493 0.816799001814871  2.33212908348457 1.24199183303088  1.7890256352087 1.7850952813067  C 1.24592218693283 2.32819872958257  0.820729355716935 2.95884187840289  0.522379764065363 3.66273253176041  C 0.213311025408359 4.39163452813068  0.0578833938293997 5.16519963702356  0.0578833938293997 5.96198956442831  C 0.0578833938293997 6.75877949183302  0.213311025408359 7.53234460072593  0.522379764065363 8.2612465970962  C 0.820729355716935 8.96513725045372  1.24592218693283 9.59578039927405  1.7890256352087 10.1388838475499  C 2.33212908348457 10.6819872958258  2.96277223230493 11.1071801270417  3.6666628856625 11.4055297186933  C 4.39556488203272 11.7145984573503  5.16912999092557 11.8700260889292  5.96591991833031 11.8700260889292  C 6.76270984573506 11.8700260889292  7.53627495462797 11.7145984573503  8.26517695099824 11.4055297186933  C 8.65285276769509 11.2411694646098  9.01909029038114 11.0375056715064  9.36210299455536 10.7963248638839  L 12.2384074410163 13.6726293103448  C 12.4599364791288 13.8941583484573  12.824387477314 13.8941583484573  13.0459165154264 13.6726293103448  Z M 9.33530512704175 9.32958824863883  C 8.4348967785844 10.2299965970962  7.2379253629764 10.7248638838475  5.96591991833031 10.7248638838475  C 4.69391447368412 10.7248638838475  3.49694305807617 10.2299965970962  2.59653470961882 9.32958824863883  C 1.69612636116148 8.42917990018148  1.20125907441013 7.23399500907442  1.20125907441013 5.96020303992739  C 1.20125907441013 4.68641107078039  1.69612636116148 3.4912261796733  2.59653470961882 2.59081783121596  C 3.49694305807617 1.69040948275864  4.69212794918332 1.19554219600727  5.96591991833031 1.19554219600727  C 7.2379253629764 1.19554219600727  8.4348967785844 1.69040948275864  9.33530512704175 2.59081783121596  C 10.2357134754991 3.4912261796733  10.7305807622504 4.68641107078039  10.7305807622504 5.96020303992739  C 10.7305807622504 7.23399500907442  10.2357134754991 8.42917990018148  9.33530512704175 9.32958824863883  Z " fill-rule="nonzero" fill="#999999" stroke="none" transform="matrix(1 0 0 1 28 21 )" />
  </g>
</svg>