<?xml version="1.0" encoding="utf-8"?>
<svg version="1.1" xmlns:xlink="http://www.w3.org/1999/xlink" width="14px" height="14px" xmlns="http://www.w3.org/2000/svg">
  <g>
    <path d="M 6.32258064648437 1.806451609375  C 6.32258064648437 0.808775934209898  5.51380471227458 0  4.51612903710935 0  L 1.80645160937513 0  C 0.808775934209905 0  0 0.808775934209898  0 1.806451609375  L 0 4.51612903710938  C 0 5.51380471227449  0.808775934209905 6.32258064648438  1.80645160937513 6.32258064648438  L 4.51612903710935 6.32258064648438  C 5.51380471227458 6.32258064648438  6.32258064648437 5.51380471227449  6.32258064648437 4.51612903710938  L 6.32258064648437 1.806451609375  Z M 4.96774193945305 2.25806451171876  L 4.96774193945305 4.06451613476562  C 4.96774193945305 4.56335397234819  4.56335397234812 4.96774193945314  4.06451613476571 4.96774193945314  L 2.25806451171877 4.96774193945314  C 1.75922667413636 4.96774193945314  1.35483870703115 4.56335397234819  1.35483870703115 4.06451613476562  L 1.35483870703115 2.25806451171876  C 1.35483870703115 1.75922667413619  1.75922667413636 1.35483870703124  2.25806451171877 1.35483870703124  L 4.06451613476571 1.35483870703124  C 4.56335397234812 1.35483870703124  4.96774193945305 1.75922667413619  4.96774193945305 2.25806451171876  Z M 14 1.806451609375  C 14 0.808775934209898  13.1912240657901 0  12.1935483906249 0  L 9.48387096289065 0  C 8.48619528772542 0  7.67741935351563 0.808775934209898  7.67741935351563 1.806451609375  L 7.67741935351563 4.51612903710938  C 7.67741935351563 5.51380471227449  8.48619528772542 6.32258064648438  9.48387096289065 6.32258064648438  L 12.1935483906249 6.32258064648438  C 13.1912240657901 6.32258064648438  14 5.51380471227449  14 4.51612903710938  L 14 1.806451609375  Z M 12.6451612929689 2.25806451171876  L 12.6451612929689 4.06451613476562  C 12.6451612929689 4.56335397234819  12.2407733258636 4.96774193945314  11.7419354882812 4.96774193945314  L 9.93548386523429 4.96774193945314  C 9.43664602765188 4.96774193945314  9.03225806054695 4.56335397234819  9.03225806054695 4.06451613476562  L 9.03225806054695 2.25806451171876  C 9.03225806054695 1.75922667413619  9.43664602765188 1.35483870703124  9.93548386523429 1.35483870703124  L 11.7419354882812 1.35483870703124  C 12.2407733258636 1.35483870703124  12.6451612929689 1.75922667413619  12.6451612929689 2.25806451171876  Z M 14 9.48387096289062  C 14 8.48619528772551  13.1912240657901 7.67741935351562  12.1935483906249 7.67741935351562  L 9.48387096289065 7.67741935351562  C 8.48619528772542 7.67741935351562  7.67741935351563 8.48619528772551  7.67741935351563 9.48387096289062  L 7.67741935351563 12.193548390625  C 7.67741935351563 13.1912240657901  8.48619528772542 14  9.48387096289065 14  L 12.1935483906249 14  C 13.1912240657901 14  14 13.1912240657901  14 12.193548390625  L 14 9.48387096289062  Z M 12.6451612929689 9.93548386523438  L 12.6451612929689 11.7419354882812  C 12.6451612929689 12.2407733258638  12.2407733258636 12.6451612929688  11.7419354882812 12.6451612929688  L 9.93548386523429 12.6451612929688  C 9.43664602765188 12.6451612929688  9.03225806054695 12.2407733258638  9.03225806054695 11.7419354882812  L 9.03225806054695 9.93548386523438  C 9.03225806054695 9.43664602765181  9.43664602765188 9.03225806054686  9.93548386523429 9.03225806054686  L 11.7419354882812 9.03225806054686  C 12.2407733258636 9.03225806054686  12.6451612929689 9.43664602765181  12.6451612929689 9.93548386523438  Z M 6.32258064648437 9.48387096289062  C 6.32258064648437 8.48619528772551  5.51380471227458 7.67741935351562  4.51612903710935 7.67741935351562  L 1.80645160937513 7.67741935351562  C 0.808775934209905 7.67741935351562  0 8.48619528772551  0 9.48387096289062  L 0 12.193548390625  C 0 13.1912240657901  0.808775934209905 14  1.80645160937513 14  L 4.51612903710935 14  C 5.51380471227458 14  6.32258064648437 13.1912240657901  6.32258064648437 12.193548390625  L 6.32258064648437 9.48387096289062  Z M 4.96774193945305 9.93548386523438  L 4.96774193945305 11.7419354882812  C 4.96774193945305 12.2407733258638  4.56335397234812 12.6451612929688  4.06451613476571 12.6451612929688  L 2.25806451171877 12.6451612929688  C 1.75922667413636 12.6451612929688  1.35483870703115 12.2407733258638  1.35483870703115 11.7419354882812  L 1.35483870703115 9.93548386523438  C 1.35483870703115 9.43664602765181  1.75922667413636 9.03225806054686  2.25806451171877 9.03225806054686  L 4.06451613476571 9.03225806054686  C 4.56335397234812 9.03225806054686  4.96774193945305 9.43664602765181  4.96774193945305 9.93548386523438  Z " fill-rule="nonzero" fill="#868686" stroke="none" />
  </g>
</svg>