<?xml version="1.0" encoding="utf-8"?>
<svg version="1.1" xmlns:xlink="http://www.w3.org/1999/xlink" width="13px" height="3px" xmlns="http://www.w3.org/2000/svg">
  <g transform="matrix(1 0 0 1 -342 -93 )">
    <path d="M 13 1.5  C 13 2.33999999999997  12.34 3  11.5 3  C 10.66 3  10 2.33999999999997  10 1.5  C 10 0.660000000000025  10.66 0  11.5 0  C 12.34 0  13 0.660000000000025  13 1.5  Z M 6.5 0  C 7.34000000000003 0  8 0.660000000000025  8 1.5  C 8 2.33999999999997  7.34000000000003 3  6.5 3  C 5.65999999999997 3  5 2.33999999999997  5 1.5  C 5 0.660000000000025  5.65999999999997 0  6.5 0  Z M 1.5 0  C 2.34000000000003 0  3 0.660000000000025  3 1.5  C 3 2.33999999999997  2.34000000000003 3  1.5 3  C 0.659999999999968 3  0 2.33999999999997  0 1.5  C 0 0.660000000000025  0.659999999999968 0  1.5 0  Z " fill-rule="nonzero" fill="#868686" stroke="none" transform="matrix(1 0 0 1 342 93 )" />
  </g>
</svg>