<?xml version="1.0" encoding="utf-8"?>
<svg version="1.1" xmlns:xlink="http://www.w3.org/1999/xlink" width="13px" height="14px" xmlns="http://www.w3.org/2000/svg">
  <g transform="matrix(1 0 0 1 -263 -23 )">
    <path d="M 8.96145832763665 6.31859375  L 8.96145832763665 12.0221354223633  C 8.96145832763665 12.7866666723633  8.54218750000001 13.44546875  7.84291667236329 13.7622916723633  L 7.78093749999994 13.7885416723633  C 7.55590713012754 13.8793906556124  7.31559291175483 13.9264140316199  7.07291667236336 13.9270833276367  C 6.55678851827849 13.9295316750084  6.0631155080896 13.7162014906858  5.71119792236331 13.3386458276367  L 3.99947917236315 11.5623958276367  C 3.65456030625185 11.2074734944072  3.46220236887484 10.7316820248133  3.46354167236339 10.2367708276367  L 3.46354167236339 6.31822917236328  L 0.568749999999881 3.31552082763672  C 0.0164062499999602 2.76244790527343  -0.128333327636625 1.98260415527344  0.168802077636713 1.23739582763672  C 0.469947922363303 0.52281249999999  1.12656250000012 0.0729166723632773  1.91005207763672 0.0729166723632773  L 10.5145833276367 0.0729166723632773  C 11.2980729052735 0.0729166723632773  11.9546874999999 0.52281249999999  12.2653124999999 1.26145832763672  C 12.5533333276367 1.98151040527343  12.4082291723632 2.76244790527343  11.8551562499999 3.31588542236328  L 8.96109375000003 6.31859375  Z M 11.8555208276367 3.31588542236328  L 11.8325520776366 3.33848957763671  L 10.8171875 2.29140625  L 11.8671875 3.30348957763671  L 11.8555208276367 3.31588542236328  Z M 10.8171875 2.29140625  C 10.9564583276367 2.15651042236328  10.9878125000001 1.99390625  10.9116145776367 1.80286457763672  C 10.8350520776368 1.62203125000001  10.7030729223633 1.53125  10.5145833276367 1.53125  L 1.91005207763672 1.53125  C 1.72192707763659 1.53125  1.58921875000007 1.62166667236329  1.5133854223632 1.80322917236328  C 1.43718749999994 1.99390625  1.46854167236322 2.15687500000001  1.60744792236326 2.29177082763671  L 4.92151042236318 5.73052082763672  L 4.92151042236318 10.2367708276367  C 4.92151042236318 10.3570833276367  4.96416667236332 10.4620833276367  5.0491145776368 10.5503125  L 6.77031249999993 12.3360416723633  C 6.85088542236332 12.4246354223633  6.95187500000003 12.46875  7.07291667236336 12.46875  C 7.12687499999998 12.46875  7.18302084472657 12.4570833276367  7.2409895776367 12.4341145776367  C 7.41598957763671 12.3546354052734  7.50348957763674 12.2175520776367  7.50348957763674 12.0221354223633  L 7.50348957763674 5.73052082763672  L 10.8175520776367 2.29140625  Z " fill-rule="nonzero" fill="#868686" stroke="none" transform="matrix(1 0 0 1 263 23 )" />
  </g>
</svg>