<?xml version="1.0" encoding="utf-8"?>
<svg version="1.1" xmlns:xlink="http://www.w3.org/1999/xlink" width="10px" height="13px" xmlns="http://www.w3.org/2000/svg">
  <g transform="matrix(1 0 0 1 0 -3 )">
    <path d="M 9.58288888264974 6.34584889537763  C 9.58288888264974 8.77838000000003  8.30575 10.9212133333334  6.36033333333333 12.1909666666667  L 4.66472221598308 10.5590911046224  C 6.20572221598307 9.7398311046224  7.24966666666667 8.16177554257814  7.24966666666667 6.34651333333335  C 7.24966666666667 4.69935556204427  6.38844445068359 3.24754443795575  5.0768055493164 2.37977999999998  L 6.74175 0.777139999999974  C 8.46802778401693 2.0681555620443  9.58288888264974 4.08009333333331  9.58288888264974 6.34584889537763  Z M 3.58308333333333 6.66810443795572  C 3.58308333333333 7.55380887591144  2.83750000000001 8.27140887591145  1.91622221598307 8.27140889537759  C 0.996222215983067 8.27140889537759  0.25 7.55380889537759  0.25 6.66810443795572  C 0.25 5.7824  0.995583333333329 5.06413554257813  1.91622221598307 5.06413556204427  C 2.83686109863281 5.06413558151041  3.58308333333333 5.78173556204428  3.58308333333333 6.66810443795572  Z " fill-rule="nonzero" fill="#333333" stroke="none" transform="matrix(1 0 0 1 0 3 )" />
  </g>
</svg>