<?xml version="1.0" encoding="utf-8"?>
<svg version="1.1" xmlns:xlink="http://www.w3.org/1999/xlink" width="20px" height="20px" xmlns="http://www.w3.org/2000/svg">
  <g transform="matrix(1 0 0 1 -79 -900 )">
    <path d="M 1 0  L 19 0  C 19.552 0  20 0.448  20 1  L 20 15  C 20 15.552  19.552 16  19 16  L 4.455 16  L 0 19.5  L 0 1  C 0 0.448  0.448 0  1 0  Z M 18 14  L 18 2  L 2 2  L 2 15.385  L 3.763 14  L 18 14  Z M 9 4  L 11 4  L 11 12  L 9 12  L 9 4  Z M 13 6  L 15 6  L 15 12  L 13 12  L 13 6  Z M 5 8  L 7 8  L 7 12  L 5 12  L 5 8  Z " fill-rule="nonzero" fill="#585de0" stroke="none" transform="matrix(1 0 0 1 79 900 )" />
  </g>
</svg>