<?xml version="1.0" encoding="utf-8"?>
<svg version="1.1" xmlns:xlink="http://www.w3.org/1999/xlink" width="18px" height="3px" xmlns="http://www.w3.org/2000/svg">
  <g transform="matrix(1 0 0 1 -864 -122 )">
    <path d="M 1.54202586206895 0.0539224447901177  C 0.729667379002649 0.0539224447901177  0.0711207067743089 0.712469103140606  0.0711206896551175 1.5248275862069  C 0.0711206896551175 2.33718611237528  0.729667366897615 2.9957327896177  1.54202586206895 2.9957327896177  C 2.35438435724029 2.9957327896177  3.01293103448279 2.33718611237528  3.01293103448279 1.5248276172039  C 3.01293103448279 0.71246912203253  2.35438435724029 0.0539224447901177  1.54202586206895 0.0539224447901177  Z M 7.42564655172407 1.5248275862069  C 7.42564655172407 2.33718608137826  8.08419322896657 2.99573275862069  8.89655172413791 2.99573275862069  C 9.70891021930925 2.99573275862069  10.3674568965517 2.33718608137826  10.3674568965517 1.5248275862069  C 10.3674568965517 0.71246909103553  9.70891021930925 0.0539224137931029  8.89655172413791 0.0539224137931029  C 8.08419322896657 0.0539224137931029  7.42564655172407 0.71246909103553  7.42564655172407 1.5248275862069  Z M 14.780172413793 1.5248275862069  C 14.780172413793 2.33718608137826  15.4387190910355 2.99573275862069  16.2510775862069 2.99573275862069  C 17.0634360813782 2.99573275862069  17.7219827586207 2.33718608137826  17.7219827586207 1.5248275862069  C 17.7219827586207 0.71246909103553  17.0634360813782 0.0539224137931029  16.2510775862069 0.0539224137931029  C 15.4387190910355 0.0539224137931029  14.780172413793 0.71246909103553  14.780172413793 1.5248275862069  Z " fill-rule="nonzero" fill="#333333" stroke="none" transform="matrix(1 0 0 1 864 122 )" />
  </g>
</svg>