<?xml version="1.0" encoding="utf-8"?>
<svg version="1.1" xmlns:xlink="http://www.w3.org/1999/xlink" width="25px" height="25px" xmlns="http://www.w3.org/2000/svg">
  <g transform="matrix(1 0 0 1 -857 -792 )">
    <path d="M 6.34469696969697 11.2689393939394  L 11.2689393939394 11.2689393939394  L 11.2689393939394 6.34469696969697  L 13.7310606060606 6.34469696969697  L 13.7310606060606 11.2689393939394  L 18.655303030303 11.2689393939394  L 18.655303030303 13.7310606060606  L 13.7310606060606 13.7310606060606  L 13.7310606060606 18.655303030303  L 11.2689393939394 18.655303030303  L 11.2689393939394 13.7310606060606  L 6.34469696969697 13.7310606060606  L 6.34469696969697 11.2689393939394  Z M 24.8106060606061 12.5  C 24.8106060606061 19.2991477272727  19.2991477272727 24.8106060606061  12.5 24.8106060606061  C 5.70085227272727 24.8106060606061  0.189393939393939 19.2991477272727  0.189393939393939 12.5  C 0.189393939393939 5.70085227272727  5.70085227272727 0.189393939393939  12.5 0.189393939393939  C 19.2991477272727 0.189393939393939  24.8106060606061 5.70085227272727  24.8106060606061 12.5  Z M 12.5 22.3484848484848  C 17.9391679907578 22.3484848484848  22.3484848484848 17.9391679907578  22.3484848484848 12.5  C 22.3484848484848 7.06083200924219  17.9391679907578 2.65151515151515  12.5 2.65151515151515  C 7.06083200924219 2.65151515151515  2.65151515151515 7.06083200924219  2.65151515151515 12.5  C 2.65151515151515 17.9391679907578  7.06083200924219 22.3484848484848  12.5 22.3484848484848  Z " fill-rule="nonzero" fill="#7c7b79" stroke="none" fill-opacity="0.419607843137255" transform="matrix(1 0 0 1 857 792 )" />
  </g>
</svg>