<?xml version="1.0" encoding="utf-8"?>
<svg version="1.1" xmlns:xlink="http://www.w3.org/1999/xlink" width="25px" height="25px" xmlns="http://www.w3.org/2000/svg">
  <g transform="matrix(1 0 0 1 -820 -792 )">
    <path d="M 25 12.5  C 25 19.40375  19.40375 25  12.5 25  C 5.59625 25  0 19.40375  0 12.5  C 0 5.59625  5.59625 0  12.5 0  C 19.40375 0  25 5.59625  25 12.5  Z M 12.5 22.5  C 18.0228474983079 22.5  22.5 18.0228474983079  22.5 12.5  C 22.5 6.97715250169207  18.0228474983079 2.5  12.5 2.5  C 6.97715250169207 2.5  2.5 6.97715250169207  2.5 12.5  C 2.5 18.0228474983079  6.97715250169207 22.5  12.5 22.5  Z M 12.5 18.75  C 9.73857625084603 18.75  7.5 16.511423749154  7.5 13.75  L 17.5 13.75  C 17.5 16.511423749154  15.261423749154 18.75  12.5 18.75  Z M 7.5 11.25  C 6.46446609406726 11.25  5.625 10.4105339059327  5.625 9.375  C 5.625 8.33946609406726  6.46446609406726 7.5  7.5 7.5  C 8.53553390593274 7.5  9.375 8.33946609406726  9.375 9.375  C 9.375 10.4105339059327  8.53553390593274 11.25  7.5 11.25  Z M 17.5 11.25  C 16.4644660940673 11.25  15.625 10.4105339059327  15.625 9.375  C 15.625 8.33946609406726  16.4644660940673 7.5  17.5 7.5  C 18.5355339059327 7.5  19.375 8.33946609406726  19.375 9.375  C 19.375 10.4105339059327  18.5355339059327 11.25  17.5 11.25  Z " fill-rule="nonzero" fill="#cccccc" stroke="none" transform="matrix(1 0 0 1 820 792 )" />
  </g>
</svg>