<?xml version="1.0" encoding="utf-8"?>
<svg version="1.1" xmlns:xlink="http://www.w3.org/1999/xlink" width="18px" height="22px" xmlns="http://www.w3.org/2000/svg">
  <g transform="matrix(1 0 0 1 -545 -790 )">
    <path d="M 9 0  C 11.761423749154 0  14 2.23857625084603  14 5  L 14 9  C 14 11.761423749154  11.761423749154 14  9 14  C 6.23857625084603 14  4 11.761423749154  4 9  L 4 5  C 4 2.23857625084603  6.23857625084603 0  9 0  Z M 8 17.945  C 3.82143143569694 17.4766300477844  0.523369952215599 14.1785685643031  0.0550000000000002 10  L 2.07 10  C 2.57084719951419 13.4413055502045  5.52143881331619 15.9935541660555  8.999 15.9935541660555  C 12.4765611866838 15.9935541660555  15.4271528004858 13.4413055502045  15.928 10  L 17.944 10  C 17.4757207966764 14.1782380244733  14.1781790475502 17.476194872007  10 17.945  L 10 22  L 8 22  L 8 17.945  Z " fill-rule="nonzero" fill="#cccccc" stroke="none" transform="matrix(1 0 0 1 545 790 )" />
  </g>
</svg>