<?xml version="1.0" encoding="utf-8"?>
<svg version="1.1" xmlns:xlink="http://www.w3.org/1999/xlink" width="12px" height="14px" xmlns="http://www.w3.org/2000/svg">
  <g transform="matrix(1 0 0 1 -538 -733 )">
    <path d="M 6.66666666666667 0  L 6.66666666666667 2.03666666666667  C 9.66666666666667 2.368  12 4.91133333333333  12 8  L 12 14  L 0 14  L 0 8  C 0 4.91133333333333  2.33333333333333 2.368  5.33333333333333 2.03666666666667  L 5.33333333333333 0  L 6.66666666666667 0  Z M 1.33333333333333 12.6666666666667  L 10.6666666666667 12.6666666666667  L 10.6666666666667 8  C 10.6666666666667 5.42267123699505  8.5773288325437 3.33333340287209  6 3.33333340287209  C 3.42267119461287 3.33333340287209  1.33333337173853 5.42267119461287  1.33333333333333 8  L 1.33333333333333 12.6666666666667  Z M 6 11.3333333333333  C 4.15905083389735 11.3333333333333  2.66666666666667 9.84094916610264  2.66666666666667 8  C 2.66666666666667 6.15905083389735  4.15905083389735 4.66666666666667  6 4.66666666666667  C 7.84094916610264 4.66666666666667  9.33333333333333 6.15905083389735  9.33333333333333 8  C 9.33333333333333 9.84094916610264  7.84094916610264 11.3333333333333  6 11.3333333333333  Z M 6 10  C 7.10456949966159 10  8 9.10456949966159  8 8  C 8 6.89543050033841  7.10456949966159 6  6 6  C 4.89543050033841 6  4 6.89543050033841  4 8  C 4 9.10456949966159  4.89543050033841 10  6 10  Z M 6 8.66666666666667  C 5.63181016677947 8.66666666666667  5.33333333333333 8.36818983322053  5.33333333333333 8  C 5.33333333333333 7.63181016677947  5.63181016677947 7.33333333333333  6 7.33333333333333  C 6.36818983322053 7.33333333333333  6.66666666666667 7.63181016677947  6.66666666666667 8  C 6.66666666666667 8.36818983322053  6.36818983322053 8.66666666666667  6 8.66666666666667  Z " fill-rule="nonzero" fill="#ffffff" stroke="none" transform="matrix(1 0 0 1 538 733 )" />
  </g>
</svg>