<?xml version="1.0" encoding="utf-8"?>
<svg version="1.1" xmlns:xlink="http://www.w3.org/1999/xlink" width="21px" height="22px" xmlns="http://www.w3.org/2000/svg">
  <g transform="matrix(1 0 0 1 -568 -683 )">
    <path d="M 1.10526315789474 6.59999999999996  L 7.73684210526316 0.0033000000000001  L 7.73684210526316 0  L 19.8925263157895 0  C 20.5026315789474 0  21 0.500499999999997  21 1.09119999999999  L 21 20.9087999999999  C 20.9993900144242 21.5116310108077  20.5081893610645 22.0000003056801  19.9024736842105 22  L 2.20278947368421 22  C 1.59539289436396 21.9957832815737  1.10523589006278 21.5045456820293  1.10523589006278 20.9000267606942  C 1.10523589006278 20.8974511499677  1.10524497939616 20.8948755471838  1.10526315789474 20.8922999999999  L 1.10526315789474 6.59999999999996  Z M 7.73684210526316 3.11299999999998  L 4.23315789473684 6.59999999999996  L 7.73684210526316 6.59999999999996  L 7.73684210526316 3.11299999999998  Z M 18.7894736842105 2.19999999999999  L 9.94736842105263 2.19999999999999  L 9.94736842105263 7.69999999999995  C 9.94736842105263 8.30751322481382  9.45252524981298 8.79999999999994  8.84210526315789 8.79999999999994  L 3.31578947368421 8.79999999999994  L 3.31578947368421 19.7999999999999  L 18.7894736842105 19.7999999999999  L 18.7894736842105 2.19999999999999  Z " fill-rule="nonzero" fill="#30404f" stroke="none" transform="matrix(1 0 0 1 568 683 )" />
  </g>
</svg>