<?xml version="1.0" encoding="utf-8"?>
<svg version="1.1" xmlns:xlink="http://www.w3.org/1999/xlink" width="24px" height="22px" xmlns="http://www.w3.org/2000/svg">
  <g transform="matrix(1 0 0 1 -835 -578 )">
    <path d="M 1.2 0  L 22.8 0  C 23.4624 0  24 0.4928  24 1.1  L 24 16.5  C 24 17.1072  23.4624 17.6  22.8 17.6  L 5.346 17.6  L 0 21.45  L 0 1.1  C 0 0.4928  0.5376 0  1.2 0  Z M 21.6 15  L 21.6 2.2  L 2.4 2.2  L 2.4 16.9235  L 4.5156 15  L 21.6 15  Z M 10.8 4.4  L 13.2 4.4  L 13.2 13.2  L 10.8 13.2  L 10.8 4.4  Z M 15.6 6.6  L 18 6.6  L 18 13.2  L 15.6 13.2  L 15.6 6.6  Z M 6 8.8  L 8.4 8.8  L 8.4 13.2  L 6 13.2  L 6 8.8  Z " fill-rule="nonzero" fill="#30404f" stroke="none" transform="matrix(1 0 0 1 835 578 )" />
  </g>
</svg>