<?xml version="1.0" encoding="utf-8"?>
<svg version="1.1" xmlns:xlink="http://www.w3.org/1999/xlink" width="20px" height="23px" xmlns="http://www.w3.org/2000/svg">
  <g transform="matrix(1 0 0 1 -747 -578 )">
    <path d="M 18.8966666666667 0  C 19.5055555555556 0  20 0.510599999999997  20 1.14079999999999  L 20 21.8591999999999  C 19.9951573391112 22.4876063934922  19.5038271734789 22.9956210034198  18.8966666666667 23  L 1.10333333333333 23  C 0.494412811628232 23.0000003195747  0.000613213012714553 22.4894324203899  0 21.8591999999999  L 0 1.14079999999999  C 0.00484266088876615 0.512393606507624  0.49617282652115 0.00437899658005324  1.10333333333333 0  L 18.8966666666667 0  Z M 17.7777777777778 20.6999999999999  L 17.7777777777778 2.29999999999998  L 2.22222222222222 2.29999999999998  L 2.22222222222222 20.6999999999999  L 17.7777777777778 20.6999999999999  Z M 6.46444444444444 9.94289999999993  L 9.21444444444444 12.7891499999999  L 13.9288888888889 7.91084999999995  L 15.5 9.53694999999994  L 9.21444444444444 16.0424999999999  L 4.89222222222222 11.5689999999999  L 6.46444444444444 9.94289999999993  Z " fill-rule="nonzero" fill="#30404f" stroke="none" transform="matrix(1 0 0 1 747 578 )" />
  </g>
</svg>