<?xml version="1.0" encoding="utf-8"?>
<svg version="1.1" xmlns:xlink="http://www.w3.org/1999/xlink" width="19px" height="20px" xmlns="http://www.w3.org/2000/svg">
  <g transform="matrix(1 0 0 1 -20 -461 )">
    <path d="M 1 5.99999999999996  L 7 0.00300000000000009  L 7 0  L 17.998 0  C 18.55 0  19 0.454999999999997  19 0.991999999999993  L 19 19.0079999999999  C 18.9994481082886 19.5560281916434  18.5550284695346 20.000000277891  18.007 20  L 1.993 20  C 1.44345071394834 19.9961666196124  0.999975329104422 19.549586983663  0.999975329104422 19.0000243279039  C 0.999975329104422 18.997682863607  0.999983552787003 18.9953414065308  1 18.9929999999999  L 1 5.99999999999996  Z M 7 2.82999999999998  L 3.83 5.99999999999996  L 7 5.99999999999996  L 7 2.82999999999998  Z M 17 1.99999999999999  L 9 1.99999999999999  L 9 6.99999999999995  C 9 7.55228474983074  8.55228474983079 7.99999999999995  8 7.99999999999995  L 3 7.99999999999995  L 3 18  L 17 18  L 17 1.99999999999999  Z " fill-rule="nonzero" fill="#69707f" stroke="none" transform="matrix(1 0 0 1 20 461 )" />
  </g>
</svg>