<?xml version="1.0" encoding="utf-8"?>
<svg version="1.1" xmlns:xlink="http://www.w3.org/1999/xlink" width="18px" height="20px" xmlns="http://www.w3.org/2000/svg">
  <g transform="matrix(1 0 0 1 -21 -349 )">
    <path d="M 17.007 0  C 17.555 0  18 0.443999999999997  18 0.991999999999993  L 18 19.0079999999999  C 17.9956416052001 19.5544403421671  17.553444456131 19.9961921768868  17.007 20  L 0.993 20  C 0.444971530465409 20.000000277891  0.000551891711443098 19.5560281916434  0 19.0079999999999  L 0 0.991999999999993  C 0.00435839479988953 0.445559657832716  0.446555543869035 0.00380782311308978  0.993 0  L 17.007 0  Z M 16 18  L 16 2  L 2 2  L 2 18  L 16 18  Z M 5.818 8.64599999999994  L 8.293 11.1209999999999  L 12.536 6.87899999999996  L 13.95 8.29299999999994  L 8.293 13.9499999999999  L 4.403 10.0599999999999  L 5.818 8.64599999999994  Z " fill-rule="nonzero" fill="#69707f" stroke="none" transform="matrix(1 0 0 1 21 349 )" />
  </g>
</svg>