<?xml version="1.0" encoding="utf-8"?>
<svg version="1.1" xmlns:xlink="http://www.w3.org/1999/xlink" width="19px" height="19px" xmlns="http://www.w3.org/2000/svg">
  <g transform="matrix(1 0 0 1 -68 -251 )">
    <path d="M 2.41269841269841 18.2460317460317  L 0.753968253968254 18.2460317460317  C 0.753968253968254 14.5816662630274  3.72452340588458 11.6111111111111  7.38888888888889 11.6111111111111  C 11.0532543718932 11.6111111111111  14.0238095238095 14.5816662630274  14.0238095238095 18.2460317460317  L 12.3650793650794 18.2460317460317  C 12.3650793650794 15.4977576337785  10.1371630011421 13.2698412698413  7.38888888888889 13.2698412698413  C 4.64061477663565 13.2698412698413  2.41269841269841 15.4977576337785  2.41269841269841 18.2460317460317  Z M 12.3650793650794 5.80555555555556  C 12.3650793650794 8.55490079365079  10.1382341269841 10.781746031746  7.38888888888889 10.781746031746  C 4.63954365079365 10.781746031746  2.41269841269841 8.55490079365079  2.41269841269841 5.80555555555556  C 2.41269841269841 3.05621031746032  4.63954365079365 0.829365079365079  7.38888888888889 0.829365079365079  C 10.1382341269841 0.829365079365079  12.3650793650794 3.05621031746032  12.3650793650794 5.80555555555556  Z M 4.07142857142857 5.80555555555556  C 4.07142857142857 7.63845238095238  5.55599206349206 9.12301587301587  7.38888888888889 9.12301587301587  C 9.22178571428571 9.12301587301587  10.7063492063492 7.63845238095238  10.7063492063492 5.80555555555556  C 10.7063492063492 3.97265873015873  9.22178571428571 2.48809523809524  7.38888888888889 2.48809523809524  C 5.55599206349206 2.48809523809524  4.07142857142857 3.97265873015873  4.07142857142857 5.80555555555556  Z M 14.2593492063492 12.1941547619048  C 16.6401037610342 13.2663818571097  18.1709032552751 15.6349662314684  18.1706349206349 18.2460317460317  L 16.5119047619048 18.2460317460317  C 16.5122930872573 16.2876263709527  15.3641466065148 14.5110344317093  13.5784404761905 13.7069166666667  L 14.2585198412698 12.1941547619048  Z M 13.2284484126984 4.44207936507936  L 13.688746031746 2.83062301587302  C 15.3976949359169 3.53504517717866  16.5125914414164 5.20116695258291  16.5119047619048 7.04960317460317  C 16.5126286030551 9.40857205150936  14.7143159014606 11.3788034473763  12.3650793650794 11.5928650793651  L 12.3650793650794 9.92335317460317  C 13.7946646935061 9.71860376190537  14.8563123210788 8.49407042633664  14.8563123210788 7.04989712189801  C 14.8563123210788 5.94105766444826  14.2246153424357 4.92908695279764  13.2284484126984 4.44207936507936  Z " fill-rule="nonzero" fill="#585de0" stroke="none" transform="matrix(1 0 0 1 68 251 )" />
  </g>
</svg>