<?xml version="1.0" encoding="utf-8"?>
<svg version="1.1" xmlns:xlink="http://www.w3.org/1999/xlink" width="130px" height="86px" xmlns="http://www.w3.org/2000/svg">
  <defs>
    <mask fill="white" id="clip8598">
      <path d="M 8 86  C 3.56 86  0 82.44  0 78  L 0 8  C 0 3.56  3.56 0  8 0  L 122 0  C 126.44 0  130 3.56  130 8  L 130 78  C 130 82.44  126.44 86  122 86  " fill-rule="evenodd" />
    </mask>
  </defs>
  <g>
    <path d="M 0 0  L 130 0  L 130 86  L 0 86  L 0 0  " fill-rule="nonzero" fill="#cccccc" stroke="none" mask="url(#clip8598)" />
    <path d="M 6 6  L 124 6  L 124 80  L 6 80  L 6 6  " fill-rule="nonzero" fill="#ffffff" stroke="none" mask="url(#clip8598)" />
    <path d="M 74.05 25.8  C 70.438 25.8  67.6 22.962  67.6 19.35  C 67.6 15.738  70.438 12.9  74.05 12.9  C 77.662 12.9  80.5 15.738  80.5 19.35  C 80.5 22.962  77.662 25.8  74.05 25.8  " fill-rule="nonzero" fill="#cccccc" stroke="none" mask="url(#clip8598)" />
    <path d="M 8 78  L 8 39.5  L 36.5 22  L 76.4 50.2153846153846  L 99.2 32.5  L 122 50.2153846153846  L 122 78  L 8 78  " fill-rule="nonzero" fill="#169bd5" stroke="none" mask="url(#clip8598)" />
  </g>
</svg>