<?xml version="1.0" encoding="utf-8"?>
<svg version="1.1" xmlns:xlink="http://www.w3.org/1999/xlink" width="20px" height="21px" xmlns="http://www.w3.org/2000/svg">
  <g>
    <path d="M 10.01683875 0.0740142857142985  C 4.51247928571428 0.0740142857142985  0.0337101785714253 4.55280622767859  0.0337101785714253 10.0571657142857  C 0.0337101785714253 15.5622789508929  4.51170267857145 20.0402714508929  10.01683875 20.0402714508929  C 15.5219748214286 20.0402714508929  19.9999673214286 15.5622789508929  19.9999673214286 10.0571657142857  C 19.99996734375 4.55280622767859  15.5219520089286 0.0740142857142985  10.01683875 0.0740142857142985  Z M 14.8343953125 8.41044218750002  L 9.0993579464286 14.2078372544643  C 9.0979189285714 14.2092762723215  9.0950865625 14.2100300446429  9.09353332589285 14.2122000000001  C 9.09147756696427 14.2136390178572  9.09147756696427 14.2164485491072  9.08928477678569 14.2178647321429  C 9.04348725446431 14.2622460714286  8.98688562500001 14.2894733258929  8.93387015625001 14.3196243080358  C 8.90744236607145 14.3345627455357  8.88590267857143 14.3575414508929  8.85794448660715 14.3682541964286  C 8.77203700892858 14.4026994196429  8.68108154017858 14.4205844419643  8.59003470982145 14.4205844419643  C 8.49834830357145 14.4205844419643  8.40599948660713 14.4026994196429  8.31933823660717 14.3668151785715  C 8.29069479910714 14.35468625  8.26773892857142 14.33031421875  8.24051167410715 14.3152387276786  C 8.18751904017859 14.2851791071429  8.13242495535712 14.2586142633929  8.08651323660712 14.2136162053572  C 8.08511988839285 14.2121771875  8.08434328124997 14.2092534598215  8.08290426339283 14.2078144196429  C 8.08151091517857 14.2057129910714  8.07865571428573 14.2057129910714  8.07721669642859 14.2035201785715  L 5.25663758928573 11.3048454910715  C 4.98089312500002 11.0211978125  4.98733446428571 10.5678822991072  5.27095930803569 10.2920921428572  C 5.55456131696428 10.0170329241072  6.00723725446426 10.0220580803572  6.28375834821429 10.3064595535714  L 8.59505986607144 12.6814664508929  L 13.8165482589285 7.40269118303573  C 14.0944855357143 7.12125912946431  14.5486004910715 7.11842676339288  14.8293701339286 7.39700361607143  C 15.1093631696428 7.67558042410715  15.1122183705357 8.12903296875001  14.8343953125 8.41044218750002  Z " fill-rule="nonzero" fill="#585de0" stroke="none" />
  </g>
</svg>