<?xml version="1.0" encoding="utf-8"?>
<svg version="1.1" xmlns:xlink="http://www.w3.org/1999/xlink" width="20px" height="20px" xmlns="http://www.w3.org/2000/svg">
  <g>
    <path d="M 13.8580729166667 19.1319444444444  C 12.6357204861111 19.6489583333333  11.3376519097222 19.9111111111111  10 19.9111111111111  C 8.66234809027777 19.9111111111111  7.36430121527779 19.6489583333333  6.14192708333332 19.1319444444444  C 4.96163194444444 18.6327039930556  3.9017795138889 17.9181857638889  2.99179687499999 17.0082248263889  C 2.08183593750001 16.0982421875  1.36727430555555 15.0383897569445  0.868077256944456 13.8580946180555  C 0.351063368055549 12.6357421875  0.0889105902777875 11.3376736111111  0.0889105902777875 10.0000217013889  C 0.0889105902777875 8.66236979166667  0.351063368055549 7.36432291666665  0.868077256944456 6.14194878472221  C 1.36731770833333 4.96165364583332  2.08183593750001 3.90180121527776  2.99179687499999 2.99181857638889  C 3.9017795138889 2.08185763888888  4.96163194444444 1.36729600694444  6.14192708333332 0.868098958333354  C 7.36427951388889 0.351085069444446  8.66234809027777 0.0889322916666463  10 0.0889322916666463  C 11.3376519097222 0.0889322916666463  12.6356987847222 0.351085069444446  13.8580729166667 0.868098958333354  C 15.0383680555556 1.36733940972223  16.0982204861111 2.08185763888888  17.008203125 2.99181857638889  C 17.9181857638889 3.90180121527776  18.6327256944445 4.96165364583332  19.1319227430555 6.14194878472221  C 19.6489366319445 7.36430121527779  19.9110894097222 8.66236979166667  19.9110894097222 10.0000217013889  C 19.9110894097222 11.3376736111111  19.6489366319445 12.6357204861111  19.1319227430555 13.8580946180555  C 18.6326822916667 15.0383897569445  17.9181640625 16.0982421875  17.008203125 17.0082248263889  C 16.0982421875 17.9182074652778  15.0383680555556 18.6327473958333  13.8580729166667 19.1319444444444  Z M 18.4296223958333 10  C 18.4296223958333 5.35188802083332  14.6481119791667 1.57037760416666  10 1.57037760416666  C 5.35186631944446 1.57037760416666  1.57037760416666 5.35188802083332  1.57037760416666 10  C 1.57037760416666 14.6481119791667  5.35188802083332 18.4296223958333  10 18.4296223958333  C 14.6481119791667 18.4296223958333  18.4296223958333 14.6481119791667  18.4296223958333 10  Z " fill-rule="nonzero" fill="#666666" stroke="none" />
  </g>
</svg>