<?xml version="1.0" encoding="utf-8"?>
<svg version="1.1" xmlns:xlink="http://www.w3.org/1999/xlink" width="13px" height="12px" xmlns="http://www.w3.org/2000/svg">
  <g transform="matrix(1 0 0 1 -569 -331 )">
    <path d="M 0 0.666666666666667  C 0 0.298476833446138  0.291014912609984 0  0.65 0  L 12.35 0  C 12.70898508739 0  13 0.298476833446138  13 0.666666666666667  L 13 11.3333333333333  C 13 11.7015231665539  12.70898508739 12  12.35 12  L 0.65 12  C 0.291014912609984 12  0 11.7015231665539  0 11.3333333333333  L 0 0.666666666666667  Z M 11.7 10.6666666666667  L 11.7 2.82533333333333  L 6.5468 7.55866666666667  L 1.3 2.81066666666667  L 1.3 10.6666666666667  L 11.7 10.6666666666667  Z M 11.3763 1.33333333333333  L 1.63215 1.33333333333333  L 6.53965 5.77466666666667  L 11.3763 1.33333333333333  Z " fill-rule="nonzero" fill="#797979" stroke="none" transform="matrix(1 0 0 1 569 331 )" />
  </g>
</svg>