<?xml version="1.0" encoding="utf-8"?>
<svg version="1.1" xmlns:xlink="http://www.w3.org/1999/xlink" width="11px" height="20px" xmlns="http://www.w3.org/2000/svg">
  <g transform="matrix(1 0 0 1 -662 -616 )">
    <path d="M 7 20  L 7 11.5  L 9.5 11.5  L 10.5 7.5  L 7 7.5  L 7 5.5  C 7 4.47  7 3.5  9 3.5  L 10.5 3.5  L 10.5 0.14  C 10.174 0.097  8.943 0  7.643 0  C 4.928 0  3 1.657  3 4.7  L 3 7.5  L 0 7.5  L 0 11.5  L 3 11.5  L 3 20  L 7 20  Z " fill-rule="nonzero" fill="#3b5998" stroke="none" transform="matrix(1 0 0 1 662 616 )" />
  </g>
</svg>