<?xml version="1.0" encoding="utf-8"?>
<svg version="1.1" xmlns:xlink="http://www.w3.org/1999/xlink" width="20px" height="20px" xmlns="http://www.w3.org/2000/svg">
  <g transform="matrix(1 0 0 1 -1165 -529 )">
    <path d="M 9 15  L 9 13  L 11 13  L 11 15  L 9 15  Z M 9 11  L 9 5  L 11 5  L 11 11  L 9 11  Z M 20 10  C 20 4.47500000000002  15.52 0  9.995 0  C 4.47000000000003 0  0 4.47500000000002  0 10  C 0 15.525  4.47000000000003 20  9.995 20  C 15.52 20  20 15.525  20 10  Z M 18 10  C 18 14.42  14.42 18  10 18  C 5.57999999999998 18  2 14.42  2 10  C 2 5.58000000000004  5.57999999999998 2  10 2  C 14.42 2  18 5.58000000000004  18 10  Z " fill-rule="nonzero" fill="#ffffff" stroke="none" transform="matrix(1 0 0 1 1165 529 )" />
  </g>
</svg>