<?xml version="1.0" encoding="utf-8"?>
<svg version="1.1" xmlns:xlink="http://www.w3.org/1999/xlink" width="20px" height="22px" xmlns="http://www.w3.org/2000/svg">
  <g transform="matrix(1 0 0 1 -837 -117 )">
    <path d="M 12.12 16.022  L 12.12 16.023  L 7.921 13.733  C 7.16465034374778 14.5415830036847  6.10698484105475 15.0005  4.99979412741929 15.0005  C 2.79065512809612 15.0005  0.999794127419294 13.2096389993232  0.999794127419294 11.0005  C 0.999794127419294 8.79136100067683  2.79065512809612 7.0005  4.99979412741929 7.0005  C 6.10698484105475 7.0005  7.16465034374778 7.45941699631532  7.921 8.268  L 12.121 5.978  C 12.0400956431022 5.65772696542083  11.9991761163593 5.32866535056143  11.9991761163593 4.99833168342532  C 11.9991761163593 2.78919268410214  13.7900371170361 0.998331683425317  15.9991761163593 0.998331683425317  C 18.2083151156825 0.998331683425317  19.9991761163593 2.78919268410214  19.9991761163593 4.99833168342532  C 19.9991761163593 7.20747068274849  18.2083151156825 8.99833168342532  15.9991761163593 8.99833168342532  C 14.893018064566 8.99833168342532  13.8362438443408 8.54026754142839  13.08 7.733  L 8.88 10.023  C 9.04120195690054 10.6643591505383  9.04120195690054 11.3356408494617  8.88 11.977  L 13.079 14.267  C 13.8352438443408 13.4597324585716  14.892018064566 13.0016683165747  15.9981761163593 13.0016683165747  C 18.2073151156825 13.0016683165747  19.9981761163593 14.7925293172515  19.9981761163593 17.0016683165747  C 19.9981761163593 19.2108073158979  18.2073151156825 21.0016683165747  15.9981761163593 21.0016683165747  C 13.7890371170361 21.0016683165747  11.9981761163593 19.2108073158979  11.9981761163593 17.0016683165747  C 11.9981761163593 16.6713346494386  12.0390956431022 16.3422730345792  12.12 16.022  Z M 5 13  C 6.10456949966159 13  7 12.1045694996616  7 11  C 7 9.89543050033841  6.10456949966159 9  5 9  C 3.89543050033841 9  3 9.89543050033841  3 11  C 3 12.1045694996616  3.89543050033841 13  5 13  Z M 16 7  C 17.1045694996616 7  18 6.10456949966159  18 5  C 18 3.89543050033841  17.1045694996616 3  16 3  C 14.8954305003384 3  14 3.89543050033841  14 5  C 14 6.10456949966159  14.8954305003384 7  16 7  Z M 16 19  C 17.1045694996616 19  18 18.1045694996616  18 17  C 18 15.8954305003384  17.1045694996616 15  16 15  C 14.8954305003384 15  14 15.8954305003384  14 17  C 14 18.1045694996616  14.8954305003384 19  16 19  Z " fill-rule="nonzero" fill="#939191" stroke="none" transform="matrix(1 0 0 1 837 117 )" />
  </g>
</svg>