<?xml version="1.0" encoding="utf-8"?>
<svg version="1.1" xmlns:xlink="http://www.w3.org/1999/xlink" width="20px" height="20px" xmlns="http://www.w3.org/2000/svg">
  <g transform="matrix(1 0 0 1 -1054 -529 )">
    <path d="M 16.365 13.536  L 16.364 13.536  L 14.95 12.12  L 16.364 10.706  C 17.3111696152109 9.76709054294094  17.8439838625672 8.48868822926562  17.8439838625672 7.15501613743279  C 17.8439838625672 4.39359238827883  15.6054076117212 2.15501613743279  12.8439838625672 2.15501613743279  C 11.5103117707344 2.15501613743279  10.2319094570591 2.68783038478908  9.293 3.635  L 7.879 5.05  L 6.464 3.636  L 7.88 2.222  C 9.19282162470574 0.909178375294258  10.9733898533645 0.171642866253181  12.83 0.171642866253181  C 16.6961904883376 0.171642866253181  19.8303571337468 3.30580951166243  19.8303571337468 7.172  C 19.8303571337468 9.02861014663554  19.0928216247057 10.8091783752943  17.78 12.122  L 16.365 13.536  Z M 13.536 16.365  L 13.536 16.364  L 12.121 17.778  C 10.8081783752943 19.0908216247057  9.02761014663555 19.8283571337468  7.171 19.8283571337468  C 3.30480951166243 19.8283571337468  0.170642866253182 16.6941904883376  0.170642866253182 12.828  C 0.170642866253182 10.9713898533645  0.90817837529426 9.19082162470574  2.221 7.878  L 3.636 6.464  L 5.05 7.88  L 3.636 9.294  C 2.68883038478916 10.2329094570591  2.15601613743293 11.5113117707343  2.15601613743293 12.8449838625671  C 2.15601613743293 15.606407611721  4.39459238827896 17.8449838625671  7.15601613743293 17.8449838625671  C 8.48968822926569 17.8449838625671  9.76809054294095 17.3121696152108  10.707 16.365  L 12.121 14.951  L 13.536 16.365  Z M 12.828 5.758  L 12.828 5.757  L 14.243 7.172  L 7.172 14.242  L 5.757 12.828  L 12.828 5.758  Z " fill-rule="nonzero" fill="#ffffff" stroke="none" transform="matrix(1 0 0 1 1054 529 )" />
  </g>
</svg>