<?xml version="1.0" encoding="utf-8"?>
<svg version="1.1" xmlns:xlink="http://www.w3.org/1999/xlink" width="15px" height="13px" xmlns="http://www.w3.org/2000/svg">
  <g transform="matrix(1 0 0 1 -765 -807 )">
    <path d="M 7.14285764145657 12.6388888888889  L 7.14285764145657 8.66666666666667  L 5.71428630353958 8.66666666666667  C 3.32622177475403 8.66574482145921  1.13449288313982 10.0035149492293  0.0228580932783094 12.1405555555556  C 0.007527084506387 11.9459417473019  -9.80590119855803E-05 11.7507857179943  0 11.5555555555556  C 0 7.56672222222222  3.19785789179881 4.33333333333333  7.14285764145657 4.33333333333333  L 7.14285764145657 0.361111111111111  L 14.6428571655208 6.5  L 7.14285764145657 12.6388888888889  Z M 2.81642934457498 7.7805  C 3.73879941422885 7.41088023578547  4.72211767336095 7.22144206118602  5.71428630353958 7.22222222222222  L 8.57142897937356 7.22222222222222  L 8.57142897937356 9.61133333333333  L 12.3721430239017 6.5  L 8.57142897937356 3.38866666666667  L 8.57142897937356 5.77777777777778  L 7.14285764145657 5.77777777777778  C 5.48096205123062 5.77588992053698  3.90097096585677 6.50727457329361  2.81642934457498 7.7805  Z " fill-rule="nonzero" fill="#939191" stroke="none" transform="matrix(1 0 0 1 765 807 )" />
  </g>
</svg>