<?xml version="1.0" encoding="utf-8"?>
<svg version="1.1" xmlns:xlink="http://www.w3.org/1999/xlink" width="114px" height="126px" xmlns="http://www.w3.org/2000/svg">
  <g transform="matrix(1 0 0 1 -652 -373 )">
    <path d="M 1 38  L 38.25 0.518750000000001  L 38.25 1  L 106.9875 1  C 110.4375 0.5  113.25 3.34375  113 6.7  L 113 119.3  C 113.246550676803 122.725176197772  110.468927934591 125.50000173682  107.04375 125  L 6.95625 125  C 3.52156696217714 125.476041372579  0.749845806902641 122.684918647895  0.749845806902641 119.2501520494  C 0.749845806902641 119.235517897544  0.749897204918771 119.220883790818  1 119.20625  L 1 38  Z M 39 18.1875  L 18.4375 38  L 39 38  L 39 18.1875  Z M 100 13  L 51 13  L 51 44.25  C 50.75 47.7017796864425  47.9517796864425 50.5  44.5 51  L 14 51  L 14 113  L 100 113  L 100 13  Z " fill-rule="nonzero" fill="#cccccc" stroke="none" fill-opacity="0.4" transform="matrix(1 0 0 1 652 373 )" />
  </g>
</svg>