<?xml version="1.0" encoding="utf-8"?>
<svg version="1.1" xmlns:xlink="http://www.w3.org/1999/xlink" width="20px" height="20px" xmlns="http://www.w3.org/2000/svg">
  <g transform="matrix(1 0 0 1 -538 -518 )">
    <path d="M 20 2.18181818181818  C 20 0.978545454545454  19.0214545454545 0  17.8181818181818 0  C 16.6149090909091 0  15.6363636363636 0.978545454545454  15.6363636363636 2.18181818181818  C 15.6363636363636 2.55818181818182  15.732 2.91236363636364  15.9003636363636 3.22181818181818  L 12.3261818181818 6.796  C 11.8334545454545 6.41236363636364  11.2167272727273 6.18181818181818  10.5454545454545 6.18181818181818  C 9.87418181818182 6.18181818181818  9.25745454545454 6.41236363636364  8.76436363636364 6.79563636363636  L 5.97563636363636 4.00690909090909  C 6.10363636363636 3.79054545454545  6.18181818181818 3.54181818181818  6.18181818181818 3.27272727272727  C 6.18181818181818 2.47054545454545  5.52945454545455 1.81818181818182  4.72727272727273 1.81818181818182  C 3.92509090909091 1.81818181818182  3.27272727272727 2.47054545454545  3.27272727272727 3.27272727272727  C 3.27272727272727 4.07490909090909  3.92509090909091 4.72727272727273  4.72727272727273 4.72727272727273  C 4.99636363636364 4.72727272727273  5.24509090909091 4.64909090909091  5.46145454545455 4.52109090909091  L 8.25018181818182 7.30981818181818  C 7.86690909090909 7.80290909090909  7.63636363636364 8.41963636363636  7.63636363636364 9.09090909090909  C 7.63636363636364 9.76218181818182  7.86690909090909 10.3789090909091  8.25018181818182 10.8716363636364  L 3.64509090909091 15.4770909090909  C 3.25745454545455 15.1254545454545  2.74509090909091 14.9090909090909  2.18181818181818 14.9090909090909  C 0.978545454545454 14.9090909090909  0 15.8876363636364  0 17.0909090909091  C 0 18.2941818181818  0.978545454545454 19.2727272727273  2.18181818181818 19.2727272727273  C 3.38509090909091 19.2727272727273  4.36363636363636 18.2941818181818  4.36363636363636 17.0909090909091  C 4.36363636363636 16.7145454545455  4.268 16.3603636363636  4.09963636363636 16.0509090909091  L 8.76472727272727 11.3858181818182  C 9.16690909090909 11.6985454545455  9.652 11.908  10.1821818181818 11.9745454545455  L 10.1821818181818 15.6690909090909  C 9.152 15.8429090909091  8.364 16.7389090909091  8.364 17.8181818181818  C 8.364 19.0214545454545  9.34254545454545 20  10.5458181818182 20  C 11.7490909090909 20  12.7276363636364 19.0214545454545  12.7276363636364 17.8181818181818  C 12.7276363636364 16.7392727272727  11.9396363636364 15.8432727272727  10.9094545454545 15.6690909090909  L 10.9094545454545 11.9745454545455  C 11.4396363636364 11.908  11.9247272727273 11.6985454545455  12.3269090909091 11.3858181818182  L 15.1156363636364 14.1745454545455  C 14.9872727272727 14.3912727272727  14.9090909090909 14.64  14.9090909090909 14.9090909090909  C 14.9090909090909 15.7112727272727  15.5614545454545 16.3636363636364  16.3636363636364 16.3636363636364  C 17.1658181818182 16.3636363636364  17.8181818181818 15.7112727272727  17.8181818181818 14.9090909090909  C 17.8181818181818 14.1069090909091  17.1658181818182 13.4545454545455  16.3636363636364 13.4545454545455  C 16.0945454545455 13.4545454545455  15.8458181818182 13.5327272727273  15.6294545454545 13.6607272727273  L 12.8407272727273 10.872  C 13.224 10.3789090909091  13.4545454545455 9.76218181818182  13.4545454545455 9.09090909090909  C 13.4545454545455 8.41963636363636  13.224 7.80290909090909  12.8407272727273 7.31018181818182  L 16.3552727272727 3.79563636363636  C 16.7425454545455 4.14727272727273  17.2549090909091 4.36363636363636  17.8181818181818 4.36363636363636  C 19.0214545454545 4.36363636363636  20 3.38509090909091  20 2.18181818181818  Z M 4.72727272727273 4  C 4.32618181818182 4  4 3.67381818181818  4 3.27272727272727  C 4 2.87163636363636  4.32618181818182 2.54545454545454  4.72727272727273 2.54545454545454  C 5.12836363636364 2.54545454545454  5.45454545454546 2.87163636363636  5.45454545454546 3.27272727272727  C 5.45454545454546 3.67381818181818  5.12836363636364 4  4.72727272727273 4  Z M 3.63636363636364 17.0909090909091  C 3.63636363636364 17.8930909090909  2.984 18.5454545454545  2.18181818181818 18.5454545454545  C 1.37963636363636 18.5454545454545  0.727272727272727 17.8930909090909  0.727272727272727 17.0909090909091  C 0.727272727272727 16.2887272727273  1.37963636363636 15.6363636363636  2.18181818181818 15.6363636363636  C 2.984 15.6363636363636  3.63636363636364 16.2887272727273  3.63636363636364 17.0909090909091  Z M 10.5454545454545 16.3636363636364  C 11.3476363636364 16.3636363636364  12 17.016  12 17.8181818181818  C 12 18.6203636363636  11.3476363636364 19.2727272727273  10.5454545454545 19.2727272727273  C 9.74327272727273 19.2727272727273  9.09090909090909 18.6203636363636  9.09090909090909 17.8181818181818  C 9.09090909090909 17.016  9.74327272727273 16.3636363636364  10.5454545454545 16.3636363636364  Z M 12.7272727272727 9.09090909090909  C 12.7272727272727 10.2941818181818  11.7487272727273 11.2727272727273  10.5454545454545 11.2727272727273  C 9.34218181818182 11.2727272727273  8.36363636363636 10.2941818181818  8.36363636363636 9.09090909090909  C 8.36363636363636 7.88763636363636  9.34218181818182 6.90909090909091  10.5454545454545 6.90909090909091  C 11.7487272727273 6.90909090909091  12.7272727272727 7.88763636363636  12.7272727272727 9.09090909090909  Z M 16.3636363636364 14.1818181818182  C 16.7647272727273 14.1818181818182  17.0909090909091 14.508  17.0909090909091 14.9090909090909  C 17.0909090909091 15.3101818181818  16.7647272727273 15.6363636363636  16.3636363636364 15.6363636363636  C 15.9625454545455 15.6363636363636  15.6363636363636 15.3101818181818  15.6363636363636 14.9090909090909  C 15.6363636363636 14.508  15.9625454545455 14.1818181818182  16.3636363636364 14.1818181818182  Z M 19.2727272727273 2.18181818181818  C 19.2727272727273 2.984  18.6203636363636 3.63636363636364  17.8181818181818 3.63636363636364  C 17.016 3.63636363636364  16.3636363636364 2.984  16.3636363636364 2.18181818181818  C 16.3636363636364 1.37963636363636  17.016 0.727272727272727  17.8181818181818 0.727272727272727  C 18.6203636363636 0.727272727272727  19.2727272727273 1.37963636363636  19.2727272727273 2.18181818181818  Z " fill-rule="nonzero" fill="#69707f" stroke="none" transform="matrix(1 0 0 1 538 518 )" />
  </g>
</svg>