<?xml version="1.0" encoding="utf-8"?>
<svg version="1.1" xmlns:xlink="http://www.w3.org/1999/xlink" width="48px" height="48px" xmlns="http://www.w3.org/2000/svg">
  <g transform="matrix(1 0 0 1 0 -32 )">
    <path d="M 24 33  C 36.88 33  47 43.12  47 56  C 47 68.88  36.88 79  24 79  C 11.12 79  1 68.88  1 56  C 1 43.12  11.12 33  24 33  Z " fill-rule="nonzero" fill="#fb7299" stroke="none" fill-opacity="0" />
    <path d="M 24 33  C 36.88 33  47 43.12  47 56  C 47 68.88  36.88 79  24 79  C 11.12 79  1 68.88  1 56  C 1 43.12  11.12 33  24 33  Z " stroke-width="2" stroke="#7d5ae1" fill="none" />
  </g>
</svg>