<?xml version="1.0" encoding="utf-8"?>
<svg version="1.1" xmlns:xlink="http://www.w3.org/1999/xlink" width="48px" height="48px" xmlns="http://www.w3.org/2000/svg">
  <g transform="matrix(1 0 0 1 -72 -32 )">
    <path d="M 96 33  C 108.88 33  119 43.12  119 56  C 119 68.88  108.88 79  96 79  C 83.12 79  73 68.88  73 56  C 73 43.12  83.12 33  96 33  Z " fill-rule="nonzero" fill="#ffffff" stroke="none" />
    <path d="M 96 33  C 108.88 33  119 43.12  119 56  C 119 68.88  108.88 79  96 79  C 83.12 79  73 68.88  73 56  C 73 43.12  83.12 33  96 33  Z " stroke-width="2" stroke="#7d5ae1" fill="none" />
  </g>
</svg>