<?xml version="1.0" encoding="utf-8"?>
<svg version="1.1" xmlns:xlink="http://www.w3.org/1999/xlink" width="28px" height="25px" xmlns="http://www.w3.org/2000/svg">
  <g transform="matrix(1 0 0 1 -155 -44 )">
    <path d="M 11.9729166666667 15.0624645088018  C 12.7020833333333 14.3526405451448  13.0666666666667 13.4961196289987  13.0666666666667 12.4929017603634  C 13.0666666666667 11.4896838917282  12.7020833333333 10.6331629755821  11.9729166666667 9.92333901192504  C 11.24375 9.21351504826803  10.3638888888889 8.85860306643952  9.33333333333333 8.85860306643952  C 8.30277777777778 8.85860306643952  7.42291666666667 9.21351504826803  6.69375 9.92333901192504  C 5.96458333333333 10.6331629755821  5.6 11.4896838917282  5.6 12.4929017603634  C 5.6 13.4961196289987  5.96458333333333 14.3526405451448  6.69375 15.0624645088018  C 7.42291666666667 15.7722884724588  8.30277777777778 16.1272004542873  9.33333333333333 16.1272004542873  C 10.3638888888889 16.1272004542873  11.24375 15.7722884724588  11.9729166666667 15.0624645088018  Z M 23.7197916666667 21.0462805224304  C 24.084375 20.6913685406019  24.2666666666667 20.2631080825289  24.2666666666667 19.7614991482112  C 24.2666666666667 19.269354533409  24.0819444444444 18.8434601552148  23.7125 18.4838160136286  C 23.3430555555556 18.1241718720424  22.9055555555556 17.9443498012493  22.4 17.9443498012493  C 21.8944444444444 17.9443498012493  21.4569444444444 18.1241718720424  21.0875 18.4838160136286  C 20.7180555555556 18.8434601552148  20.5333333333333 19.269354533409  20.5333333333333 19.7614991482112  C 20.5333333333333 20.2631080825289  20.715625 20.6913685406019  21.0802083333333 21.0462805224304  C 21.4447916666667 21.4011925042589  21.8847222222222 21.5786484951732  22.4 21.5786484951732  C 22.9152777777778 21.5786484951732  23.3552083333333 21.4011925042589  23.7197916666667 21.0462805224304  Z M 23.7197916666667 6.50908574673481  C 24.084375 6.1541737649063  24.2666666666667 5.72591330683324  24.2666666666667 5.22430437251562  C 24.2666666666667 4.73215975771342  24.0819444444444 4.30626537951921  23.7125 3.94662123793299  C 23.3430555555556 3.58697709634677  22.9055555555556 3.40715502555366  22.4 3.40715502555366  C 21.8944444444444 3.40715502555366  21.4569444444444 3.58697709634677  21.0875 3.94662123793299  C 20.7180555555556 4.30626537951921  20.5333333333333 4.73215975771342  20.5333333333333 5.22430437251562  C 20.5333333333333 5.72591330683324  20.715625 6.1541737649063  21.0802083333333 6.50908574673481  C 21.4447916666667 6.86399772856332  21.8847222222222 7.04145371947757  22.4 7.04145371947757  C 22.9152777777778 7.04145371947757  23.3552083333333 6.86399772856332  23.7197916666667 6.50908574673481  Z M 18.5645833333333 10.9241908006814  C 18.6326388888889 11.0046375165626  18.6666666666667 11.096914631838  18.6666666666667 11.2010221465077  L 18.6666666666667 13.8273708120386  C 18.6666666666667 13.9220140071929  18.6326388888889 14.0142911224683  18.5645833333333 14.1042021578648  C 18.4965277777778 14.1941131932614  18.41875 14.2438008707174  18.33125 14.2532651902328  L 16.0708333333333 14.5939806927882  C 15.9638888888889 14.9252318758281  15.8083333333333 15.2848760174143  15.6041666666667 15.6729131175468  C 15.9347222222222 16.1272004542873  16.3722222222222 16.6713988264244  16.9166666666667 17.305508233958  C 16.9847222222222 17.4096157486277  17.01875 17.5042589437819  17.01875 17.5894378194208  C 17.01875 17.7030096536059  16.9847222222222 17.7929206890025  16.9166666666667 17.8591709256104  C 16.6930555555556 18.1431005110733  16.2920138888889 18.5666288093886  15.7135416666667 19.1297558205565  C 15.1350694444444 19.6928828317244  14.7534722222222 19.9744463373084  14.56875 19.9744463373084  C 14.4618055555556 19.9744463373084  14.3597222222222 19.9413212190044  14.2625 19.8750709823964  L 12.5854166666667 18.5973878478137  C 12.2256944444444 18.7772099186069  11.8513888888889 18.923906871096  11.4625 19.0374787052811  C 11.3555555555556 20.0596252129472  11.24375 20.7931099753928  11.1270833333333 21.2379329926178  C 11.0590277777778 21.4650766609881  10.9131944444444 21.5786484951732  10.6895833333333 21.5786484951732  L 7.97708333333333 21.5786484951732  C 7.87013888888889 21.5786484951732  7.77291666666667 21.5431572969903  7.68541666666667 21.4721749006246  C 7.59791666666667 21.4011925042589  7.54930555555556 21.318379708499  7.53958333333333 21.2237365133447  L 7.20416666666667 19.0516751845542  C 6.87361111111111 18.9570319894  6.50902777777778 18.8103350369108  6.11041666666667 18.6115843270869  L 4.38958333333333 19.8750709823964  C 4.32152777777778 19.9413212190044  4.22430555555556 19.9744463373084  4.09791666666667 19.9744463373084  C 3.99097222222222 19.9744463373084  3.88888888888889 19.9365890592466  3.79166666666667 19.8608745031232  C 2.39166666666667 18.6021200075715  1.69166666666667 17.8449744463373  1.69166666666667 17.5894378194208  C 1.69166666666667 17.5042589437819  1.72569444444444 17.4143479083854  1.79375 17.3197047132311  C 1.89097222222222 17.1872042400151  2.09027777777778 16.9363997728563  2.39166666666667 16.5672913117547  C 2.69305555555556 16.198182850653  2.92152777777778 15.9095211054325  3.07708333333333 15.7013060760931  C 2.85347222222222 15.2848760174143  2.68333333333333 14.8968389172818  2.56666666666667 14.5371947756956  L 0.35 14.1964792731403  C 0.252777777777778 14.1870149536248  0.170138888888889 14.1420594359266  0.102083333333333 14.0616127200454  C 0.0340277777777778 13.9811660041643  0 13.8888888888889  0 13.7847813742192  L 0 11.1584327086882  C 0 11.063789513534  0.0340277777777778 10.9715123982586  0.102083333333333 10.881601362862  C 0.170138888888889 10.7916903274655  0.247916666666667 10.7420026500095  0.335416666666667 10.732538330494  L 2.59583333333333 10.3918228279387  C 2.70277777777778 10.0605716448987  2.85833333333333 9.70092750331251  3.0625 9.31289040318001  C 2.73194444444444 8.85860306643952  2.29444444444444 8.31440469430248  1.75 7.68029528676888  C 1.68194444444444 7.57618777209918  1.64791666666667 7.48154457694492  1.64791666666667 7.39636570130608  C 1.64791666666667 7.28279386712095  1.68194444444444 7.18815067196668  1.75 7.11243611584327  C 1.96388888888889 6.82850653038047  2.3625 6.40734431194397  2.94583333333333 5.84894946053379  C 3.52916666666667 5.2905546091236  3.91319444444445 5.01135718341851  4.09791666666667 5.01135718341851  C 4.20486111111111 5.01135718341851  4.30694444444444 5.04448230172251  4.40416666666667 5.1107325383305  L 6.08125 6.38841567291312  C 6.41180555555556 6.21805792163543  6.78611111111111 6.0666288093886  7.20416666666667 5.93412833617263  C 7.31111111111111 4.91198182850653  7.42291666666667 4.18322922581866  7.53958333333333 3.74787052810903  C 7.60763888888889 3.52072685973878  7.75347222222222 3.40715502555366  7.97708333333333 3.40715502555366  L 10.6895833333333 3.40715502555366  C 10.7965277777778 3.40715502555366  10.89375 3.44264622373651  10.98125 3.51362862010222  C 11.06875 3.58461101646791  11.1173611111111 3.6674238122279  11.1270833333333 3.76206700738217  L 11.4625 5.93412833617263  C 11.7930555555556 6.0287715313269  12.1576388888889 6.17546848381601  12.55625 6.37421919363998  L 14.2770833333333 5.1107325383305  C 14.3548611111111 5.04448230172251  14.4520833333333 5.01135718341851  14.56875 5.01135718341851  C 14.6756944444444 5.01135718341851  14.7777777777778 5.04921446148022  14.875 5.12492901760364  C 16.275 6.3836835131554  16.975 7.14082907438955  16.975 7.39636570130608  C 16.975 7.47208025742949  16.9409722222222 7.56199129282604  16.8729166666667 7.66609880749574  C 16.75625 7.81752791974257  16.5520833333333 8.07306454665909  16.2604166666667 8.43270868824532  C 15.96875 8.79235282983153  15.75 9.07628241529434  15.6041666666667 9.28449744463373  C 15.8277777777778 9.73878478137422  15.9930555555556 10.1268218815067  16.1 10.4486087450312  L 18.3166666666667 10.7751277683135  C 18.4138888888889 10.7940564073443  18.4965277777778 10.8437440848003  18.5645833333333 10.9241908006814  Z M 25.8270833333333 18.3276547416241  C 27.2756944444444 18.4696195343555  28 18.6163164868446  28 18.7677455990914  L 28 20.7552526973311  C 28 20.9066818095779  27.2756944444444 21.053378762067  25.8270833333333 21.1953435547984  C 25.7104166666667 21.4508801817149  25.5645833333333 21.696952489116  25.3895833333333 21.9335604770017  C 25.8854166666667 23.0030285822449  26.1333333333333 23.6560666288094  26.1333333333333 23.8926746166951  C 26.1333333333333 23.9305318947568  26.1138888888889 23.9636570130608  26.075 23.992049971607  C 24.8888888888889 24.6640166572023  24.2861111111111 25  24.2666666666667 25  C 24.1888888888889 25  23.9652777777778 24.7775884913875  23.5958333333333 24.3327654741624  C 23.2263888888889 23.8879424569373  22.9736111111111 23.5661555934128  22.8375 23.3674048835889  C 22.6430555555556 23.3863335226197  22.4972222222222 23.3957978421352  22.4 23.3957978421352  C 22.3027777777778 23.3957978421352  22.1569444444444 23.3863335226197  21.9625 23.3674048835889  C 21.8263888888889 23.5661555934128  21.5736111111111 23.8879424569373  21.2041666666667 24.3327654741624  C 20.8347222222222 24.7775884913875  20.6111111111111 25  20.5333333333333 25  C 20.5138888888889 25  19.9111111111111 24.6640166572023  18.725 23.992049971607  C 18.6861111111111 23.9636570130608  18.6666666666667 23.9305318947568  18.6666666666667 23.8926746166951  C 18.6666666666667 23.6560666288094  18.9145833333333 23.0030285822449  19.4104166666667 21.9335604770017  C 19.2354166666667 21.696952489116  19.0895833333333 21.4508801817149  18.9729166666667 21.1953435547984  C 17.5243055555556 21.053378762067  16.8 20.9066818095779  16.8 20.7552526973311  L 16.8 18.7677455990914  C 16.8 18.6163164868446  17.5243055555556 18.4696195343555  18.9729166666667 18.3276547416241  C 19.0993055555556 18.0531894756767  19.2451388888889 17.8071171682756  19.4104166666667 17.5894378194208  C 18.9145833333333 16.5199697141775  18.6666666666667 15.8669316676131  18.6666666666667 15.6303236797274  C 18.6666666666667 15.5924664016657  18.6861111111111 15.5593412833617  18.725 15.5309483248154  C 18.7638888888889 15.5120196857846  18.9340277777778 15.4173764906303  19.2354166666667 15.2470187393526  C 19.5368055555556 15.076660988075  19.8236111111111 14.9157675563127  20.0958333333333 14.7643384440659  C 20.3680555555556 14.612909331819  20.5138888888889 14.5371947756956  20.5333333333333 14.5371947756956  C 20.6111111111111 14.5371947756956  20.8347222222222 14.7572402044293  21.2041666666667 15.1973310618966  C 21.5736111111111 15.637421919364  21.8263888888889 15.9568427030097  21.9625 16.1555934128336  C 22.1569444444444 16.1366647738028  22.3027777777778 16.1272004542873  22.4 16.1272004542873  C 22.4972222222222 16.1272004542873  22.6430555555556 16.1366647738028  22.8375 16.1555934128336  C 23.3333333333333 15.4836267272383  23.7805555555556 14.9536248343744  24.1791666666667 14.5655877342419  L 24.2666666666667 14.5371947756956  C 24.3055555555556 14.5371947756956  24.9083333333333 14.8684459587356  26.075 15.5309483248154  C 26.1138888888889 15.5593412833617  26.1333333333333 15.5924664016657  26.1333333333333 15.6303236797274  C 26.1333333333333 15.8669316676131  25.8854166666667 16.5199697141775  25.3895833333333 17.5894378194208  C 25.5548611111111 17.8071171682756  25.7006944444444 18.0531894756767  25.8270833333333 18.3276547416241  Z M 25.8270833333333 3.79045996592845  C 27.2756944444444 3.93242475865985  28 4.07912171114897  28 4.2305508233958  L 28 6.21805792163543  C 28 6.36948703388226  27.2756944444444 6.51618398637138  25.8270833333333 6.65814877910278  C 25.7104166666667 6.91368540601931  25.5645833333333 7.1597577134204  25.3895833333333 7.39636570130608  C 25.8854166666667 8.46583380654931  26.1333333333333 9.11887185311376  26.1333333333333 9.35547984099943  C 26.1333333333333 9.39333711906114  26.1138888888889 9.42646223736513  26.075 9.45485519591141  C 24.8888888888889 10.1268218815067  24.2861111111111 10.4628052243044  24.2666666666667 10.4628052243044  C 24.1888888888889 10.4628052243044  23.9652777777778 10.2403937156918  23.5958333333333 9.79557069846678  C 23.2263888888889 9.35074768124172  22.9736111111111 9.02896081771721  22.8375 8.83021010789324  C 22.6430555555556 8.8491387469241  22.4972222222222 8.85860306643952  22.4 8.85860306643952  C 22.3027777777778 8.85860306643952  22.1569444444444 8.8491387469241  21.9625 8.83021010789324  C 21.8263888888889 9.02896081771721  21.5736111111111 9.35074768124172  21.2041666666667 9.79557069846678  C 20.8347222222222 10.2403937156918  20.6111111111111 10.4628052243044  20.5333333333333 10.4628052243044  C 20.5138888888889 10.4628052243044  19.9111111111111 10.1268218815067  18.725 9.45485519591141  C 18.6861111111111 9.42646223736513  18.6666666666667 9.39333711906114  18.6666666666667 9.35547984099943  C 18.6666666666667 9.11887185311376  18.9145833333333 8.46583380654931  19.4104166666667 7.39636570130608  C 19.2354166666667 7.1597577134204  19.0895833333333 6.91368540601931  18.9729166666667 6.65814877910278  C 17.5243055555556 6.51618398637138  16.8 6.36948703388226  16.8 6.21805792163543  L 16.8 4.2305508233958  C 16.8 4.07912171114897  17.5243055555556 3.93242475865985  18.9729166666667 3.79045996592845  C 19.0993055555556 3.51599469998107  19.2451388888889 3.26992239257997  19.4104166666667 3.05224304372516  C 18.9145833333333 1.98277493848192  18.6666666666667 1.32973689191747  18.6666666666667 1.0931289040318  C 18.6666666666667 1.05527162597009  18.6861111111111 1.0221465076661  18.725 0.993753549119819  C 18.7638888888889 0.974824910088962  18.9340277777778 0.880181714934697  19.2354166666667 0.709823963657014  C 19.5368055555556 0.53946621237933  19.8236111111111 0.37857278061707  20.0958333333333 0.227143668370244  C 20.3680555555556 0.0757145561234129  20.5138888888889 0  20.5333333333333 0  C 20.6111111111111 0  20.8347222222222 0.220045428733673  21.2041666666667 0.660136286201021  C 21.5736111111111 1.10022714366837  21.8263888888889 1.41964792731403  21.9625 1.61839863713799  C 22.1569444444444 1.59946999810713  22.3027777777778 1.59000567859171  22.4 1.59000567859171  C 22.4972222222222 1.59000567859171  22.6430555555556 1.59946999810713  22.8375 1.61839863713799  C 23.3333333333333 0.946431951542681  23.7805555555556 0.416430058678779  24.1791666666667 0.0283929585462805  L 24.2666666666667 0  C 24.3055555555556 0  24.9083333333333 0.331251183039938  26.075 0.993753549119819  C 26.1138888888889 1.0221465076661  26.1333333333333 1.05527162597009  26.1333333333333 1.0931289040318  C 26.1333333333333 1.32973689191747  25.8854166666667 1.98277493848192  25.3895833333333 3.05224304372516  C 25.5548611111111 3.26992239257997  25.7006944444444 3.51599469998107  25.8270833333333 3.79045996592845  Z " fill-rule="nonzero" fill="#8966f8" stroke="none" transform="matrix(1 0 0 1 155 44 )" />
  </g>
</svg>