<?xml version="1.0" encoding="utf-8"?>
<svg version="1.1" xmlns:xlink="http://www.w3.org/1999/xlink" width="12px" height="19px" xmlns="http://www.w3.org/2000/svg">
  <g transform="matrix(1 0 0 1 -559 -167 )">
    <path d="M 11.5260416666667 3.73744419642857  C 11.8420138888889 4.490234375  12 5.28013392857143  12 6.10714285714286  C 12 7.66927083333333  11.4878472222222 9.02818080357143  10.4635416666667 10.1838727678571  C 9.43923611111111 11.3395647321429  8.17361111111111 12.0022321428571  6.66666666666667 12.171875  L 6.66666666666667 18.6607142857143  C 6.66666666666667 18.7596726190476  6.63541666666667 18.8409598214286  6.57291666666667 18.9045758928571  C 6.51041666666667 18.9681919642857  6.43055555555556 19  6.33333333333333 19  L 5.66666666666667 19  C 5.56944444444445 19  5.48958333333333 18.9681919642857  5.42708333333333 18.9045758928571  C 5.36458333333333 18.8409598214286  5.33333333333333 18.7596726190476  5.33333333333333 18.6607142857143  L 5.33333333333333 12.171875  C 3.82638888888889 12.0022321428571  2.56076388888889 11.3395647321429  1.53645833333333 10.1838727678571  C 0.512152777777778 9.02818080357143  0 7.66927083333333  0 6.10714285714286  C 0 5.28013392857143  0.157986111111111 4.490234375  0.473958333333333 3.73744419642857  C 0.789930555555556 2.98465401785714  1.21701388888889 2.33435639880952  1.75520833333333 1.78655133928572  C 2.29340277777778 1.2387462797619  2.93229166666667 0.804036458333332  3.671875 0.482421875  C 4.41145833333333 0.160807291666668  5.1875 0  6 0  C 6.8125 0  7.58854166666667 0.160807291666668  8.328125 0.482421875  C 9.06770833333333 0.804036458333332  9.70659722222222 1.2387462797619  10.2447916666667 1.78655133928572  C 10.7829861111111 2.33435639880952  11.2100694444444 2.98465401785714  11.5260416666667 3.73744419642857  Z M 2.703125 9.462890625  C 3.61631944444444 10.3923921130952  4.71527777777778 10.8571428571429  6 10.8571428571429  C 7.28472222222222 10.8571428571429  8.38368055555556 10.3923921130952  9.296875 9.462890625  C 10.2100694444444 8.53338913690476  10.6666666666667 7.41480654761905  10.6666666666667 6.10714285714286  C 10.6666666666667 4.79947916666667  10.2100694444444 3.68089657738095  9.296875 2.75139508928572  C 8.38368055555556 1.82189360119048  7.28472222222222 1.35714285714286  6 1.35714285714286  C 4.71527777777778 1.35714285714286  3.61631944444444 1.82189360119048  2.703125 2.75139508928572  C 1.78993055555556 3.68089657738095  1.33333333333333 4.79947916666667  1.33333333333333 6.10714285714286  C 1.33333333333333 7.41480654761905  1.78993055555556 8.53338913690476  2.703125 9.462890625  Z " fill-rule="nonzero" fill="#9b9b9b" stroke="none" transform="matrix(1 0 0 1 559 167 )" />
  </g>
</svg>