<?xml version="1.0" encoding="utf-8"?>
<svg version="1.1" xmlns:xlink="http://www.w3.org/1999/xlink" width="43px" height="43px" xmlns="http://www.w3.org/2000/svg">
  <defs>
    <linearGradient gradientUnits="userSpaceOnUse" x1="-2.15" y1="1.79166666666667" x2="45.15" y2="41.2083333333333" id="LinearGradient8614">
      <stop id="Stop8615" stop-color="#7367f0" offset="0" />
      <stop id="Stop8616" stop-color="#ce9ffc" offset="1" />
    </linearGradient>
  </defs>
  <g transform="matrix(1 0 0 1 -832 -676 )">
    <path d="M 7.26600660066007 39.36699669967  L 10.3029702970297 39.36699669967  L 12.8858085808581 36.7841584158416  L 6.21584158415842 30.1141914191419  L 3.63300330033003 32.6970297029703  L 3.63300330033003 35.7339933993399  L 7.26600660066007 35.7339933993399  L 7.26600660066007 39.36699669967  Z M 24.9485148514851 13.5102310231023  C 25.0809680968097 13.3777777777778  25.1471947194719 13.2169416941694  25.1471947194719 13.0277227722772  C 25.1471947194719 12.6114411441144  24.9390539053905 12.403300330033  24.5227722772277 12.403300330033  C 24.3335533553355 12.403300330033  24.1727172717272 12.4695269526953  24.0402640264026 12.6019801980198  L 8.65676567656766 27.9854785478548  C 8.52431243124312 28.1179317931793  8.45808580858086 28.2787678767877  8.45808580858086 28.4679867986799  C 8.45808580858086 28.8842684268427  8.66622662266227 29.0924092409241  9.08250825082508 29.0924092409241  C 9.27172717271727 29.0924092409241  9.43256325632563 29.0261826182618  9.56501650165016 28.8937293729373  L 24.9485148514851 13.5102310231023  Z M 0 31.1927392739274  L 23.6145214521452 7.57821782178218  L 35.4217821782178 19.3854785478548  L 11.8072607260726 43  L 0 43  L 0 31.1927392739274  Z M 41.9498349834983 7.72013201320132  C 42.6499449944994 8.45808580858086  43 9.31903190319032  43 10.3029702970297  C 43 11.3058305830583  42.6499449944994 12.1573157315732  41.9498349834983 12.8574257425743  L 37.2382838283828 17.5689768976898  L 25.4310231023102 5.76171617161716  L 30.1425742574257 1.07854785478548  C 30.8237623762376 0.359515951595156  31.6752475247525 0  32.6970297029703 0  C 33.6998899889989 0  34.5608360836084 0.359515951595156  35.2798679867987 1.07854785478548  L 41.9498349834983 7.72013201320132  Z " fill-rule="nonzero" fill="url(#LinearGradient8614)" stroke="none" transform="matrix(1 0 0 1 832 676 )" />
  </g>
</svg>