<?xml version="1.0" encoding="utf-8"?>
<svg version="1.1" xmlns:xlink="http://www.w3.org/1999/xlink" width="5px" height="5px" xmlns="http://www.w3.org/2000/svg">
  <g transform="matrix(1 0 0 1 -882 -116 )">
    <path d="M 4.66471354166663 1.2451171875  C 4.88823784722217 1.62814670138889  5 2.04644097222223  5 2.5  C 5 2.95355902777777  4.88823784722217 3.37185329861111  4.66471354166663 3.7548828125  C 4.44118923611109 4.13791232638889  4.13791232638891 4.44118923611111  3.7548828125 4.66471354166667  C 3.37185329861109 4.88823784722223  2.95355902777783 5  2.5 5  C 2.04644097222217 5  1.62814670138891 4.88823784722223  1.2451171875 4.66471354166667  C 0.862087673611086 4.44118923611111  0.558810763888914 4.13791232638889  0.335286458333371 3.7548828125  C 0.111762152777828 3.37185329861111  0 2.95355902777777  0 2.5  C 0 2.04644097222223  0.111762152777828 1.62814670138889  0.335286458333371 1.2451171875  C 0.558810763888914 0.862087673611114  0.862087673611086 0.558810763888886  1.2451171875 0.335286458333329  C 1.62814670138891 0.111762152777771  2.04644097222217 0  2.5 0  C 2.95355902777783 0  3.37185329861109 0.111762152777771  3.7548828125 0.335286458333329  C 4.13791232638891 0.558810763888886  4.44118923611109 0.862087673611114  4.66471354166663 1.2451171875  Z " fill-rule="nonzero" fill="#69707f" stroke="none" transform="matrix(1 0 0 1 882 116 )" />
  </g>
</svg>