<?xml version="1.0" encoding="utf-8"?>
<svg version="1.1" xmlns:xlink="http://www.w3.org/1999/xlink" width="16px" height="15px" xmlns="http://www.w3.org/2000/svg">
  <g transform="matrix(1 0 0 1 -313 -658 )">
    <path d="M 10.3197115384615 12.5  L 14.1025640963041 12.5  C 14.7676281926082 12.5  15.3044871732272 12.1121794809195  15 11.448717942458  L 15 1.28044871168868  C 15.3038237088085 0.617179169611745  14.7658339332282 0.079906719336293  14.1025640963041 0  L 1.28205128831129 0  C 0.616987173227159 0.080128211388228  0.080128211388228 0.616987173227187  0 1.28044871168868  L 0 11.448717942458  C 0.080128211388228 12.1109775578425  0.618589749849747 12.5  1.28205128831129 12.5  L 5.06009615384616 12.5  L 7.12620192307693 14.7055288461539  C 7.2768989217455 14.8570703389818  7.4817954345298 14.9422768143214  7.69551115565545 14.9422768143214  C 7.90883493697771 14.9422768143214  8.11338891167935 14.8573816990825  8.26402244215745 14.7063301344651  L 10.3197115384615 12.5  Z M 14.1025640963041 11.698717942458  L 9.98918269230771 11.698717942458  L 9.87179486553487 11.698717942458  L 7.69711538461539 14.1394230769231  C 7.69511217322716 14.1414262883113  5.51842948091948 11.698717942458  5.51842948091948 11.698717942458  L 1.28205128831129 11.698717942458  C 1.06089744215745 11.698717942458  0.881410268930296 11.6682692307692  1 11.448717942458  L 1 1.28044871168868  C 0.881409702946002 1.28017919586409  0.881409429343677 1.27990967955355  0.881409429343677 1.27964016317344  C 0.881409429343677 1.05969984558436  1.05970628498176 0.881402989946253  1.27964660257084 0.881402989946253  C 1.28044816996427 0.881402989946253  1.28124973553111 0.881405410025309  1.28205128831129 1  L 14.1025640963041 1  C 14.3237179424579 0.881410250150225  14.5032051156851 1.06049678861177  14.5032051344651 1.28044871168868  L 14.5032051344651 11.448717942458  C 14.5032051344651 11.6694711538461  14.3253205190805 11.698717942458  14.1025640963041 11.698717942458  Z M 4.48717948091948 7.29166667292668  C 4.92971534161299 7.29166667292668  5.28846153846155 6.93292047607815  5.28846153846155 6.49038461538464  C 5.28846153846155 6.04784875469107  4.92971534161299 5.68910255784255  4.48717948091948 5.68910255784255  C 4.04464362022594 5.68910255784255  3.68589742337741 6.04784875469107  3.68589742337741 6.49038461538464  C 3.68589742337741 6.93292047607815  4.04464362022594 7.29166667292668  4.48717948091948 7.29166667292668  Z M 7.69230769230768 7.29166667292668  C 8.13484355300122 7.29166667292668  8.49358974984975 6.93292047607815  8.49358974984975 6.49038461538464  C 8.49358974984975 6.04784875469107  8.13484355300122 5.68910255784255  7.69230769230768 5.68910255784255  C 7.24977183161417 5.68910255784255  6.89102563476564 6.04784875469107  6.89102563476564 6.49038461538464  C 6.89102563476564 6.93292047607815  7.24977183161417 7.29166667292668  7.69230769230768 7.29166667292668  Z M 10.8974359036959 7.29166667292668  C 11.3399717643894 7.29166667292668  11.698717961238 6.93292047607815  11.698717961238 6.49038461538464  C 11.698717961238 6.04784875469107  11.3399717643894 5.68910255784255  10.8974359036959 5.68910255784255  C 10.4549000430024 5.68910255784255  10.0961538461538 6.04784875469107  10.0961538461538 6.49038461538464  C 10.0961538461538 6.93292047607815  10.4549000430024 7.29166667292668  10.8974359036959 7.29166667292668  Z " fill-rule="nonzero" fill="#999999" stroke="none" transform="matrix(1 0 0 1 313 658 )" />
  </g>
</svg>