<?xml version="1.0" encoding="utf-8"?>
<svg version="1.1" xmlns:xlink="http://www.w3.org/1999/xlink" width="15px" height="15px" xmlns="http://www.w3.org/2000/svg">
  <g>
    <path d="M 14.4761194029851 6.97164179104476  C 14.4761194029851 5.93955223880596  13.4798507462687 6.02238805970148  13.4798507462687 6.02238805970148  L 9.52164179104477 6.02238805970148  C 11.055223880597 0.358208955223859  8.46492537313435 0.0671641791044522  8.46492537313435 0.0671641791044522  C 7.36791044776118 0.0671641791044522  7.59402985074627 0.935820895522397  7.51119402985074 1.07910447761196  C 7.51119402985074 3.85074626865674  4.56940298507465 6.02238805970148  4.56940298507465 6.02238805970148  L 4.56940298507465 13.8783582089552  C 4.56940298507465 14.6529850746269  5.62611940298507 14.9328358208955  6.04029850746269 14.9328358208955  L 11.9888059701493 14.9328358208955  C 12.5485074626866 14.9328358208955  13.005223880597 13.4641791044776  13.005223880597 13.4641791044776  C 14.4761194029851 8.46044776119402  14.4761194029851 6.97164179104476  14.4761194029851 6.97164179104476  Z M 3.54626865671639 6.62462686567164  C 3.54626865671639 6.01567164179102  2.94402985074629 6.02462686567162  2.94402985074629 6.02462686567162  L 0.573134328358208 6.02462686567162  C 0.0828358208955251 6.02462686567162  0.0761194029850571 6.50597014925376  0.0761194029850571 6.50597014925376  L 0.56641791044774 14.4291044776119  C 0.56641791044774 14.9328358208955  1.0723880597015 14.9328358208955  1.0723880597015 14.9328358208955  L 3.12313432835822 14.9328358208955  C 3.55074626865672 14.9328358208955  3.54626865671639 14.5992537313433  3.54626865671639 14.5992537313433  L 3.54626865671639 6.62462686567164  Z " fill-rule="nonzero" fill="#534aff" stroke="none" />
  </g>
</svg>