<?xml version="1.0" encoding="utf-8"?>
<svg version="1.1" xmlns:xlink="http://www.w3.org/1999/xlink" width="15px" height="15px" xmlns="http://www.w3.org/2000/svg">
  <g>
    <path d="M 3.00000000585938 13.8761249941406  C 3.00000000585938 13.874625  11.07 13.8674999882812  11.07 13.8675000058594  C 11.7187500058594 13.8671250117188  12.35025 13.3365000058594  12.463875 12.6975000058594  L 13.3619999941406 7.65187500585938  C 13.5389999882812 6.65925001171877  12.88575 5.88487500000002  11.878875 5.89237500585938  L 11.6985000058594 5.89387499999998  C 11.3888779506501 5.8964096141039  11.079252677679 5.89853461791705  10.769625 5.90025000585939  C 10.437130299705 5.90290541630998  10.1046196944356 5.90290541630998  9.77212499414063 5.90025000585939  L 9.22725 5.89274999999998  L 9.42937500585937 5.38650000000001  C 9.60937500585938 4.93574999414062  9.81187500585938 3.70350000000002  9.80737500585937 3.13612500585936  C 9.79649999999999 1.85212501171873  9.25612500585937 1.11712499999999  8.589375 1.125  C 7.77000000585937 1.13475000585936  7.36837500585938 1.53750000585939  7.37062500585938 2.72699999999998  C 7.374375 4.70737499414065  5.57512500585938 6.70162499999998  3.41325000000001 6.68399999414061  C 3.29237718321578 6.68297303727451  3.1714978226436 6.68297303727451  3.05062500585937 6.68399999414061  L 2.98875000585937 6.68475000000001  C 2.98537500585937 6.68475000000001  3.00000000585938 13.8761249941406  3.00000000585938 13.8761249941406  Z M 10.7658750058594 5.15024999999997  C 11.074628427629 5.14865556177961  11.383378881522 5.14653055668907  11.692125 5.14387499414062  L 11.8728750058594 5.14237500000002  C 13.3496250117188 5.1314999941406  14.3591250058594 6.32925  14.1003750058594 7.78350000585937  L 13.2022499941406 12.8287499941407  C 13.0248749882813 13.8247499882813  12.0828749941406 14.6163749941406  11.0707500058594 14.6174999941406  L 3.00375 14.6242499941406  C 2.58982558633406 14.6263270586382  2.25247837613045 14.292672211204  2.25 13.8787500058594  L 2.23500000585938 6.68624999414061  C 2.23395866534148 6.2736159553088  2.56674836729441 5.93780851293803  2.97937499414063 5.93512500585939  L 3.04387500585938 5.93437499999999  C 3.14775 5.93324999999999  3.27450000585938 5.93324999999999  3.418875 5.93437499999999  C 5.144625 5.94824999414061  6.62324999414062 4.30950000585938  6.620625 2.72849999414063  C 6.61762499414063 1.1253749941406  7.35187500000001 0.390000005859349  8.58000000585938 0.374999994140637  C 9.72562499999999 0.361499994140615  10.5431250058594 1.47375  10.5566250058594 3.12975  C 10.5611250058594 3.63037500000002  10.4362500058594 4.51537500585937  10.2806249941406 5.15212500585938  C 10.4216249882813 5.15212500585938  10.5843749941406 5.15137499999997  10.7654999941406 5.15024999999997  Z M 1.15462499414063 6.75  L 0.750000005859377 6.75  L 0.750000005859377 13.8749999941406  L 1.16249999414062 13.8749999941406  C 1.36960677694519 13.8749999941406  1.53749999707031 14.0428932142657  1.53749999707031 14.2499999970703  C 1.53749999707031 14.4571067798749  1.3696067769452 14.625  1.16249999414062 14.625  L 0.471749994140623 14.625  C 0.470999802715603 14.6250035961514  0.470249603747604 14.6250053942348  0.469499403703296 14.6250053942348  C 0.210492451346667 14.6250053942348  0.000410766852226629 14.4152566207733  0 14.1562499941406  L 0 6.46875  C 0 6.20887499999998  0.212250005859374 5.99999999414064  0.470624994140628 5.99999999414064  L 1.15462499414063 5.99999999414064  C 1.36173177694519 5.99999999414064  1.52962499707031 6.16789321426575  1.52962499707031 6.37499999707029  C 1.52962499707031 6.58210677987489  1.36173177694519 6.75  1.15462499414063 6.75  Z " fill-rule="nonzero" fill="#999999" stroke="none" />
  </g>
</svg>