<?xml version="1.0" encoding="utf-8"?>
<svg version="1.1" xmlns:xlink="http://www.w3.org/1999/xlink" width="15px" height="15px" xmlns="http://www.w3.org/2000/svg">
  <g transform="matrix(1 0 0 1 -296 -420 )">
    <path d="M 0 6  C 0 2.68629150101524  2.68629150101524 0  6 0  L 9 0  C 12.3137084989848 0  15 2.68629150101524  15 6  C 15 9.31370849898476  12.3137084989848 12  9 12  L 9 14.625  C 5.25 13.125  0 10.875  0 6  Z M 7.5 12.36  L 7.5 10.5  L 9 10.5  C 11.4852814412938 10.5  13.5000000670552 8.48528137423857  13.5000000670552 6  C 13.5000000670552 3.51471862576143  11.4852814412938 1.5  9.00000006705522 1.5  L 6 1.5  C 3.51471862576143 1.5  1.5 3.51471862576143  1.5 6  C 1.5 8.7075  3.3465 10.4745  7.5 12.36  Z " fill-rule="nonzero" fill="#999999" stroke="none" transform="matrix(1 0 0 1 296 420 )" />
  </g>
</svg>