<?xml version="1.0" encoding="utf-8"?>
<svg version="1.1" xmlns:xlink="http://www.w3.org/1999/xlink" width="23px" height="23px" xmlns="http://www.w3.org/2000/svg">
  <g transform="matrix(1 0 0 1 -2 0 )">
    <path d="M 4.60000000898438 21.2767249910156  C 4.60000000898438 21.274425  16.974 21.2634999820312  16.974 21.2635000089844  C 17.9687500089844 21.2629250179688  18.93705 20.4493000089844  19.111275 19.4695000089843  L 20.4883999910156 11.7328750089844  C 20.7597999820312 10.2108500179688  19.75815 9.02347500000003  18.214275 9.03497500898438  L 17.9377000089844 9.03727499999997  C 17.4629461909969 9.04116140829265  16.9881874391077 9.04441974747281  16.513425 9.0470500089844  C 16.0035997928811 9.05112163834197  15.4937501981346 9.05112163834197  14.9839249910156 9.0470500089844  L 14.14845 9.03554999999997  L 14.4583750089844 8.25930000000002  C 14.7343750089844 7.56814999101562  15.0448750089844 5.67870000000003  15.0379750089844 4.80872500898435  C 15.0213 2.83992501796871  14.1927250089844 1.71292499999998  13.170375 1.725  C 11.9140000089844 1.73995000898435  11.2981750089844 2.35750000898439  11.3016250089844 4.18139999999996  C 11.307375 7.21797499101566  8.54852500898438 10.275825  5.23365000000001 10.2487999910156  C 5.04831168093086 10.2472253238209  4.86296332805352 10.2472253238209  4.67762500898437 10.2487999910156  L 4.58275000898437 10.24995  C 4.57757500898437 10.24995  4.60000000898438 21.2767249910156  4.60000000898438 21.2767249910156  Z M 16.5076750089844 7.89704999999996  C 16.9810969223645 7.89460519472873  17.4545142850003 7.89134685358991  17.927925 7.88727499101561  L 18.2050750089844 7.88497500000002  C 20.4694250179688 7.86829999101558  22.0173250089844 9.70485  21.6205750089844 11.9347000089844  L 20.2434499910156 19.6707499910157  C 19.9714749820313 21.1979499820313  18.5270749910156 22.4117749910157  16.9751500089844 22  L 4.60574999999999 22  C 3.97106589904556 22.4270348232452  3.45380017673336 21.9154307238462  3.45 21.2807500089844  L 3.42700000898438 10.2522499910156  C 3.42540328685693 9.61954446480682  3.93568082985143 9.10463971983832  4.56837499101563 9.1005250089844  L 4.66727500898438 9.09937499999998  C 4.82655 9.09764999999998  5.02090000898438 9.09764999999998  5.242275 9.09937499999998  C 7.88842500000001 9.1206499910156  10.1556499910156 6.60790000898438  10.151625 4.18369999101564  C 10.1470249910156 1.72557499101559  11.272875 0.598000008984335  13.1560000089844 0.574999991015644  C 14.912625 0.55429999101561  16.1661250089844 2.25974999999999  16.1868250089844 4.79895  C 16.1937250089844 5.56657500000002  16.0022500089844 6.92357500898436  15.7636249910156 7.89992500898438  C 15.9798249820313 7.89992500898438  16.2293749910156 7.89877499999996  16.5070999910156 7.89704999999996  Z M 1.77042499101563 10.35  L 1.15000000898438 10.35  L 1.15000000898438 21.2749999910156  L 1.78249999101562 21.2749999910156  C 2.10006372464929 21.2749999910156  2.35749999550781 21.5324362618741  2.35749999550781 21.8499999955078  C 2.35749999550781 22.1675637291415  2.1000637246493 22.425  1.78249999101562 22.425  L 0.723349991015622 22.425  C 0.722199697497258 22.4250055140988  0.721049392412993 22.42500827116  0.719899085678387 22.42500827116  C 0.322755092064889 22.42500827116  0.000629842506747498 22.1033934851858  0 21.7062499910156  L 0 9.91875  C 0 9.52027499999997  0.325450008984374 9.19999999101564  0.72162499101563 9.19999999101564  L 1.77042499101563 9.19999999101564  C 2.08798872464929 9.19999999101564  2.34542499550782 9.45743626187414  2.34542499550782 9.77499999550778  C 2.34542499550782 10.0925637291415  2.08798872464929 10.35  1.77042499101563 10.35  Z " fill-rule="nonzero" fill="#69707f" stroke="none" transform="matrix(1 0 0 1 2 0 )" />
  </g>
</svg>