<?xml version="1.0" encoding="utf-8"?>
<svg version="1.1" xmlns:xlink="http://www.w3.org/1999/xlink" width="22px" height="22px" xmlns="http://www.w3.org/2000/svg">
  <g transform="matrix(1 0 0 1 -3 0 )">
    <path d="M 21.2316417910448 10.2250746268656  C 21.2316417910448 8.71134328358207  19.770447761194 8.83283582089551  19.770447761194 8.83283582089551  L 13.9650746268657 8.83283582089551  C 16.2143283582089 0.525373134328326  12.415223880597 0.0985074626865298  12.415223880597 0.0985074626865298  C 10.8062686567164 0.0985074626865298  11.1379104477612 1.37253731343285  11.0164179104478 1.58268656716421  C 11.0164179104478 5.64776119402988  6.70179104477615 8.83283582089551  7 8.83283582089551  L 7 20.3549253731343  C 6.70179104477615 21.4910447761194  8.25164179104477 21.9014925373135  8.85910447761195 21.9014925373135  L 17.5835820895522 21.9014925373135  C 18.4044776119403 21.9014925373135  19.0743283582089 19.7474626865672  19.0743283582089 19.7474626865672  C 21.2316417910448 12.4086567164179  21.2316417910448 10.2250746268656  21.2316417910448 10.2250746268656  Z M 5.20119402985071 9.71611940298508  C 5.20119402985071 8.82298507462682  4.31791044776122 8.83611940298504  4.31791044776122 8.83611940298504  L 0.840597014925371 8.83611940298504  C 0.121492537313437 8.83611940298504  0.11164179104475 9.54208955223884  0.11164179104475 9.54208955223884  L 0.830746268656685 21.1626865671642  C 0.830746268656685 21.9014925373135  1.57283582089553 21.9014925373135  1.57283582089553 21.9014925373135  L 4.58059701492539 21.9014925373135  C 5.20776119402986 21.9014925373135  5.20119402985071 21.4122388059702  5.20119402985071 21.4122388059702  L 5.20119402985071 9.71611940298508  Z " fill-rule="nonzero" fill="#534aff" stroke="none" transform="matrix(1 0 0 1 3 0 )" />
  </g>
</svg>