<?xml version="1.0" encoding="utf-8"?>
<svg version="1.1" xmlns:xlink="http://www.w3.org/1999/xlink" width="19px" height="19px" xmlns="http://www.w3.org/2000/svg">
  <defs>
    <mask fill="white" id="clip8655">
      <path d="M 18.3605769230769 6.8122243226213  C 18.786858974359 6.88405797101449  19 7.06763285024155  19 7.36294896030246  C 19 7.53854232304138  18.9010416666667 7.73009871875656  18.703125 7.93761814744802  L 14.5582932692308 12.1758034026465  L 15.5402644230769 18.1619407687461  C 15.5478766025641 18.217811384163  15.5516826923077 18.2976265490443  15.5516826923077 18.40138626339  C 15.5516826923077 18.5689981096408  15.51171875 18.7106700273052  15.4317908653846 18.8264020163831  C 15.3518629807692 18.942134005461  15.2357772435897 19  15.0835336538462 19  C 14.9389022435897 19  14.7866586538462 18.9521109010712  14.6268028846154 18.8563327032136  L 9.5 16.0308758664146  L 4.37319711538461 18.8563327032136  C 4.20572916666667 18.9521109010712  4.05348557692308 19  3.91646634615385 19  C 3.75661057692308 19  3.63671875 18.942134005461  3.55679086538461 18.8264020163831  C 3.47686298076923 18.7106700273052  3.43689903846154 18.5689981096408  3.43689903846154 18.40138626339  C 3.43689903846154 18.3534971644612  3.44451121794872 18.2736819995799  3.45973557692308 18.1619407687461  L 4.44170673076923 12.1758034026465  L 0.285456730769231 7.93761814744802  C 0.0951522435897436 7.72211720226843  0 7.53056080655325  0 7.36294896030246  C 0 7.06763285024155  0.213141025641026 6.88405797101449  0.639423076923077 6.8122243226213  L 6.37139423076923 5.93824826717076  L 8.94050480769231 0.490863264020163  C 9.08513621794872 0.16362108800672  9.27163461538461 0  9.5 0  C 9.72836538461538 0  9.91486378205128 0.16362108800672  10.0594951923077 0.490863264020163  L 12.6286057692308 5.93824826717076  L 18.3605769230769 6.8122243226213  Z " fill-rule="evenodd" />
    </mask>
  </defs>
  <g transform="matrix(1 0 0 1 -295 -19 )">
    <path d="M 18.3605769230769 6.8122243226213  C 18.786858974359 6.88405797101449  19 7.06763285024155  19 7.36294896030246  C 19 7.53854232304138  18.9010416666667 7.73009871875656  18.703125 7.93761814744802  L 14.5582932692308 12.1758034026465  L 15.5402644230769 18.1619407687461  C 15.5478766025641 18.217811384163  15.5516826923077 18.2976265490443  15.5516826923077 18.40138626339  C 15.5516826923077 18.5689981096408  15.51171875 18.7106700273052  15.4317908653846 18.8264020163831  C 15.3518629807692 18.942134005461  15.2357772435897 19  15.0835336538462 19  C 14.9389022435897 19  14.7866586538462 18.9521109010712  14.6268028846154 18.8563327032136  L 9.5 16.0308758664146  L 4.37319711538461 18.8563327032136  C 4.20572916666667 18.9521109010712  4.05348557692308 19  3.91646634615385 19  C 3.75661057692308 19  3.63671875 18.942134005461  3.55679086538461 18.8264020163831  C 3.47686298076923 18.7106700273052  3.43689903846154 18.5689981096408  3.43689903846154 18.40138626339  C 3.43689903846154 18.3534971644612  3.44451121794872 18.2736819995799  3.45973557692308 18.1619407687461  L 4.44170673076923 12.1758034026465  L 0.285456730769231 7.93761814744802  C 0.0951522435897436 7.72211720226843  0 7.53056080655325  0 7.36294896030246  C 0 7.06763285024155  0.213141025641026 6.88405797101449  0.639423076923077 6.8122243226213  L 6.37139423076923 5.93824826717076  L 8.94050480769231 0.490863264020163  C 9.08513621794872 0.16362108800672  9.27163461538461 0  9.5 0  C 9.72836538461538 0  9.91486378205128 0.16362108800672  10.0594951923077 0.490863264020163  L 12.6286057692308 5.93824826717076  L 18.3605769230769 6.8122243226213  Z " fill-rule="nonzero" fill="#ffffff" stroke="none" transform="matrix(1 0 0 1 295 19 )" />
    <path d="M 18.3605769230769 6.8122243226213  C 18.786858974359 6.88405797101449  19 7.06763285024155  19 7.36294896030246  C 19 7.53854232304138  18.9010416666667 7.73009871875656  18.703125 7.93761814744802  L 14.5582932692308 12.1758034026465  L 15.5402644230769 18.1619407687461  C 15.5478766025641 18.217811384163  15.5516826923077 18.2976265490443  15.5516826923077 18.40138626339  C 15.5516826923077 18.5689981096408  15.51171875 18.7106700273052  15.4317908653846 18.8264020163831  C 15.3518629807692 18.942134005461  15.2357772435897 19  15.0835336538462 19  C 14.9389022435897 19  14.7866586538462 18.9521109010712  14.6268028846154 18.8563327032136  L 9.5 16.0308758664146  L 4.37319711538461 18.8563327032136  C 4.20572916666667 18.9521109010712  4.05348557692308 19  3.91646634615385 19  C 3.75661057692308 19  3.63671875 18.942134005461  3.55679086538461 18.8264020163831  C 3.47686298076923 18.7106700273052  3.43689903846154 18.5689981096408  3.43689903846154 18.40138626339  C 3.43689903846154 18.3534971644612  3.44451121794872 18.2736819995799  3.45973557692308 18.1619407687461  L 4.44170673076923 12.1758034026465  L 0.285456730769231 7.93761814744802  C 0.0951522435897436 7.72211720226843  0 7.53056080655325  0 7.36294896030246  C 0 7.06763285024155  0.213141025641026 6.88405797101449  0.639423076923077 6.8122243226213  L 6.37139423076923 5.93824826717076  L 8.94050480769231 0.490863264020163  C 9.08513621794872 0.16362108800672  9.27163461538461 0  9.5 0  C 9.72836538461538 0  9.91486378205128 0.16362108800672  10.0594951923077 0.490863264020163  L 12.6286057692308 5.93824826717076  L 18.3605769230769 6.8122243226213  Z " stroke-width="2" stroke="#b0b0b0" fill="none" transform="matrix(1 0 0 1 295 19 )" mask="url(#clip8655)" />
  </g>
</svg>