<?xml version="1.0" encoding="utf-8"?>
<svg version="1.1" xmlns:xlink="http://www.w3.org/1999/xlink" width="14px" height="17px" xmlns="http://www.w3.org/2000/svg">
  <g transform="matrix(1 0 0 1 -329 -21 )">
    <path d="M 13.2276666666667 0  C 13.6538888888889 0  14 0.377399999999997  14 0.843199999999994  L 14 16.1567999999999  C 13.9966101373779 16.6212742908421  13.6526790214352 16.9967633503538  13.2276666666667 17  L 0.772333333333334 17  C 0.346088968139763 17.0000002362074  0.000429249108900187 16.6226239628969  0 16.1567999999999  L 0 0.843199999999994  C 0.0033898626221363 0.378725709157809  0.347320978564805 0.00323664964612631  0.772333333333333 0  L 13.2276666666667 0  Z M 12.4444444444444 15  L 12.4444444444444 2  L 1.55555555555556 2  L 1.55555555555556 15  L 12.4444444444444 15  Z M 4.52511111111111 7.34909999999995  L 6.45011111111111 9.45284999999994  L 9.75022222222222 5.84714999999996  L 10.85 7.04904999999995  L 6.45011111111111 11.8574999999999  L 3.42455555555555 8.55099999999994  L 4.52511111111111 7.34909999999995  Z " fill-rule="nonzero" fill="#b0b0b0" stroke="none" transform="matrix(1 0 0 1 329 21 )" />
  </g>
</svg>