<?xml version="1.0" encoding="utf-8"?>
<svg version="1.1" xmlns:xlink="http://www.w3.org/1999/xlink" width="16px" height="17px" xmlns="http://www.w3.org/2000/svg">
  <g transform="matrix(1 0 0 1 -16 -10 )">
    <path d="M 4.53333333333333 3  L 4.53333333333333 1.13333333333333  L 15.8 1.13333333333333  L 15.8 3  L 4.53333333333333 3  Z M 1.5 3.43541666666667  C 0.782029825219968 3.43541666666667  0.2 2.81700997737045  0.2 2.05416666666667  C 0.2 1.29132335596288  0.782029825219968 0.672916666666666  1.5 0.672916666666666  C 2.21797017478003 0.672916666666666  2.8 1.29132335596288  2.8 2.05416666666667  C 2.8 2.81700997737045  2.21797017478003 3.43541666666667  1.5 3.43541666666667  Z M 1.5 9.88125  C 0.782029825219968 9.88125  0.2 9.26284331070378  0.2 8.5  C 0.2 7.73715668929622  0.782029825219968 7.11875  1.5 7.11875  C 2.21797017478003 7.11875  2.8 7.73715668929622  2.8 8.5  C 2.8 9.26284331070378  2.21797017478003 9.88125  1.5 9.88125  Z M 1.5 16.235  C 0.782029825219968 16.235  0.2 15.6165933107038  0.2 14.85375  C 0.2 14.0909066892962  0.782029825219968 13.4725  1.5 13.4725  C 2.21797017478003 13.4725  2.8 14.0909066892962  2.8 14.85375  C 2.8 15.6165933107038  2.21797017478003 16.235  1.5 16.235  Z M 4.53333333333333 9.42083333333333  L 4.53333333333333 7.57916666666667  L 15.8 7.57916666666667  L 15.8 9.42083333333333  L 4.53333333333333 9.42083333333333  Z M 4.53333333333333 15.8666666666667  L 4.53333333333333 14  L 15.8 14  L 15.8 15.8666666666667  L 4.53333333333333 15.8666666666667  Z " fill-rule="nonzero" fill="#69707f" stroke="none" transform="matrix(1 0 0 1 16 10 )" />
  </g>
</svg>