<?xml version="1.0" encoding="utf-8"?>
<svg version="1.1" xmlns:xlink="http://www.w3.org/1999/xlink" width="11px" height="15px" xmlns="http://www.w3.org/2000/svg">
  <g transform="matrix(1 0 0 1 -211 -1 )">
    <path d="M 1.25 0.125  L 9.75 0.125  L 9.75 1.54166666666667  L 9.04166666666667 1.54166666666667  L 9.04166666666667 5.79166666666667  L 10.4583333333333 7.91666666666667  L 10.4583333333333 9.33333333333333  L 6.20833333333333 9.33333333333333  L 6.20833333333333 14.2916666666667  L 4.79166666666667 14.2916666666667  L 4.79166666666667 9.33333333333333  L 0.541666666666667 9.33333333333333  L 0.541666666666667 7.91666666666667  L 1.95833333333333 5.79166666666667  L 1.95833333333333 1.54166666666667  L 1.25 1.54166666666667  L 1.25 0.125  Z M 7.625 1.54166666666667  L 3.375 1.54166666666667  L 3.375 6.22091666666667  L 2.2445 7.91666666666667  L 8.7555 7.91666666666667  L 7.625 6.22091666666667  L 7.625 1.54166666666667  Z " fill-rule="nonzero" fill="#ffec22" stroke="none" transform="matrix(1 0 0 1 211 1 )" />
  </g>
</svg>