<?xml version="1.0" encoding="utf-8"?>
<svg version="1.1" xmlns:xlink="http://www.w3.org/1999/xlink" width="19px" height="22px" xmlns="http://www.w3.org/2000/svg">
  <g transform="matrix(1 0 0 1 -710 -129 )">
    <path d="M 17.9518333333333 0  C 18.5302777777778 0  19 0.488399999999997  19 1.09119999999999  L 19 20.9087999999999  C 18.9953994721557 21.5098843763839  18.5286358148049 21.9958113945755  17.9518333333333 22  L 1.04816666666667 22  C 0.469692171046821 22.0000003056801  0.000582552362078825 21.5116310108077  0 20.9087999999999  L 0 1.09119999999999  C 0.00460052784432784 0.490115623615988  0.471364185195093 0.00418860542439876  1.04816666666667 0  L 17.9518333333333 0  Z M 16.8888888888889 19.7999999999999  L 16.8888888888889 2.19999999999999  L 2.11111111111111 2.19999999999999  L 2.11111111111111 19.7999999999999  L 16.8888888888889 19.7999999999999  Z M 6.14122222222222 9.51059999999994  L 8.75372222222222 12.2330999999999  L 13.2324444444444 7.56689999999995  L 14.725 9.12229999999994  L 8.75372222222222 15.3449999999999  L 4.64761111111111 11.0659999999999  L 6.14122222222222 9.51059999999994  Z " fill-rule="nonzero" fill="#69707f" stroke="none" transform="matrix(1 0 0 1 710 129 )" />
  </g>
</svg>