<?xml version="1.0" encoding="utf-8"?>
<svg version="1.1" xmlns:xlink="http://www.w3.org/1999/xlink" width="21px" height="20px" xmlns="http://www.w3.org/2000/svg">
  <g transform="matrix(1 0 0 1 -806 -130 )">
    <path d="M 16.2272727272727 7.61904761904762  L 16.2272727272727 5.71428571428571  L 21 5.71428571428571  L 21 7.61904761904762  L 16.2272727272727 7.61904761904762  Z M 14.3181818181818 12.3809523809524  L 14.3181818181818 10.4761904761905  L 21 10.4761904761905  L 21 12.3809523809524  L 14.3181818181818 12.3809523809524  Z M 17.1818181818182 17.1428571428571  L 17.1818181818182 15.2380952380952  L 21 15.2380952380952  L 21 17.1428571428571  L 17.1818181818182 17.1428571428571  Z M 1.90909090909091 20  L 0 20  C 0 15.7921161917654  3.41891645583758 12.3809523809524  7.63636363636364 12.3809523809524  C 11.8538108168897 12.3809523809524  15.2727272727273 15.7921161917654  15.2727272727273 20  L 13.3636363636364 20  C 13.3636363636364 16.844087143824  10.7994490217582 14.2857142857143  7.63636363636364 14.2857142857143  C 4.47327825096909 14.2857142857143  1.90909090909091 16.844087143824  1.90909090909091 20  Z M 13.3636363636364 5.71428571428571  C 13.3636363636364 8.87142857142857  10.8006818181818 11.4285714285714  7.63636363636364 11.4285714285714  C 4.47204545454546 11.4285714285714  1.90909090909091 8.87142857142857  1.90909090909091 5.71428571428571  C 1.90909090909091 2.55714285714286  4.47204545454546 0  7.63636363636364 0  C 10.8006818181818 0  13.3636363636364 2.55714285714286  13.3636363636364 5.71428571428571  Z M 3.81818181818182 5.71428571428571  C 3.81818181818182 7.81904761904762  5.52681818181818 9.52380952380952  7.63636363636364 9.52380952380952  C 9.74590909090909 9.52380952380952  11.4545454545455 7.81904761904762  11.4545454545455 5.71428571428571  C 11.4545454545455 3.60952380952381  9.74590909090909 1.9047619047619  7.63636363636364 1.9047619047619  C 5.52681818181818 1.9047619047619  3.81818181818182 3.60952380952381  3.81818181818182 5.71428571428571  Z " fill-rule="nonzero" fill="#69707f" stroke="none" transform="matrix(1 0 0 1 806 130 )" />
  </g>
</svg>