<?xml version="1.0" encoding="utf-8"?>
<svg version="1.1" xmlns:xlink="http://www.w3.org/1999/xlink" width="20px" height="21px" xmlns="http://www.w3.org/2000/svg">
  <g transform="matrix(1 0 0 1 -756 -130 )">
    <path d="M 1 6.29999999999996  L 7.36842105263158 0.0031500000000001  L 7.36842105263158 0  L 18.9452631578947 0  C 19.5263157894737 0  20 0.477749999999997  20 1.04159999999999  L 20 19.9583999999999  C 19.9994190613564 20.5338296012255  19.5316089152996 21.0000002917856  18.9547368421053 21  L 2.0978947368421 21  C 1.51942180415615 20.9959749505931  1.0526056095836 20.5270663328462  1.0526056095836 19.950025544299  C 1.0526056095836 19.9475670067873  1.05261426609158 19.9451084768573  1 19.9426499999999  L 1 6.29999999999996  Z M 7.36842105263158 2.97149999999998  L 4.03157894736842 6.29999999999996  L 7.36842105263158 6.29999999999996  L 7.36842105263158 2.97149999999998  Z M 17.8947368421053 2.09999999999999  L 9.47368421052632 2.09999999999999  L 9.47368421052632 7.34999999999995  C 9.47368421052632 7.92989898732228  9.00240499982189 8.39999999999995  8.42105263157895 8.39999999999995  L 3.1578947368421 8.39999999999995  L 3.1578947368421 18.8999999999999  L 17.8947368421053 18.8999999999999  L 17.8947368421053 2.09999999999999  Z " fill-rule="nonzero" fill="#69707f" stroke="none" transform="matrix(1 0 0 1 756 130 )" />
  </g>
</svg>