<?xml version="1.0" encoding="utf-8"?>
<svg version="1.1" xmlns:xlink="http://www.w3.org/1999/xlink" width="24px" height="24px" xmlns="http://www.w3.org/2000/svg">
  <g transform="matrix(1 0 0 1 -853 -127 )">
    <path d="M 0.0696817419911895 11.9718592964039  C 0.0696817419911895 18.5514237854114  5.42177554428392 23.9061976549937  12.004020100581 23.9061976549937  C 18.5835845898241 23.9061976549937  23.9383584591709 18.551423785647  23.9383584589353 11.9718592964039  C 23.9383584586997 5.39229480716081  18.5835845895886 0.0375209380496335  12.004020100581 0.0375209380496335  C 5.42445561157347 0.0375209380496335  0.0696817419911895 5.39229480739635  0.0696817419911895 11.9718592964039  Z M 1.7259631491049 11.9718592964039  C 1.7259631491049 6.30351758786118  6.3356783920383 1.69380234492775  12.004020100581 1.69380234492775  C 17.6696817420697 1.69380234492775  22.2820770520571 6.30351758786118  22.2820770520571 11.9718592964039  C 22.2820770520571 17.6375209378926  17.6723618091238 22.24991624788  12.004020100581 22.24991624788  C 6.3356783920383 22.24991624788  1.7259631491049 17.6402010049466  1.7259631491049 11.9718592964039  Z M 7.02981574536749 12.8000000000785  C 6.57152428808102 12.8000000000785  6.20167504192839 12.4274706868719  6.20167504192839 11.9691792293499  C 6.20167504192839 11.5108877720635  6.57152428808102 11.1410385259108  7.02981574536749 11.1410385259108  L 11.1731993298524 11.1410385259108  L 11.1731993298524 6.99765494142588  C 11.1731993298524 6.53936348413946  11.543048576005 6.1695142379868  12.001340033527 6.1695142379868  C 12.4596314908135 6.1695142379868  12.8294807369661 6.53936348413946  12.8294807369661 6.99765494142588  L 12.8294807369661 11.1410385259108  L 16.9728643216865 11.1410385259108  C 17.431155778973 11.1410385259108  17.8010050251256 11.5108877720635  17.8010050251256 11.9691792293499  C 17.8010050251256 12.4274706866363  17.431155778973 12.797319932789  16.9728643216865 12.7973199330245  L 12.8321608040201 12.7973199330245  L 12.8321608040201 16.9407035175094  C 12.8321608040201 17.3989949747958  12.4623115578675 17.7688442209485  12.004020100581 17.768844221184  C 11.5457286432946 17.768844221184  11.1758793971419 17.3989949750314  11.1758793969064 16.9407035175094  L 11.1758793969064 12.8000000000785  L 7.02981574536749 12.8000000000785  Z " fill-rule="nonzero" fill="#69707f" stroke="none" transform="matrix(1 0 0 1 853 127 )" />
  </g>
</svg>