<?xml version="1.0" encoding="utf-8"?>
<svg version="1.1" xmlns:xlink="http://www.w3.org/1999/xlink" width="169px" height="150px" xmlns="http://www.w3.org/2000/svg">
  <defs>
    <filter x="926px" y="165px" width="169px" height="150px" filterUnits="userSpaceOnUse" id="filter8657">
      <feOffset dx="0" dy="0" in="SourceAlpha" result="shadowOffsetInner" />
      <feGaussianBlur stdDeviation="2.5" in="shadowOffsetInner" result="shadowGaussian" />
      <feComposite in2="shadowGaussian" operator="atop" in="SourceAlpha" result="shadowComposite" />
      <feColorMatrix type="matrix" values="0 0 0 0 0.8  0 0 0 0 0.8  0 0 0 0 0.8  0 0 0 0.4 0  " in="shadowComposite" />
    </filter>
    <g id="widget8658">
      <path d="M 932 306  C 932 306  932 180.30635451505  932 180.30635451505  C 932 178.649500265558  933.343145750508 177.30635451505  935 177.30635451505  C 935 177.30635451505  1052.08675002733 177.30635451505  1052.08675002733 177.30635451505  C 1052.08675002733 177.30635451505  1062.16884869322 171.524295684541  1062.16884869322 171.524295684541  C 1062.16884869322 171.524295684541  1073.98313499892 177.30635451505  1073.98313499892 177.30635451505  C 1073.98313499892 177.30635451505  1086 177.30635451505  1086 177.30635451505  C 1087.65685424949 177.30635451505  1089 178.649500265558  1089 180.30635451505  C 1089 180.30635451505  1089 306  1089 306  C 1089 307.656854249492  1087.65685424949 309  1086 309  C 1086 309  935 309  935 309  C 933.343145750508 309  932 307.656854249492  932 306  Z " fill-rule="nonzero" fill="#ffffff" stroke="none" />
    </g>
  </defs>
  <g transform="matrix(1 0 0 1 -926 -165 )">
    <use xlink:href="#widget8658" filter="url(#filter8657)" />
    <use xlink:href="#widget8658" />
  </g>
</svg>