<?xml version="1.0" encoding="utf-8"?>
<svg version="1.1" xmlns:xlink="http://www.w3.org/1999/xlink" width="22px" height="22px" xmlns="http://www.w3.org/2000/svg">
  <g transform="matrix(1 0 0 1 -949 -198 )">
    <path d="M 20.9 17.6  L 4.9005 17.6  L 0 21.45  L 0 1.1  C 0 0.492486775186127  0.492486775186127 0  1.1 0  L 20.9 0  C 21.5075132248139 0  22 0.492486775186127  22 1.1  L 22 16.5  C 22 17.1075132248139  21.5075132248139 17.6  20.9 17.6  Z M 2.2 16.9235  L 4.1393 15  L 19.8 15  L 19.8 2.2  L 2.2 2.2  L 2.2 16.9235  Z M 9.9 9.9  L 9.9 7.7  L 12.1 7.7  L 12.1 9.9  L 9.9 9.9  Z M 5.5 9.9  L 5.5 7.7  L 7.7 7.7  L 7.7 9.9  L 5.5 9.9  Z M 14.3 9.9  L 14.3 7.7  L 16.5 7.7  L 16.5 9.9  L 14.3 9.9  Z " fill-rule="nonzero" fill="#b0b0b0" stroke="none" transform="matrix(1 0 0 1 949 198 )" />
  </g>
</svg>