<?xml version="1.0" encoding="utf-8"?>
<svg version="1.1" xmlns:xlink="http://www.w3.org/1999/xlink" width="19px" height="21px" xmlns="http://www.w3.org/2000/svg">
  <g transform="matrix(1 0 0 1 -951 -237 )">
    <path d="M 10.0000001224063 13.251  L 10.0000001224063 13.252  L 10.0000001224062 15.342  C 9.35765122635033 15.114895352791  8.68131393529675 14.9988542108127  8.0000000402049 14.9988542108127  C 4.68629158628888 14.9988542108127  2.00000012180907 17.6851457118279  2.00000012180907 20.9988542108127  C 2.00000012180907 20.9992361405478  2.00000015827665 20.9996180702719  2.0000002312118 21  L 0 20.999  C 0 20.9983222085789  0 20.9976444171358  0 20.9969666256928  C 0 16.5786886270465  3.58172195263975 12.9969666256928  7.99999989119445 12.9969666256928  C 8.67471169325563 12.9969666256928  9.34671323481538 13.0823220253963  10.0000001224063 13.251  Z M 14.0000000680035 6  C 14.0000000680035 9.315  11.3150001045213 12  8.00000014960764 12  C 4.68500019469394 12  2.0000002312118 9.315  2.0000002312118 6  C 2.0000002312118 2.685  4.68500019469394 0  8.00000014960764 0  C 11.3150001045213 0  14.0000000680035 2.685  14.0000000680035 6  Z M 4.00000020401042 6  C 4.00000020401042 8.21  5.79000017966517 10  8.00000014960764 10  C 10.2100001195501 10  12.0000000952049 8.21  12.0000000952049 6  C 12.0000000952049 3.79  10.2100001195501 2  8.00000014960764 2  C 5.79000017966517 2  4.00000020401042 3.79  4.00000020401042 6  Z M 11.0000001088056 16  L 14.0000000680035 16  L 14.0000000680035 13  L 16.0000000408021 13  L 16.0000000408021 16  L 19 16  L 19 18  L 16.0000000408021 18  L 16.0000000408021 21  L 14.0000000680035 21  L 14.0000000680035 18  L 11.0000001088056 18  L 11.0000001088056 16  Z " fill-rule="nonzero" fill="#b0b0b0" stroke="none" transform="matrix(1 0 0 1 951 237 )" />
  </g>
</svg>