<?xml version="1.0" encoding="utf-8"?>
<svg version="1.1" xmlns:xlink="http://www.w3.org/1999/xlink" width="14px" height="15px" xmlns="http://www.w3.org/2000/svg">
  <g transform="matrix(1 0 0 1 -583 -119 )">
    <path d="M 10.5169573643411 10.6161474458204  L 13.8056686046511 13.9001064241486  C 13.9380655798609 14.0323383785023  13.9380655798609 14.2466863892994  13.8056686046511 14.3789183436534  L 13.5658914728682 14.6186629256965  C 13.4334545077326 14.7508549520282  13.218774174438 14.7508549520282  13.0863372093023 14.6186629256965  L 9.72606589147279 11.2632546439629  C 8.69718988323154 11.9729127350261  7.47589134856128 12.3521318412763  6.22538759689917 12.3502321981423  C 2.81695736434108 12.3498935758514  0.0542635658914605 9.59113777089783  0.0542635658914605 6.18832236842104  C 0.0542635658914605 2.78550696594425  2.81695736434108 0.0270897832817809  6.22538759689917 0.0270897832817809  C 9.63347868217056 0.0270897832817809  12.3961724806201 2.78550696594425  12.3961724806201 6.18866099071192  C 12.3961724806201 7.92647058823536  11.6758236434108 9.49598490712083  10.5166182170543 10.6161474458204  Z M 1.07170542635663 6.18866099071192  C 1.07170542635663 9.03037925696594  3.3789244186047 11.3340267027863  6.22538759689917 11.3340267027863  C 9.07151162790694 11.3340267027863  11.378730620155 9.03037925696594  11.378730620155 6.18866099071192  C 11.378730620155 3.34660410216725  9.07151162790694 1.04295665634663  6.22538759689917 1.04295665634663  C 3.3789244186047 1.04295665634663  1.07170542635663 3.34660410216725  1.07170542635663 6.18866099071192  Z " fill-rule="nonzero" fill="#a1a1a1" stroke="none" transform="matrix(1 0 0 1 583 119 )" />
  </g>
</svg>