<?xml version="1.0" encoding="utf-8"?>
<svg version="1.1" xmlns:xlink="http://www.w3.org/1999/xlink" width="14px" height="18px" xmlns="http://www.w3.org/2000/svg">
  <g transform="matrix(1 0 0 1 -830 -117 )">
    <path d="M 4.61471973031678 8.27731093130978  C 4.61469984395296 9.77880712493561  5.83495488767642 10.9990621686588  7.33645108130224 10.9990621686588  C 8.83794727492796 10.9990621686588  10.0491402930609 9.77880710551517  10.0491402930609 8.27731093130978  L 10.0582222050147 2.83380843719101  C 10.0582222050148 1.32776135411677  8.84249816437648 0.112057199842184  7.33647096766572 0.112057199842184  C 5.83497477404012 0.112057199842411  4.61471973031666 1.32778124048059  4.61471973031666 2.83380843719124  L 4.61471973031678 8.27731093130978  Z M 12.1448756196544 8.27729104494597  C 12.1448756196544 10.9990422822952  9.84498608773868 12.9042761107535  7.33645108130224 12.9042761107535  C 4.83244709737107 12.9042761107532  2.52802654294999 10.9990422822955  2.52802654294999 8.2772910449462  L 0.985691565366551 8.2772910449462  C 0.985691565366551 11.3755540676291  3.45340765478852 13.9340097699771  6.42919405948476 14.3740154129546  L 6.42919405948476 17.3498017982308  L 8.24368825559634 17.3498017982308  L 8.24368825559645 14.3740352993186  C 11.2194746408725 13.9340097699771  13.6871907497149 11.3755739345725  13.6871907497149 8.27731093131001  L 12.1448756196544 8.27731093130978  Z " fill-rule="nonzero" fill="#a1a1a1" stroke="none" transform="matrix(1 0 0 1 830 117 )" />
  </g>
</svg>