<?xml version="1.0" encoding="utf-8"?>
<svg version="1.1" xmlns:xlink="http://www.w3.org/1999/xlink" width="20px" height="20px" xmlns="http://www.w3.org/2000/svg">
  <g transform="matrix(1 0 0 1 -860 -539 )">
    <path d="M 20 10  C 20 4.475  15.525 0  10 0  C 4.47500000000002 0  0 4.475  0 10  C 0 15.525  4.47500000000002 20  10 20  C 15.525 20  20 15.525  20 10  Z M 15 9  L 15 11  L 11 11  L 11 15  L 9 15  L 9 11  L 5 11  L 5 9  L 9 9  L 9 5  L 11 5  L 11 9  L 15 9  Z " fill-rule="nonzero" fill="#e6e7e7" stroke="none" transform="matrix(1 0 0 1 860 539 )" />
  </g>
</svg>