<?xml version="1.0" encoding="utf-8"?>
<svg version="1.1" xmlns:xlink="http://www.w3.org/1999/xlink" width="16px" height="14px" xmlns="http://www.w3.org/2000/svg">
  <g>
    <path d="M 11.40625 1.80013020833333  C 10.3497023809524 1.37782118055555  9.21428571428571 1.16666666666667  8 1.16666666666667  C 6.78571428571429 1.16666666666667  5.65029761904762 1.37782118055555  4.59375 1.80013020833333  C 3.53720238095238 2.22243923611111  2.69791666666667 2.79210069444444  2.07589285714286 3.50911458333333  C 1.45386904761905 4.22612847222222  1.14285714285714 5.00086805555555  1.14285714285714 5.83333333333333  C 1.14285714285714 6.51388888888889  1.35565476190476 7.16254340277778  1.78125 7.779296875  C 2.20684523809524 8.39605034722222  2.80654761904762 8.92925347222222  3.58035714285714 9.37890625  L 4.35714285714286 9.83463541666667  L 4.11607142857143 10.7096354166667  C 3.97321428571429 11.2625868055556  3.76488095238095 11.78515625  3.49107142857143 12.27734375  C 4.39583333333333 11.89453125  5.21428571428571 11.375  5.94642857142857 10.71875  L 6.33035714285714 10.3723958333333  L 6.83928571428571 10.4270833333333  C 7.25 10.4756944444444  7.63690476190476 10.5  8 10.5  C 9.21428571428571 10.5  10.3497023809524 10.2888454861111  11.40625 9.86653645833333  C 12.4627976190476 9.44422743055555  13.3020833333333 8.87456597222222  13.9241071428571 8.15755208333333  C 14.546130952381 7.44053819444444  14.8571428571429 6.66579861111111  14.8571428571429 5.83333333333333  C 14.8571428571429 5.00086805555555  14.546130952381 4.22612847222222  13.9241071428571 3.50911458333333  C 13.3020833333333 2.79210069444444  12.4627976190476 2.22243923611111  11.40625 1.80013020833333  Z M 14.9285714285714 2.90299479166667  C 15.6428571428571 3.79926215277778  16 4.77604166666667  16 5.83333333333333  C 16 6.890625  15.6428571428571 7.86740451388889  14.9285714285714 8.763671875  C 14.2142857142857 9.65993923611111  13.2440476190476 10.3678385416667  12.0178571428571 10.8873697916667  C 10.7916666666667 11.4069010416667  9.45238095238095 11.6666666666667  8 11.6666666666667  C 7.58333333333333 11.6666666666667  7.15178571428571 11.6423611111111  6.70535714285714 11.59375  C 5.52678571428571 12.6571180555556  4.1577380952381 13.3923611111111  2.59821428571429 13.7994791666667  C 2.30654761904762 13.8845486111111  1.9672619047619 13.9513888888889  1.58035714285714 14  L 1.53571428571429 14  C 1.44642857142857 14  1.36607142857143 13.9680989583333  1.29464285714286 13.904296875  C 1.22321428571429 13.8404947916667  1.17559523809524 13.7569444444444  1.15178571428571 13.6536458333333  L 1.15178571428571 13.64453125  C 1.13392857142857 13.6202256944444  1.13244047619048 13.5837673611111  1.14732142857143 13.53515625  C 1.16220238095238 13.4865451388889  1.16815476190476 13.4561631944444  1.16517857142857 13.4440104166667  C 1.16220238095238 13.4318576388889  1.17559523809524 13.4029947916667  1.20535714285714 13.357421875  L 1.25892857142857 13.275390625  C 1.25892857142857 13.275390625  1.2797619047619 13.2495659722222  1.32142857142857 13.1979166666667  C 1.36309523809524 13.1462673611111  1.38690476190476 13.1189236111111  1.39285714285714 13.1158854166667  C 1.43452380952381 13.0672743055556  1.52678571428571 12.9624565972222  1.66964285714286 12.8014322916667  C 1.8125 12.6404079861111  1.91517857142857 12.5249565972222  1.97767857142857 12.455078125  C 2.04017857142857 12.3851996527778  2.13244047619048 12.2651909722222  2.25446428571429 12.0950520833333  C 2.3764880952381 11.9249131944444  2.47321428571429 11.7699652777778  2.54464285714286 11.6302083333333  C 2.61607142857143 11.4904513888889  2.69642857142857 11.3111979166667  2.78571428571429 11.0924479166667  C 2.875 10.8736979166667  2.95238095238095 10.6427951388889  3.01785714285714 10.3997395833333  C 2.08333333333333 9.85894097222222  1.34672619047619 9.19053819444444  0.808035714285714 8.39453125  C 0.269345238095238 7.59852430555555  0 6.74479166666667  0 5.83333333333333  C 0 4.77604166666667  0.357142857142857 3.79926215277778  1.07142857142857 2.90299479166667  C 1.78571428571429 2.00672743055555  2.75595238095238 1.298828125  3.98214285714286 0.779296875  C 5.20833333333333 0.259765625  6.54761904761905 0  8 0  C 9.45238095238095 0  10.7916666666667 0.259765625  12.0178571428571 0.779296875  C 13.2440476190476 1.298828125  14.2142857142857 2.00672743055555  14.9285714285714 2.90299479166667  Z " fill-rule="nonzero" fill="#a1a1a1" stroke="none" />
  </g>
</svg>