<?xml version="1.0" encoding="utf-8"?>
<svg version="1.1" xmlns:xlink="http://www.w3.org/1999/xlink" width="10px" height="10px" xmlns="http://www.w3.org/2000/svg">
  <g transform="matrix(1 0 0 1 -290 -35 )">
    <path d="M 9.16666666666667 5  C 9.16666666666667 7.30125  7.30125 9.16666666666667  5 9.16666666666667  C 2.69875 9.16666666666667  0.833333333333333 7.30125  0.833333333333333 5  C 0.833333333333333 2.69875  2.69875 0.833333333333333  5 0.833333333333333  C 7.30125 0.833333333333333  9.16666666666667 2.69875  9.16666666666667 5  Z M 5 8.33333333333333  C 6.84094916610264 8.33333333333333  8.33333333333333 6.84094916610264  8.33333333333333 5  C 8.33333333333333 3.15905083389736  6.84094916610264 1.66666666666667  5 1.66666666666667  C 3.15905083389736 1.66666666666667  1.66666666666667 3.15905083389736  1.66666666666667 5  C 1.66666666666667 6.84094916610264  3.15905083389736 8.33333333333333  5 8.33333333333333  Z M 5.41666666666667 2.91666666666667  L 5.41666666666667 5  L 7.08333333333333 5  L 7.08333333333333 5.83333333333333  L 4.58333333333333 5.83333333333333  L 4.58333333333333 2.91666666666667  L 5.41666666666667 2.91666666666667  Z " fill-rule="nonzero" fill="#999999" stroke="none" transform="matrix(1 0 0 1 290 35 )" />
  </g>
</svg>