<?xml version="1.0" encoding="utf-8"?>
<svg version="1.1" xmlns:xlink="http://www.w3.org/1999/xlink" width="8px" height="8px" xmlns="http://www.w3.org/2000/svg">
  <g transform="matrix(1 0 0 1 -553 -283 )">
    <path d="M 7.96422857142857 4.06288888888887  C 7.96422857142857 6.18788888888887  6.18617142857144 7.91655555555557  4.00045714285714 7.91655555555557  C 1.81508571428571 7.91655555555557  0.0370285714285763 6.18788888888887  0.0370285714285763 4.06288888888887  C 0.0370285714285763 1.93822222222221  1.81508571428571 0.210222222222211  4.00045714285714 0.210222222222211  C 6.18617142857144 0.210222222222211  7.96422857142857 1.93822222222221  7.96422857142857 4.06288888888887  Z M 7.30697142857142 4.06288888888887  C 7.30697142857142 2.29455555555555  5.82651428571428 0.855555555555559  4.00662857142856 0.855555555555559  C 2.18708571428572 0.855555555555559  0.706971428571426 2.29422222222222  0.706971428571426 4.06288888888887  C 0.706971428571426 5.83222222222223  2.18708571428572 7.27155555555555  4.00662857142856 7.27155555555555  C 5.82651428571428 7.27155555555555  7.30697142857142 5.83222222222223  7.30697142857142 4.06288888888887  Z " fill-rule="nonzero" fill="#999999" stroke="none" transform="matrix(1 0 0 1 553 283 )" />
  </g>
</svg>