<?xml version="1.0" encoding="utf-8"?>
<svg version="1.1" xmlns:xlink="http://www.w3.org/1999/xlink" width="135px" height="23px" xmlns="http://www.w3.org/2000/svg">
  <g transform="matrix(1 0 0 1 -544 -277 )">
    <path d="M 545 288.5  A 10.5 10.5 0 0 1 555.5 278 L 667.5 278  A 10.5 10.5 0 0 1 678 288.5 A 10.5 10.5 0 0 1 667.5 299 L 555.5 299  A 10.5 10.5 0 0 1 545 288.5 Z " fill-rule="nonzero" fill="#ffffff" stroke="none" />
    <path d="M 544.5 288.5  A 11 11 0 0 1 555.5 277.5 L 667.5 277.5  A 11 11 0 0 1 678.5 288.5 A 11 11 0 0 1 667.5 299.5 L 555.5 299.5  A 11 11 0 0 1 544.5 288.5 Z " stroke-width="1" stroke="#69707f" fill="none" stroke-opacity="0.325490196078431" />
  </g>
</svg>