<?xml version="1.0" encoding="utf-8"?>
<svg version="1.1" xmlns:xlink="http://www.w3.org/1999/xlink" width="12px" height="12px" xmlns="http://www.w3.org/2000/svg">
  <g transform="matrix(1 0 0 1 -20 -405 )">
    <path d="M 0.166666666666667 11.25  L 0.166666666666667 6.58333333333333  L 3.66666666666667 6.58333333333333  L 3.66666666666667 11.25  L 0.166666666666667 11.25  Z M 8.33333333333333 11.25  L 8.33333333333333 3.66666666666667  L 11.8333333333333 3.66666666666667  L 11.8333333333333 11.25  L 8.33333333333333 11.25  Z M 4.25 11.25  L 4.25 0.749999999999999  L 7.75 0.749999999999999  L 7.75 11.25  L 4.25 11.25  Z M 2.5 7.75  L 1.33333333333333 7.75  L 1.33333333333333 10.0833333333333  L 2.5 10.0833333333333  L 2.5 7.75  Z M 6.58333333333333 1.91666666666667  L 5.41666666666667 1.91666666666667  L 5.41666666666667 10.0833333333333  L 6.58333333333333 10.0833333333333  L 6.58333333333333 1.91666666666667  Z M 10.6666666666667 4.83333333333333  L 9.5 4.83333333333333  L 9.5 10.0833333333333  L 10.6666666666667 10.0833333333333  L 10.6666666666667 4.83333333333333  Z " fill-rule="nonzero" fill="#ffffff" stroke="none" transform="matrix(1 0 0 1 20 405 )" />
  </g>
</svg>