<?xml version="1.0" encoding="utf-8"?>
<svg version="1.1" xmlns:xlink="http://www.w3.org/1999/xlink" width="28px" height="28px" xmlns="http://www.w3.org/2000/svg">
  <g transform="matrix(1 0 0 1 -227 -42 )">
    <path d="M 11.2 1.12  L 9.31 0  L 0 5.39  L 0 17.71  C 0 23.38  4.55 28  10.22 28  C 12.11 28  13.86 27.51  15.4 26.67  L 22.96 22.33  C 25.97 20.72  28 17.64  28 14  L 28 1.12  L 26.18 0.07  L 18 4.34  L 18 17.78  C 18.2 18.34  18.13 18.9  18.06 19.46  C 17.92 20.02  17.78 20.51  17.57 21  L 17.36 21.42  C 17.08 21.42  15.33 20.79  14.42 20.16  C 14 19.88  13.65 19.6  13.3 19.25  C 12.95 18.9  12.67 18.55  12.39 18.13  C 12.11 17.71  11.9 17.29  11.69 16.87  C 11.48 16.45  11.34 15.96  11.27 15.47  C 11.2 14.98  11.2 14.49  11.2 14  L 11.2 1.12  Z M 16.1 23.73  C 15.33 24.5  14.7 24.99  13.86 25.34  C 13.37 25.55  12.67 25.83  12.11 25.97  C 11.55 26.11  11.06 26.11  10.5 26.11  C 9.94 26.11  9.38 26.04  8.82 25.9  C 8.26 25.76  7.77 25.62  7.28 25.41  C 6.79 25.2  6.3 24.92  5.88 24.64  C 4.62 23.87  3.99 23.17  3.5 22.4  C 3.22 21.98  2.94 21.49  2.73 21  C 2.52 20.51  2.38 19.95  2.24 19.39  C 2.1 18.83  2.1 18.27  2 17.71  L 2 6.44  L 9 2.17  L 9 14  C 9.1 18.48  12.39 22.26  16.59 23.17  C 16.45 23.38  16.31 23.59  16.1 23.73  Z M 25.9 14  C 25.9 14.56  25.9 15.05  25.76 15.54  C 25.69 16.03  25.48 16.52  25.34 16.94  C 25.13 17.36  24.92 17.78  24.64 18.2  C 24.36 18.62  23.52 19.67  22.4 20.3  C 21.28 20.93  20.23 21.14  19.6 21.28  C 20.02 20.16  20.3 19.04  20 17.78  L 20 5.39  L 25.9 2.17  L 25.9 14  Z " fill-rule="nonzero" fill="#ffffff" stroke="none" transform="matrix(1 0 0 1 227 42 )" />
  </g>
</svg>