<?xml version="1.0" encoding="utf-8"?>
<svg version="1.1" xmlns:xlink="http://www.w3.org/1999/xlink" width="28px" height="28px" xmlns="http://www.w3.org/2000/svg">
  <g transform="matrix(1 0 0 1 -572 -770 )">
    <path d="M 28 14  C 28 21.7322  21.7322 28  14 28  C 6.2678 28  0 21.7322  0 14  C 0 6.2678  6.2678 0  14 0  C 21.7322 0  28 6.2678  28 14  Z M 14 25.2  C 20.1855891981049 25.2  25.2 20.1855891981049  25.2 14  C 25.2 7.81441080189511  20.1855891981049 2.8  14 2.8  C 7.81441080189511 2.8  2.8 7.81441080189511  2.8 14  C 2.8 20.1855891981049  7.81441080189511 25.2  14 25.2  Z M 11.2 11.2  L 20.3 7.7  L 16.8 16.8  L 7.7 20.3  L 11.2 11.2  Z M 14 15.4  C 14.7731986497631 15.4  15.4 14.7731986497631  15.4 14  C 15.4 13.2268013502369  14.7731986497631 12.6  14 12.6  C 13.2268013502369 12.6  12.6 13.2268013502369  12.6 14  C 12.6 14.7731986497631  13.2268013502369 15.4  14 15.4  Z " fill-rule="nonzero" fill="#585de0" stroke="none" transform="matrix(1 0 0 1 572 770 )" />
  </g>
</svg>