<?xml version="1.0" encoding="utf-8"?>
<svg version="1.1" xmlns:xlink="http://www.w3.org/1999/xlink" width="36px" height="28px" xmlns="http://www.w3.org/2000/svg">
  <g transform="matrix(1 0 0 1 -752 -770 )">
    <path d="M 19.8883928571429 3.57700496806246  C 18.1071428571429 2.88810030754672  16.1919642857143 2.54364797728886  14.1428571428571 2.54364797728886  C 12.09375 2.54364797728886  10.1785714285714 2.88810030754672  8.39732142857143 3.57700496806246  C 6.61607142857143 4.26590962857819  5.19977678571429 5.19990537023894  4.1484375 6.37899219304471  C 3.09709821428571 7.55807901585048  2.57142857142857 8.82327892122072  2.57142857142857 10.1745919091554  C 2.57142857142857 11.2609415661225  2.92633928571429 12.3075467234445  3.63616071428571 13.3144073811214  C 4.34598214285714 14.3212680387982  5.34375 15.1956470309912  6.62946428571429 15.9375443577005  L 8.578125 17.0503903477644  L 7.875 18.7196593328602  C 8.33035714285714 18.4546960018926  8.74553571428572 18.1963567541992  9.12053571428572 17.94464158978  L 10.0044642857143 17.3286018452803  L 11.0691964285714 17.527324343506  C 12.1138392857143 17.7127986751834  13.1383928571429 17.805535841022  14.1428571428571 17.805535841022  C 16.1919642857143 17.805535841022  18.1071428571429 17.4610835107641  19.8883928571429 16.7721788502484  C 21.6696428571429 16.0832741897327  23.0859375 15.1492784480719  24.1372767857143 13.9701916252661  C 25.1886160714286 12.7911048024604  25.7142857142857 11.5259048970901  25.7142857142857 10.1745919091554  C 25.7142857142857 8.82327892122072  25.1886160714286 7.55807901585048  24.1372767857143 6.37899219304471  C 23.0859375 5.19990537023894  21.6696428571429 4.26590962857819  19.8883928571429 3.57700496806246  Z M 7.04129464285714 1.36124911284599  C 9.21763392857143 0.453749704281996  11.5848214285714 0  14.1428571428571 0  C 16.7008928571429 0  19.0680803571429 0.453749704281996  21.2444196428571 1.36124911284599  C 23.4207589285714 2.26874852140998  25.1383928571429 3.50414005204637  26.3973214285714 5.06742370475515  C 27.65625 6.63070735746392  28.2857142857143 8.33309675893068  28.2857142857143 10.1745919091554  C 28.2857142857143 12.0160870593802  27.65625 13.7184764608469  26.3973214285714 15.2817601135557  C 25.1383928571429 16.8450437662645  23.4207589285714 18.0804352969009  21.2444196428571 18.9879347054649  C 19.0680803571429 19.8954341140289  16.7008928571429 20.3491838183109  14.1428571428571 20.3491838183109  C 12.9910714285714 20.3491838183109  11.8125 20.2431984859238  10.6071428571429 20.0312278211498  C 8.94642857142857 21.1970664774071  7.08482142857143 22.0449491365034  5.02232142857143 22.5748757984386  C 4.54017857142857 22.694109297374  3.96428571428571 22.8000946297611  3.29464285714286 22.8928317955997  L 3.234375 22.8928317955997  C 3.08705357142857 22.8928317955997  2.94977678571429 22.8398391294062  2.82254464285714 22.7338537970192  C 2.6953125 22.6278684646321  2.61830357142857 22.4887627158741  2.59151785714286 22.3165365507452  C 2.578125 22.2767920511001  2.57142857142857 22.2337355098178  2.57142857142857 22.1873669268985  C 2.57142857142857 22.1409983439792  2.57477678571429 22.0979418026969  2.58147321428571 22.0581973030518  C 2.58816964285714 22.0184528034067  2.6015625 21.9787083037615  2.62165178571429 21.9389638041164  L 2.671875 21.8396025550036  C 2.671875 21.8396025550036  2.6953125 21.8031700969955  2.7421875 21.7303051809794  C 2.7890625 21.6574402649633  2.81584821428571 21.6243198485924  2.82254464285714 21.6309439318666  C 2.82924107142857 21.6375680151408  2.859375 21.6044475987698  2.91294642857143 21.5315826827537  C 2.96651785714286 21.4587177667376  2.99330357142857 21.4289093920038  2.99330357142857 21.4421575585522  C 3.06026785714286 21.3626685592619  3.21428571428571 21.1970664774071  3.45535714285714 20.9453513129879  C 3.69642857142857 20.6936361485687  3.87053571428571 20.4982256919801  3.97767857142857 20.3591199432221  C 4.08482142857143 20.2200141944642  4.23549107142857 20.0279157795127  4.4296875 19.7828246983676  C 4.62388392857143 19.5377336172226  4.79129464285714 19.2827064111663  4.93191964285714 19.0177430801987  C 5.07254464285714 18.7527797492311  5.20982142857143 18.4613200851668  5.34375 18.1433640880057  C 3.68303571428571 17.1894960965224  2.37723214285714 16.0170333569908  1.42633928571429 14.6259758694109  C 0.475446428571428 13.2349183818311  0 11.7511237284126  0 10.1745919091554  C 0 8.33309675893068  0.629464285714286 6.63070735746392  1.88839285714286 5.06742370475515  C 3.14732142857143 3.50414005204637  4.86495535714286 2.26874852140998  7.04129464285714 1.36124911284599  Z M 34.5736607142857 19.7232079488999  C 33.6227678571429 21.1076413532056  32.3169642857143 22.2767920511001  30.65625 23.2306600425834  C 30.7901785714286 23.5486160397445  30.9274553571429 23.8400757038088  31.0680803571429 24.1050390347764  C 31.2087053571429 24.370002365744  31.3761160714286 24.6250295718003  31.5703125 24.8701206529454  C 31.7645089285714 25.1152117340904  31.9151785714286 25.3073101490419  32.0223214285714 25.4464158977999  C 32.1294642857143 25.5855216465578  32.3035714285714 25.7809321031464  32.5446428571429 26.0326472675657  C 32.7857142857143 26.2843624319849  32.9397321428571 26.4499645138396  33.0066964285714 26.5294535131299  C 33.0200892857143 26.5427016796783  33.046875 26.5725100544121  33.0870535714286 26.6188786373314  C 33.1272321428571 26.6652472202508  33.1573660714286 26.6983676366217  33.1774553571429 26.7182398864443  C 33.1975446428571 26.7381121362669  33.2243303571429 26.7712325526378  33.2578125 26.8176011355571  C 33.2912946428571 26.8639697184765  33.3147321428571 26.9004021764845  33.328125 26.9268985095813  L 33.3783482142857 27.0262597586941  C 33.3783482142857 27.0262597586941  33.3917410714286 27.0660042583392  33.4185267857143 27.1454932576295  C 33.4453125 27.2249822569198  33.4486607142857 27.268038798202  33.4285714285714 27.2746628814762  C 33.4084821428571 27.2812869647504  33.4017857142857 27.3243435060326  33.4084821428571 27.4038325053229  C 33.3683035714286 27.5893068370002  33.28125 27.7350366690324  33.1473214285714 27.8410220014194  C 33.0133928571429 27.9470073338065  32.8660714285714 27.9933759167258  32.7053571428571 27.9801277501774  C 32.0357142857143 27.8873905843388  31.4598214285714 27.7814052519517  30.9776785714286 27.6621717530163  C 28.9151785714286 27.1322450910811  27.0535714285714 26.2843624319849  25.3928571428571 25.1185237757275  C 24.1875 25.3304944405015  23.0089285714286 25.4364797728886  21.8571428571429 25.4364797728886  C 18.2276785714286 25.4364797728886  15.0669642857143 24.5621007806955  12.375 22.8133427963094  C 13.1517857142857 22.866335462503  13.7410714285714 22.8928317955997  14.1428571428571 22.8928317955997  C 16.2991071428571 22.8928317955997  18.3683035714286 22.5947480482612  20.3504464285714 21.9985805535841  C 22.3325892857143 21.402413058907  24.1004464285714 20.5479063165366  25.6540178571429 19.4350603264727  C 27.328125 18.2162290040218  28.6138392857143 16.8119233498935  29.5111607142857 15.222143364088  C 30.4084821428571 13.6323633782825  30.8571428571429 11.9498462266383  30.8571428571429 10.1745919091554  C 30.8571428571429 9.15448308493021  30.703125 8.14762242725337  30.3950892857143 7.15400993612491  C 32.1227678571429 8.09462976105985  33.4888392857143 9.27371658386562  34.4933035714286 10.6912704045422  C 35.4977678571429 12.1088242252188  36 13.6323633782825  36 15.2618878637331  C 36 16.8516678495387  35.5245535714286 18.3387745445943  34.5736607142857 19.7232079488999  Z " fill-rule="nonzero" fill="#69707f" stroke="none" transform="matrix(1 0 0 1 752 770 )" />
  </g>
</svg>