<?xml version="1.0" encoding="utf-8"?>
<svg version="1.1" xmlns:xlink="http://www.w3.org/1999/xlink" width="33px" height="27px" xmlns="http://www.w3.org/2000/svg">
  <g transform="matrix(1 0 0 1 -658 -769 )">
    <path d="M 28.2565055762082 15.4255650818394  C 28.270136307311 15.4536243180047  28.2769516728625 15.4957131722525  28 15.551831644583  L 28 25.6531566640686  C 28.2769516728625 26.0179267342167  28.1474597273854 26.3335931410756  27.8884758364312 26.6001558846454  C 27.6294919454771 26.8667186282151  27.322800495663 27  26.9684014869888 27  L 19.1171003717472 27  L 19.1171003717472 18.9189399844115  L 13.8828996282528 18.9189399844115  L 13.8828996282528 27  L 6.03159851301115 27  C 5.67719950433705 27  5.37050805452292 26.8667186282151  5.11152416356877 26.6001558846454  C 4.85254027261462 26.3335931410756  4.72304832713755 26.0179267342167  5 25.6531566640686  L 5 15.551831644583  C 4.72304832713755 15.5378020265004  4.72645600991326 15.5167575993765  4.73327137546468 15.4886983632112  C 4.74008674101611 15.460639127046  4.74349442379182 15.4395946999221  4.74349442379182 15.4255650818394  L 16.5 5.45050662509743  L 28.2565055762082 15.4255650818394  Z M 32.9795539033457 13.6052221356196  C 32.9931846344486 13.794621979735  32.9454770755886 13.9594699922058  32.8364312267658 14.099766173032  L 31.5687732342007 15.6570537802027  C 31.4597273853779 15.7833203429462  31.316604708798 15.8604832424006  31.139405204461 15.8885424785659  L 31.0780669144981 15.8885424785659  C 30.9008674101611 15.8885424785659  30.7577447335812 15.8394388152767  30.6486988847584 15.7412314886984  L 16.5 3.59859703819174  L 2.35130111524164 15.7412314886984  C 2.18773234200743 15.8534684333593  2.02416356877323 15.9025720966485  1.86059479553903 15.8885424785659  C 1.68339529120198 15.8604832424006  1.54027261462206 15.7833203429462  1.43122676579926 15.6570537802027  L 0.163568773234201 14.099766173032  C 0.0545229244114003 13.9594699922058  0.00681536555142508 13.794621979735  0.0204460966542751 13.6052221356196  C 0.0340768277571253 13.4158222915043  0.109045848822801 13.2650038971161  0.245353159851301 13.1527669524552  L 14.9460966542751 0.547155105222136  C 15.3822800495663 0.182385035074042  15.9002478314746 0  16.5 0  C 17.0997521685254 0  17.6177199504337 0.182385035074042  18.0539033457249 0.547155105222136  L 23.042750929368 4.84021823850351  L 23.042750929368 0.736554949337489  C 23.042750929368 0.540140296180823  23.1040892193309 0.378799688230708  23.2267657992565 0.252533125487141  C 23.3494423791822 0.12626656274357  23.5061957868649 0.0631332813717852  23.6970260223048 0.0631332813717852  L 27.6226765799257 0.0631332813717852  C 27.8135068153656 0.0631332813717852  27.9702602230483 0.12626656274357  28.092936802974 0.252533125487141  C 28.2156133828996 0.378799688230708  28.2769516728625 0.540140296180823  28.2769516728625 0.736554949337489  L 28.2769516728625 9.32268121590023  L 32.7546468401487 13.1527669524552  C 32.8909541511772 13.2650038971161  32.9659231722429 13.4158222915043  32.9795539033457 13.6052221356196  Z " fill-rule="nonzero" fill="#69707f" stroke="none" transform="matrix(1 0 0 1 658 769 )" />
  </g>
</svg>