<?xml version="1.0" encoding="utf-8"?>
<svg version="1.1" xmlns:xlink="http://www.w3.org/1999/xlink" width="23px" height="30px" xmlns="http://www.w3.org/2000/svg">
  <g transform="matrix(1 0 0 1 -847 -769 )">
    <path d="M 2.875 30  L 0 30  C 0 23.6881742876481  5.14872537694588 18.5714285714286  11.5 18.5714285714286  C 17.8512746230541 18.5714285714286  23 23.6881742876481  23 30  L 20.125 30  C 20.125 25.2661307157361  16.2634559672906 21.4285714285714  11.5 21.4285714285714  C 6.73654403270941 21.4285714285714  2.875 25.2661307157361  2.875 30  Z M 20.125 8.57142857142857  C 20.125 13.3071428571429  16.2653125 17.1428571428571  11.5 17.1428571428571  C 6.7346875 17.1428571428571  2.875 13.3071428571429  2.875 8.57142857142857  C 2.875 3.83571428571429  6.7346875 0  11.5 0  C 16.2653125 0  20.125 3.83571428571429  20.125 8.57142857142857  Z M 5.75 8.57142857142857  C 5.75 11.7285714285714  8.323125 14.2857142857143  11.5 14.2857142857143  C 14.676875 14.2857142857143  17.25 11.7285714285714  17.25 8.57142857142857  C 17.25 5.41428571428571  14.676875 2.85714285714286  11.5 2.85714285714286  C 8.323125 2.85714285714286  5.75 5.41428571428571  5.75 8.57142857142857  Z " fill-rule="nonzero" fill="#585de0" stroke="none" transform="matrix(1 0 0 1 847 769 )" />
  </g>
</svg>