<?xml version="1.0" encoding="utf-8"?>
<svg version="1.1" xmlns:xlink="http://www.w3.org/1999/xlink" width="24px" height="27px" xmlns="http://www.w3.org/2000/svg">
  <g transform="matrix(1 0 0 1 -853 -110 )">
    <path d="M 12.0029296875 13.494140625  L 12 13.505859375  L 12.0029296875 13.494140625  Z M 14.77734375 25.06640625  C 13.9658203125 25.65234375  13.0048828125 25.962890625  12 25.962890625  C 10.9951171875 25.962890625  10.0341796875 25.65234375  9.22265625 25.0634765625  C 8.4638671875 24.5126953125  7.8896484375 23.7626953125  7.552734375 22.8896484375  L 2.578125 22.8896484375  C 1.9365234375 22.8896484375  1.3740234375 22.552734375  1.072265625 21.9873046875  C 0.7705078125 21.421875  0.7998046875 20.765625  1.1572265625 20.232421875  L 2.6103515625 18.0556640625  L 2.6103515625 11.9619140625  C 2.6103515625 9.943359375  3.2431640625 8.021484375  4.435546875 6.4013671875  C 5.009765625 5.6220703125  5.6982421875 4.939453125  6.4833984375 4.3681640625  C 7.25390625 3.80859375  8.1005859375 3.369140625  9 3.0673828125  C 9.234375 2.4873046875  9.626953125 1.9921875  10.13671875 1.62890625  C 10.6845703125 1.2392578125  11.3291015625 1.0341796875  12 1.0341796875  C 12.6708984375 1.0341796875  13.3154296875 1.2392578125  13.86328125 1.62890625  C 14.373046875 1.9921875  14.765625 2.4873046875  15 3.0673828125  C 15.8994140625 3.3720703125  16.74609375 3.80859375  17.5166015625 4.3681640625  C 18.298828125 4.9365234375  18.990234375 5.6220703125  19.564453125 6.4013671875  C 20.759765625 8.021484375  21.3896484375 9.9462890625  21.3896484375 11.96484375  L 21.3896484375 18.05859375  L 22.8427734375 20.2353515625  C 23.197265625 20.7685546875  23.2294921875 21.4248046875  22.927734375 21.990234375  C 22.6259765625 22.5556640625  22.0634765625 22.892578125  21.421875 22.892578125  L 16.447265625 22.892578125  C 16.11328125 23.765625  15.5361328125 24.515625  14.77734375 25.06640625  Z M 2.900390625 21.01171875  L 8.876953125 21.01171875  L 9.28125 22.1484375  C 9.48046875 22.7109375  9.8408203125 23.1943359375  10.32421875 23.54296875  C 10.8134765625 23.8974609375  11.390625 24.0849609375  12 24.0849609375  C 12.6064453125 24.0849609375  13.1865234375 23.8974609375  13.67578125 23.5400390625  C 14.1591796875 23.19140625  14.51953125 22.7080078125  14.71875 22.1455078125  L 15.1201171875 21.01171875  L 21.099609375 21.01171875  L 19.7958984375 19.060546875  L 19.5087890625 18.6298828125  L 19.5087890625 11.96484375  C 19.5087890625 10.3505859375  19.0048828125 8.8125  18.0498046875 7.5205078125  C 17.5927734375 6.8994140625  17.0419921875 6.3515625  16.4091796875 5.8916015625  C 15.7822265625 5.4287109375  15.08203125 5.0712890625  14.337890625 4.828125  L 13.5556640625 4.5732421875  L 13.271484375 3.802734375  C 13.1748046875 3.544921875  13.001953125 3.322265625  12.7763671875 3.1611328125  C 12.5478515625 3  12.2783203125 2.9150390625  12 2.9150390625  C 11.7216796875 2.9150390625  11.4521484375 3  11.2236328125 3.1611328125  C 10.998046875 3.3193359375  10.828125 3.5419921875  10.728515625 3.802734375  L 10.44140625 4.5703125  L 9.662109375 4.828125  C 8.9208984375 5.0712890625  8.220703125 5.4287109375  7.587890625 5.8916015625  C 6.9638671875 6.345703125  6.41015625 6.8935546875  5.9501953125 7.5205078125  C 4.9951171875 8.8125  4.4912109375 10.3505859375  4.4912109375 11.96484375  L 4.4912109375 18.626953125  L 4.2041015625 19.0576171875  L 2.900390625 21.01171875  Z " fill-rule="nonzero" fill="#999999" stroke="none" transform="matrix(1 0 0 1 853 110 )" />
  </g>
</svg>