<?xml version="1.0" encoding="utf-8"?>
<svg version="1.1" xmlns:xlink="http://www.w3.org/1999/xlink" width="18px" height="18px" xmlns="http://www.w3.org/2000/svg">
  <g transform="matrix(1 0 0 1 -13 -79 )">
    <path d="M 14.827 5.539  L 14.827 5.54  C 15.147 6.11  15.722 6.45  16.362 6.45  C 16.897 6.45  17.335 6.898  17.335 7.452  L 17.335 10.551  C 17.335 11.101  16.897 11.551  16.362 11.551  C 15.72 11.551  15.147 11.892  14.827 12.463  C 14.5071983345231 13.0282340858408  14.5071983345231 13.7197659141592  14.827 14.285  C 15.0955926928367 14.7624476972426  14.9377489412035 15.3668522027958  14.47 15.652  L 11.865 17.2  C 11.7173745101959 17.286936862096  11.5491735752151 17.3327840684475  11.3778513547328 17.3327840684475  C 11.0279824787217 17.3327840684475  10.7058175388778 17.1424455399716  10.537 16.836  C 10.2316438598182 16.2730417733654  9.64244060588272 15.9225905871484  9.002 15.923  C 8.362 15.923  7.787 16.263  7.467 16.834  C 7.29718825702694 17.1419018924252  6.9736236540882 17.3333602373594  6.622 17.334  C 6.45190035203175 17.3334274723801  6.28508122653655 17.2871463899446  6.139 17.2  L 3.53 15.652  C 3.30405797889903 15.5179911363202  3.14071320591909 15.2995984552656  3.076 15.045  C 3.0073718749795 14.7887517372385  3.04220962567001 14.5157961648181  3.173 14.285  C 3.49280166547695 13.7197659141592  3.49280166547695 13.0282340858408  3.173 12.463  C 2.86678839700311 11.9011285626595  2.27789446005026 11.5516286430738  1.638 11.552  C 1.103 11.552  0.665 11.102  0.665 10.551  L 0.665 7.451  C 0.665 6.901  1.103 6.451  1.638 6.451  C 2.278 6.451  2.853 6.11  3.173 5.539  C 3.49280166547695 4.97376591415919  3.49280166547695 4.28223408584081  3.173 3.717  C 2.90377247656098 3.2401818342307  3.06129328626927 2.63576209810281  3.529 2.351  L 6.137 0.801999999999999  C 6.28459370980921 0.714637994110604  6.45295300750777 0.668545894909783  6.62446400787878 0.668545894909783  C 6.97496475061382 0.668545894909783  7.29742405851489 0.860154138417949  7.465 1.168  C 7.7707187300964 1.73059155395096  8.35970850504734 2.08086332055232  9 2.08086332055232  C 9.64029149495266 2.08086332055232  10.2292812699036 1.73059155395096  10.535 1.168  C 10.7024936142093 0.858996940515889  11.0257498559246 0.666525704106426  11.3772281647452 0.666525704106426  C 11.5488389122885 0.666525704106426  11.7172990893002 0.712623288853189  11.865 0.799999999999999  L 14.47 2.35  C 14.935 2.626  15.095 3.239  14.827 3.717  C 14.5071983345231 4.28223408584081  14.5071983345231 4.97376591415918  14.827 5.539  Z M 9 13.666  C 11.5757527051491 13.662695690266  13.6631437236269 11.5757519379161  13.667 9  C 13.6620477099177 6.4245411673718  11.5754588326282 4.33795229008232  9 4.333  C 6.42431340553829 4.33740383370533  4.33740383370533 6.42431340553829  4.333 9  C 4.33740383370533 11.5756865944617  6.42431340553829 13.6625961662947  9 13.667  Z " fill-rule="nonzero" fill="#69707f" stroke="none" transform="matrix(1 0 0 1 13 79 )" />
  </g>
</svg>