<?xml version="1.0" encoding="utf-8"?>
<svg version="1.1" xmlns:xlink="http://www.w3.org/1999/xlink" width="20px" height="17px" xmlns="http://www.w3.org/2000/svg">
  <g transform="matrix(1 0 0 1 -12 -16 )">
    <path d="M 17.1251548946716 9.71239282930631  C 17.1334159438249 9.73005975578072  17.1375464684015 9.75656014549234  17.1375464684015 9.79189399844115  L 17.1375464684015 16.1519875292284  C 17.1375464684015 16.3816575733957  17.0590665014457 16.5804104962328  16.9021065675341 16.7482462977397  C 16.7451466336225 16.9160820992466  16.5592730276745 17  16.3444857496902 17  L 11.5861214374226 17  L 11.5861214374226 11.9119251753702  L 8.41387856257745 11.9119251753702  L 8.41387856257745 17  L 3.65551425030979 17  C 3.44072697232549 17  3.25485336637753 16.9160820992466  3.09789343246592 16.7482462977397  C 2.94093349855432 16.5804104962328  2.86245353159851 16.3816575733957  2.86245353159851 16.1519875292284  L 2.86245353159851 9.79189399844115  C 2.86245353159851 9.78306053520395  2.86451879388682 9.76981034034814  2.86864931846344 9.75214341387373  C 2.87277984304007 9.73447648739932  2.87484510532838 9.72122629254352  2.87484510532838 9.71239282930631  L 10 3.43180046765394  L 17.1251548946716 9.71239282930631  Z M 19.9876084262701 8.56625097427903  C 19.9958694754234 8.68550272798129  19.966955803387 8.78929592101845  19.9008674101611 8.87763055339049  L 19.1325898389095 9.85814497272019  C 19.0665014456836 9.93764614185503  18.9797604295746 9.98623018965965  18.8723667905824 10.0038971161341  L 18.8351920693928 10.0038971161341  C 18.7277984304007 10.0038971161341  18.6410574142916 9.97297999480385  18.5749690210657 9.91114575214341  L 10 2.26578332034295  L 1.42503097893432 9.91114575214341  C 1.32589838909542 9.98181345804105  1.22676579925651 10.0127305793713  1.1276332094176 10.0038971161341  C 1.02023957042544 9.98623018965965  0.933498554316398 9.93764614185503  0.867410161090458 9.85814497272019  L 0.0991325898389095 8.87763055339049  C 0.0330441966129699 8.78929592101845  0.00413052457662126 8.68550272798129  0.0123915737298637 8.56625097427903  C 0.0206526228831062 8.44699922057677  0.0660883932259397 8.35203949077682  0.148698884758364 8.28137178487919  L 9.05824039653036 0.344505066250975  C 9.32259396943412 0.114835022083656  9.63651383725733 0  10 0  C 10.3634861627427 0  10.6774060305659 0.114835022083656  10.9417596034696 0.344505066250975  L 13.9653035935564 3.04754481683554  L 13.9653035935564 0.463756819953234  C 13.9653035935564 0.34008833463237  14.002478314746 0.23850350740452  14.0768277571252 0.159002338269681  C 14.1511771995043 0.0795011691348406  14.2461792647666 0.0397505845674203  14.361833952912 0.0397505845674203  L 16.7410161090459 0.0397505845674203  C 16.8566707971912 0.0397505845674203  16.9516728624535 0.0795011691348406  17.0260223048327 0.159002338269681  C 17.1003717472119 0.23850350740452  17.1375464684015 0.34008833463237  17.1375464684015 0.463756819953234  L 17.1375464684015 5.86983632112237  L 19.8513011152416 8.28137178487919  C 19.9339116067741 8.35203949077682  19.9793473771169 8.44699922057677  19.9876084262701 8.56625097427903  Z " fill-rule="nonzero" fill="#69707f" stroke="none" transform="matrix(1 0 0 1 12 16 )" />
  </g>
</svg>