<?xml version="1.0" encoding="utf-8"?>
<svg version="1.1" xmlns:xlink="http://www.w3.org/1999/xlink" width="19px" height="19px" xmlns="http://www.w3.org/2000/svg">
  <g transform="matrix(1 0 0 1 -867 -480 )">
    <path d="M 4.8219696969697 8.56439393939394  L 8.56439393939394 8.56439393939394  L 8.56439393939394 4.8219696969697  L 10.4356060606061 4.8219696969697  L 10.4356060606061 8.56439393939394  L 14.1780303030303 8.56439393939394  L 14.1780303030303 10.4356060606061  L 10.4356060606061 10.4356060606061  L 10.4356060606061 14.1780303030303  L 8.56439393939394 14.1780303030303  L 8.56439393939394 10.4356060606061  L 4.8219696969697 10.4356060606061  L 4.8219696969697 8.56439393939394  Z M 18.8560606060606 9.5  C 18.8560606060606 14.6673522727273  14.6673522727273 18.8560606060606  9.5 18.8560606060606  C 4.33264772727273 18.8560606060606  0.143939393939394 14.6673522727273  0.143939393939394 9.5  C 0.143939393939394 4.33264772727273  4.33264772727273 0.143939393939394  9.5 0.143939393939394  C 14.6673522727273 0.143939393939394  18.8560606060606 4.33264772727273  18.8560606060606 9.5  Z M 9.5 16.9848484848485  C 13.6337676729759 16.9848484848485  16.9848484848485 13.6337676729759  16.9848484848485 9.5  C 16.9848484848485 5.36623232702406  13.6337676729759 2.01515151515152  9.5 2.01515151515152  C 5.36623232702406 2.01515151515152  2.01515151515152 5.36623232702406  2.01515151515152 9.5  C 2.01515151515152 13.6337676729759  5.36623232702406 16.9848484848485  9.5 16.9848484848485  Z " fill-rule="nonzero" fill="#585de0" stroke="none" transform="matrix(1 0 0 1 867 480 )" />
  </g>
</svg>