<?xml version="1.0" encoding="utf-8"?>
<svg version="1.1" xmlns:xlink="http://www.w3.org/1999/xlink" width="8px" height="14px" xmlns="http://www.w3.org/2000/svg">
  <g transform="matrix(1 0 0 1 -872 -433 )">
    <path d="M 7.86254295532643 1.46826987307941  C 7.95418098510885 1.55733689601425  8 1.65976397238921  8 1.77555110220442  C 8 1.89133823201951  7.95418098510885 1.99376530839459  7.86254295532643 2.08283233132931  L 2.46048109965636 7.33333333333326  L 7.86254295532643 12.5838343353373  C 7.95418098510885 12.672901358272  8 12.7753284346471  8 12.8911155644622  C 8 13.0069026942774  7.95418098510885 13.1093297706524  7.86254295532643 13.1983967935872  L 7.17525773195877 13.8663994655979  C 7.08361970217641 13.9554664885326  6.97823596792671 14  6.85910652920961 14  C 6.73997709049257 14  6.63459335624282 13.9554664885326  6.54295532646046 13.8663994655979  L 0.137457044673567 7.64061456245827  C 0.0458190148912081 7.55154753952343  0 7.44912046314846  0 7.33333333333326  C 0 7.21754620351817  0.0458190148912081 7.1151191271432  0.137457044673567 7.02605210420836  L 6.54295532646046 0.800267201068777  C 6.63459335624282 0.711200178134049  6.73997709049257 0.666666666666629  6.85910652920961 0.666666666666629  C 6.97823596792671 0.666666666666629  7.08361970217641 0.711200178134049  7.17525773195877 0.800267201068777  L 7.86254295532643 1.46826987307941  Z " fill-rule="nonzero" fill="#7c7b79" stroke="none" fill-opacity="0.419607843137255" transform="matrix(1 0 0 1 872 433 )" />
  </g>
</svg>