<?xml version="1.0" encoding="utf-8"?>
<svg version="1.1" xmlns:xlink="http://www.w3.org/1999/xlink" width="19px" height="19px" xmlns="http://www.w3.org/2000/svg">
  <g transform="matrix(1 0 0 1 -536 -430 )">
    <path d="M 19 9.5  C 19 14.74685  14.74685 19  9.5 19  C 4.25315 19  0 14.74685  0 9.5  C 0 4.25315  4.25315 0  9.5 0  C 14.74685 0  19 4.25315  19 9.5  Z M 9.5 17.1  C 13.697364098714 17.1  17.1 13.697364098714  17.1 9.5  C 17.1 5.30263590128597  13.697364098714 1.9  9.5 1.9  C 5.30263590128597 1.9  1.9 5.30263590128597  1.9 9.5  C 1.9 13.697364098714  5.30263590128597 17.1  9.5 17.1  Z M 10.45 4.75  L 10.45 9.5  L 14.25 9.5  L 14.25 11.4  L 8.55 11.4  L 8.55 4.75  L 10.45 4.75  Z " fill-rule="nonzero" fill="#69707f" stroke="none" transform="matrix(1 0 0 1 536 430 )" />
  </g>
</svg>