<?xml version="1.0" encoding="utf-8"?>
<svg version="1.1" xmlns:xlink="http://www.w3.org/1999/xlink" width="18px" height="19px" xmlns="http://www.w3.org/2000/svg">
  <g transform="matrix(1 0 0 1 -540 -331 )">
    <path d="M 4.56818181818182 8.56439393939394  L 8.11363636363636 8.56439393939394  L 8.11363636363636 4.8219696969697  L 9.88636363636363 4.8219696969697  L 9.88636363636363 8.56439393939394  L 13.4318181818182 8.56439393939394  L 13.4318181818182 10.4356060606061  L 9.88636363636363 10.4356060606061  L 9.88636363636363 14.1780303030303  L 8.11363636363636 14.1780303030303  L 8.11363636363636 10.4356060606061  L 4.56818181818182 10.4356060606061  L 4.56818181818182 8.56439393939394  Z M 17.8636363636364 9.5  C 17.8636363636364 14.6673522727273  13.8953863636364 18.8560606060606  9 18.8560606060606  C 4.10461363636364 18.8560606060606  0.136363636363636 14.6673522727273  0.136363636363636 9.5  C 0.136363636363636 4.33264772727273  4.10461363636364 0.143939393939394  9 0.143939393939394  C 13.8953863636364 0.143939393939394  17.8636363636364 4.33264772727273  17.8636363636364 9.5  Z M 9 16.9848484848485  C 12.9162009533456 16.9848484848485  16.0909090909091 13.6337676729759  16.0909090909091 9.5  C 16.0909090909091 5.36623232702406  12.9162009533456 2.01515151515152  9 2.01515151515152  C 5.08379904665437 2.01515151515152  1.90909090909091 5.36623232702406  1.90909090909091 9.5  C 1.90909090909091 13.6337676729759  5.08379904665437 16.9848484848485  9 16.9848484848485  Z " fill-rule="nonzero" fill="#585de0" stroke="none" transform="matrix(1 0 0 1 540 331 )" />
  </g>
</svg>