<?xml version="1.0" encoding="utf-8"?>
<svg version="1.1" xmlns:xlink="http://www.w3.org/1999/xlink" width="12px" height="8px" xmlns="http://www.w3.org/2000/svg">
  <g transform="matrix(1 0 0 1 -17 -30 )">
    <path d="M 4.47449497767857 7.81560283687943  C 4.34183155293367 7.93852947695035  4.20918367346939 8  4.01020408163265 8  C 3.81122448979592 8  3.67857661033163 7.93852947695035  3.54591318558674 7.81560283687943  L 0.229591836734696 4.74232158687943  C -0.0357194674744874 4.49645390070922  -0.0357194674744874 4.12765957446809  0.229591836734696 3.88179188829787  C 0.494903140943877 3.63592420212766  0.892862324617347 3.63593860815602  1.15815808354592 3.88179188829787  L 4.01020408163265 6.52482269503546  L 10.8418419164541 0.193848625886517  C 11.1071376753827 -0.0520046542553132  11.5050968590561 -0.0520046542553132  11.7704081632653 0.193848625886517  C 12.0357194674745 0.439701906028365  12.0357194674745 0.808510638297872  11.7704081632653 1.05437832446809  L 4.47449497767857 7.81560283687943  Z " fill-rule="nonzero" fill="#ffffff" stroke="none" transform="matrix(1 0 0 1 17 30 )" />
  </g>
</svg>