<?xml version="1.0" encoding="utf-8"?>
<svg version="1.1" xmlns:xlink="http://www.w3.org/1999/xlink" width="172px" height="308px" xmlns="http://www.w3.org/2000/svg">
  <g transform="matrix(1 0 0 1 -997 -99 )">
    <path d="M 997.5 403  C 997.5 403  997.5 116.87397993311  997.5 116.87397993311  C 997.5 114.940983308703  999.067003375592 113.37397993311  1001 113.37397993311  C 1001 113.37397993311  1127.92866959957 113.37397993311  1127.92866959957 113.37397993311  C 1127.92866959957 113.37397993311  1138.88221767078 100.598484833698  1138.88221767078 100.598484833698  C 1138.88221767078 100.598484833698  1151.71767557148 113.37397993311  1151.71767557148 113.37397993311  C 1151.71767557148 113.37397993311  1165 113.37397993311  1165 113.37397993311  C 1166.93299662441 113.37397993311  1168.5 114.940983308703  1168.5 116.87397993311  C 1168.5 116.87397993311  1168.5 403  1168.5 403  C 1168.5 404.932996624408  1166.93299662441 406.5  1165 406.5  C 1165 406.5  1001 406.5  1001 406.5  C 999.067003375592 406.5  997.5 404.932996624408  997.5 403  Z " fill-rule="nonzero" fill="#fafbfd" stroke="none" />
    <path d="M 997 403  C 997 403  997 116.87397993311  997 116.87397993311  C 997 114.664840933787  998.790861000677 112.87397993311  1001 112.87397993311  C 1001 112.87397993311  1127.6987448238 112.87397993311  1127.6987448238 112.87397993311  C 1127.6987448238 112.87397993311  1138.85320664628 99.8641523025469  1138.85320664628 99.8641523025469  C 1138.85320664628 99.8641523025469  1151.92409693648 112.87397993311  1151.92409693648 112.87397993311  C 1151.92409693648 112.87397993311  1165 112.87397993311  1165 112.87397993311  C 1167.20913899932 112.87397993311  1169 114.664840933787  1169 116.87397993311  C 1169 116.87397993311  1169 403  1169 403  C 1169 405.209138999323  1167.20913899932 407  1165 407  C 1165 407  1001 407  1001 407  C 998.790861000677 407  997 405.209138999323  997 403  Z M 998 403  C 998 404.656854249492  999.343145750508 406  1001 406  C 1001 406  1165 406  1165 406  C 1166.65685424949 406  1168 404.656854249492  1168 403  C 1168 403  1168 116.87397993311  1168 116.87397993311  C 1168 115.217125683618  1166.65685424949 113.87397993311  1165 113.87397993311  C 1165 113.87397993311  1151.51125420649 113.87397993311  1151.51125420649 113.87397993311  C 1151.51125420649 113.87397993311  1138.91122869529 101.33281736485  1138.91122869529 101.33281736485  C 1138.91122869529 101.33281736485  1128.15859437534 113.87397993311  1128.15859437534 113.87397993311  C 1128.15859437534 113.87397993311  1001 113.87397993311  1001 113.87397993311  C 999.343145750508 113.87397993311  998 115.217125683618  998 116.87397993311  C 998 116.87397993311  998 403  998 403  Z " fill-rule="nonzero" fill="#f2f2f2" stroke="none" />
  </g>
</svg>