<?xml version="1.0" encoding="utf-8"?>
<svg version="1.1" xmlns:xlink="http://www.w3.org/1999/xlink" width="17px" height="15px" xmlns="http://www.w3.org/2000/svg">
  <g transform="matrix(1 0 0 1 -179 -11 )">
    <path d="M 1.1953125 0  C 0.570867365056813 0.0323807565789451  0.0633877840909065 0.54893092105263  0 1.18883634868421  L 0 13.7614360608553  C 0.0633877840909065 14.3994140625  0.570867365056813 14.9178916529605  1.1953125 15  L 15.7782759232954 15  C 16.4027210582387 14.9178916529605  16.9102006392046 14.3994140625  17 13.7614360608553  L 17 1.18883634868421  C 16.9102006392046 0.550858347039465  16.4027210582387 0.0323807565789451  15.7782759232954 0  L 1.1953125 0  Z M 4.65145596590909 3.96432976973684  C 4.65145596590909 2.92159231085526  5.47964754971591 2.07545230263158  6.50026633522728 2.07545230263158  C 7.52088512073865 2.07545230263158  8.34907670454547 2.92159231085526  8.34907670454547 3.96432976973684  C 8.34907670454547 5.00706722861841  7.52088512073865 5.85320723684211  6.50026633522728 5.85320723684211  C 5.47964754971591 5.85320723684211  4.65145596590909 5.00706722861841  4.65145596590909 3.96432976973684  Z M 15.1557173295454 12.0286800986842  C 15.2764559659091 12.2831003289474  15.0934614701704 12.5799239309211  14.8161399147727 12.5799239309211  L 2.15933504971591 12.5799239309211  C 1.86880770596591 12.5799239309211  1.68769975142044 12.2580437911184  1.83296342329544 12.0016961348684  L 3.33653675426135 8.33958675986841  C 3.91759144176135 7.31226870888159  5.37022816051135 7.31226870888159  5.95128284801135 8.33958675986841  L 6.64741654829544 9.57313939144736  C 6.95114968039772 10.1089638157895  7.71897194602272 10.0800524259868  7.981201171875 9.52109888980264  L 10.2488236860795 4.69482421875  C 10.6600896661932 3.81977282072368  11.8806818181818 3.81977282072368  12.2900612571023 4.69675164473685  L 15.1557173295454 12.0286800986842  Z " fill-rule="nonzero" fill="#cccccc" stroke="none" transform="matrix(1 0 0 1 179 11 )" />
  </g>
</svg>