<?xml version="1.0" encoding="utf-8"?>
<svg version="1.1" xmlns:xlink="http://www.w3.org/1999/xlink" width="24px" height="24px" xmlns="http://www.w3.org/2000/svg">
  <g transform="matrix(1 0 0 1 -553 -338 )">
    <path d="M 16 2.66666666666667  L 16 0  L 24 0  L 24 6.66666666666667  L 21.3333333333333 6.66666666666667  L 21.3333333333333 2.66666666666667  L 16 2.66666666666667  Z M 0 0  L 8 0  L 8 2.66666666666667  L 2.66666666666667 2.66666666666667  L 2.66666666666667 6.66666666666667  L 0 6.66666666666667  L 0 0  Z M 24 24  L 16 24  L 16 21.3333333333333  L 21.3333333333333 21.3333333333333  L 21.3333333333333 17.3333333333333  L 24 17.3333333333333  L 24 24  Z M 8 21.3333333333333  L 8 24  L 0 24  L 0 17.3333333333333  L 2.66666666666667 17.3333333333333  L 2.66666666666667 21.3333333333333  L 8 21.3333333333333  Z M 0 13  L 0 11  L 24 11  L 24 13  L 0 13  Z " fill-rule="nonzero" fill="#585de0" stroke="none" transform="matrix(1 0 0 1 553 338 )" />
  </g>
</svg>