<?xml version="1.0" encoding="utf-8"?>
<svg version="1.1" xmlns:xlink="http://www.w3.org/1999/xlink" width="18px" height="21px" xmlns="http://www.w3.org/2000/svg">
  <g transform="matrix(1 0 0 1 -535 -353 )">
    <path d="M 3.382 4.969  L 3.382 4.968  C 4.97574183473078 3.6910652228994  6.95780391308304 2.99674372589028  9 3  C 11.125 3  13.078 3.736  14.618 4.968  L 16.071 3.515  L 17.485 4.929  L 16.032 6.382  C 17.3060331125586 7.97697242302544  18 9.95767858959009  18 11.9990255473872  C 18 16.9695882958643  13.9705627484771 20.9990255473872  9 20.9990255473872  C 4.02943725152286 20.9990255473872  0 16.9695882958643  0 11.9990255473872  C 0 9.95767858959009  0.693966887441427 7.97697242302544  1.968 6.382  L 0.515 4.93  L 1.929 3.516  L 3.382 4.969  Z M 9.00000014751397 19  C 12.8659933963295 19  16.000000147514 15.8659932488156  16.000000147514 12  C 16.000000147514 8.13400675118445  12.8659933963295 5  9.00000014751397 5  C 5.13400689869841 5  2.00000014751397 8.13400675118444  2.00000014751397 12  C 2.00000014751397 15.8659932488156  5.13400689869841 19  9.00000014751397 19  Z M 10 6.495  L 10 11  L 13 11  L 8 17.5  L 8 13  L 5 13  L 10 6.495  Z M 5 2  L 5 0  L 13 0  L 13 2  L 5 2  Z " fill-rule="nonzero" fill="#69707f" stroke="none" transform="matrix(1 0 0 1 535 353 )" />
  </g>
</svg>