<?xml version="1.0" encoding="utf-8"?>
<svg version="1.1" xmlns:xlink="http://www.w3.org/1999/xlink" width="16px" height="21px" xmlns="http://www.w3.org/2000/svg">
  <g transform="matrix(1 0 0 1 -538 -253 )">
    <path d="M 2 21  L 0 21  C 0 16.5817220013537  3.58172200135365 13  8 13  C 12.4182779986463 13  16 16.5817220013537  16 21  L 14 21  C 14 17.6862915010152  11.3137084989848 15  8 15  C 4.68629150101524 15  2 17.6862915010152  2 21  Z M 14 6  C 14 9.315  11.315 12  8 12  C 4.685 12  2 9.315  2 6  C 2 2.685  4.685 0  8 0  C 11.315 0  14 2.685  14 6  Z M 4 6  C 4 8.21  5.79 10  8 10  C 10.21 10  12 8.21  12 6  C 12 3.79  10.21 2  8 2  C 5.79 2  4 3.79  4 6  Z " fill-rule="nonzero" fill="#69707f" stroke="none" transform="matrix(1 0 0 1 538 253 )" />
  </g>
</svg>