<?xml version="1.0" encoding="utf-8"?>
<svg version="1.1" xmlns:xlink="http://www.w3.org/1999/xlink" width="20px" height="20px" xmlns="http://www.w3.org/2000/svg">
  <defs>
    <mask fill="white" id="clip8630">
      <path d="M 13 66  C 7.45 66  3 61.55  3 56  L 3 56  C 3 50.45  7.45 46  13 46  L 13 46  C 18.55 46  23 50.45  23 56  L 23 56  C 23 61.55  18.55 66  13 66  " fill-rule="evenodd" />
    </mask>
  </defs>
  <g transform="matrix(1 0 0 1 -3 -46 )">
    <path d="M 3 46  L 23 46  L 23 66  L 3 66  L 3 46  " fill-rule="nonzero" fill="#cccccc" stroke="none" mask="url(#clip8630)" />
    <path d="M 4 47  L 22 47  L 22 65  L 4 65  L 4 47  " fill-rule="nonzero" fill="#ffffff" stroke="none" mask="url(#clip8630)" />
    <path d="M 14.9 52  C 14.06 52  13.4 51.34  13.4 50.5  C 13.4 49.66  14.06 49  14.9 49  C 15.74 49  16.4 49.66  16.4 50.5  C 16.4 51.34  15.74 52  14.9 52  " fill-rule="nonzero" fill="#cccccc" stroke="none" mask="url(#clip8630)" />
    <path d="M 5 65  L 5 55.65  L 9.25 51.4  L 15.2 54.8  L 18.6 53.95  L 22 54.8  L 22 65  L 5 65  " fill-rule="nonzero" fill="#169bd5" stroke="none" mask="url(#clip8630)" />
  </g>
</svg>