<?xml version="1.0" encoding="utf-8"?>
<svg version="1.1" xmlns:xlink="http://www.w3.org/1999/xlink" width="24px" height="24px" xmlns="http://www.w3.org/2000/svg">
  <g transform="matrix(1 0 0 1 -316 -15 )">
    <path d="M 328 15  C 334.72 15  340 20.28  340 27  C 340 33.72  334.72 39  328 39  C 321.28 39  316 33.72  316 27  C 316 20.28  321.28 15  328 15  Z " fill-rule="nonzero" fill="#585de0" stroke="none" />
    <path d="M 328 15.5  C 334.44 15.5  339.5 20.56  339.5 27  C 339.5 33.44  334.44 38.5  328 38.5  C 321.56 38.5  316.5 33.44  316.5 27  C 316.5 20.56  321.56 15.5  328 15.5  Z " stroke-width="1" stroke="#585de0" fill="none" />
  </g>
</svg>