<?xml version="1.0" encoding="utf-8"?>
<svg version="1.1" xmlns:xlink="http://www.w3.org/1999/xlink" width="14px" height="10px" xmlns="http://www.w3.org/2000/svg">
  <g transform="matrix(1 0 0 1 -321 -23 )">
    <path d="M 5.220244140625 9.76950354609929  C 5.06547014508928 9.92316184618794  4.91071428571429 10  4.67857142857143 10  C 4.44642857142857 10  4.29167271205357 9.92316184618794  4.13689871651786 9.76950354609929  L 0.267857142857145 5.92790198359928  C -0.0416727120535686 5.62056737588653  -0.0416727120535686 5.15957446808512  0.267857142857145 4.85223986037234  C 0.577386997767857 4.54490525265958  1.04167271205357 4.54492326019503  1.35118443080357 4.85223986037234  L 4.67857142857143 8.15602836879433  L 12.6488155691964 0.242310782358146  C 12.9583272879464 -0.0650058178191415  13.4226130022321 -0.0650058178191415  13.7321428571429 0.242310782358146  C 14.0416727120536 0.549627382535456  14.0416727120536 1.01063829787234  13.7321428571429 1.31797290558512  L 5.220244140625 9.76950354609929  Z " fill-rule="nonzero" fill="#ffffff" stroke="none" transform="matrix(1 0 0 1 321 23 )" />
  </g>
</svg>