<?xml version="1.0" encoding="utf-8"?>
<svg version="1.1" xmlns:xlink="http://www.w3.org/1999/xlink" width="38px" height="38px" xmlns="http://www.w3.org/2000/svg">
  <defs>
    <mask fill="white" id="clip8647">
      <path d="M 19 38  C 8.455 38  0 29.545  0 19  L 0 19  C 0 8.455  8.455 0  19 0  L 19 0  C 29.545 0  38 8.455  38 19  L 38 19  C 38 29.545  29.545 38  19 38  " fill-rule="evenodd" />
    </mask>
  </defs>
  <g>
    <path d="M 0 0  L 38 0  L 38 38  L 0 38  L 0 0  " fill-rule="nonzero" fill="#cccccc" stroke="none" mask="url(#clip8647)" />
    <path d="M 3 3  L 35 3  L 35 35  L 3 35  L 3 3  " fill-rule="nonzero" fill="#ffffff" stroke="none" mask="url(#clip8647)" />
    <path d="M 22.61 11.4  C 21.014 11.4  19.76 10.146  19.76 8.55  C 19.76 6.954  21.014 5.7  22.61 5.7  C 24.206 5.7  25.46 6.954  25.46 8.55  C 25.46 10.146  24.206 11.4  22.61 11.4  " fill-rule="nonzero" fill="#cccccc" stroke="none" mask="url(#clip8647)" />
    <path d="M 4 34  L 4 17.5  L 11.5 10  L 22 16  L 28 14.5  L 34 16  L 34 34  L 4 34  " fill-rule="nonzero" fill="#169bd5" stroke="none" mask="url(#clip8647)" />
  </g>
</svg>