<?xml version="1.0" encoding="utf-8"?>
<svg version="1.1" xmlns:xlink="http://www.w3.org/1999/xlink" width="42px" height="42px" xmlns="http://www.w3.org/2000/svg">
  <defs>
    <mask fill="white" id="clip8618">
      <path d="M 43 48  C 31.345 48  22 38.655  22 27  L 22 27  C 22 15.345  31.345 6  43 6  L 43 6  C 54.655 6  64 15.345  64 27  L 64 27  C 64 38.655  54.655 48  43 48  " fill-rule="evenodd" />
    </mask>
  </defs>
  <g transform="matrix(1 0 0 1 -22 -6 )">
    <path d="M 22 6  L 64 6  L 64 48  L 22 48  L 22 6  " fill-rule="nonzero" fill="#cccccc" stroke="none" mask="url(#clip8618)" />
    <path d="M 25 9  L 61 9  L 61 45  L 25 45  L 25 9  " fill-rule="nonzero" fill="#ffffff" stroke="none" mask="url(#clip8618)" />
    <path d="M 46.99 18.6  C 45.226 18.6  43.84 17.214  43.84 15.45  C 43.84 13.686  45.226 12.3  46.99 12.3  C 48.754 12.3  50.14 13.686  50.14 15.45  C 50.14 17.214  48.754 18.6  46.99 18.6  " fill-rule="nonzero" fill="#cccccc" stroke="none" mask="url(#clip8618)" />
    <path d="M 26 44  L 26 25.3  L 34.5 16.8  L 46.4 23.6  L 53.2 21.9  L 60 23.6  L 60 44  L 26 44  " fill-rule="nonzero" fill="#169bd5" stroke="none" mask="url(#clip8618)" />
  </g>
</svg>