<?xml version="1.0" encoding="utf-8"?>
<svg version="1.1" xmlns:xlink="http://www.w3.org/1999/xlink" width="103px" height="68px" xmlns="http://www.w3.org/2000/svg">
  <defs>
    <mask fill="white" id="clip8629">
      <path d="M 9 68  C 4.005 68  0 63.995  0 59  L 0 9  C 0 4.005  4.005 0  9 0  L 94 0  C 98.995 0  103 4.005  103 9  L 103 59  C 103 63.995  98.995 68  94 68  " fill-rule="evenodd" />
    </mask>
  </defs>
  <g>
    <path d="M 0 0  L 103 0  L 103 68  L 0 68  L 0 0  " fill-rule="nonzero" fill="#cccccc" stroke="none" mask="url(#clip8629)" />
    <path d="M 5 5  L 98 5  L 98 63  L 5 63  L 5 5  " fill-rule="nonzero" fill="#ffffff" stroke="none" mask="url(#clip8629)" />
    <path d="M 58.66 20.4  C 55.804 20.4  53.56 18.156  53.56 15.3  C 53.56 12.444  55.804 10.2  58.66 10.2  C 61.516 10.2  63.76 12.444  63.76 15.3  C 63.76 18.156  61.516 20.4  58.66 20.4  " fill-rule="nonzero" fill="#cccccc" stroke="none" mask="url(#clip8629)" />
    <path d="M 7 62  L 7 31.75  L 29.5 18  L 61 40.2135922330097  L 79 26.25  L 97 40.2135922330097  L 97 62  L 7 62  " fill-rule="nonzero" fill="#169bd5" stroke="none" mask="url(#clip8629)" />
  </g>
</svg>