<?xml version="1.0" encoding="utf-8"?>
<svg version="1.1" xmlns:xlink="http://www.w3.org/1999/xlink" width="16px" height="13px" xmlns="http://www.w3.org/2000/svg">
  <g transform="matrix(1 0 0 1 -94 -293 )">
    <path d="M 0.787333333333334 6.5  C 1.414 3.03333333333333  4.40533333333333 0.40625  8 0.40625  C 11.5946666666667 0.40625  14.5853333333333 3.03333333333333  15.2126666666667 6.5  C 14.586 9.96666666666667  11.5946666666667 12.59375  8 12.59375  C 4.40533333333333 12.59375  1.41466666666667 9.96666666666667  0.787333333333334 6.5  Z M 2.14866666666667 6.5  C 2.772116428022 9.27244664139386  5.1999174256474 11.2389668325176  8 11.2395833333333  C 10.8000825743526 11.2389668325176  13.227883571978 9.27244664139386  13.8513333333333 6.5  C 13.2256107034317 3.72984789286795  10.7983875029708 1.76619100032629  8 1.76619100032629  C 5.20161249702923 1.76619100032629  2.77438929656829 3.72984789286795  2.14866666666667 6.5  Z M 8 9.546875  C 6.34314575050762 9.546875  5 8.1827425971407  5 6.5  C 5 4.8172574028593  6.34314575050762 3.453125  8 3.453125  C 9.65685424949238 3.453125  11 4.8172574028593  11 6.5  C 11 8.1827425971407  9.65685424949238 9.546875  8 9.546875  Z M 8 8.19270833333333  C 8.92047458305132 8.19270833333333  9.66666666666667 7.4348569984115  9.66666666666667 6.5  C 9.66666666666667 5.5651430015885  8.92047458305132 4.80729166666667  8 4.80729166666667  C 7.07952541694868 4.80729166666667  6.33333333333333 5.5651430015885  6.33333333333333 6.5  C 6.33333333333333 7.4348569984115  7.07952541694868 8.19270833333333  8 8.19270833333333  Z " fill-rule="nonzero" fill="#b0b0b0" stroke="none" transform="matrix(1 0 0 1 94 293 )" />
  </g>
</svg>