<?xml version="1.0" encoding="utf-8"?>
<svg version="1.1" xmlns:xlink="http://www.w3.org/1999/xlink" width="18px" height="20px" xmlns="http://www.w3.org/2000/svg">
  <g transform="matrix(1 0 0 1 -71 -250 )">
    <path d="M 0.993 0  L 7 0  L 7 1.99999999999999  L 9 1.99999999999999  L 9 0  L 17.007 0  C 17.555 0  18 0.443999999999997  18 0.991999999999993  L 18 19.0079999999999  C 17.9956416052001 19.5544403421672  17.553444456131 19.9961921768868  17.007 20  L 0.993 20  C 0.444971530465409 20.000000277891  0.000551891711443098 19.5560281916434  0 19.0079999999999  L 0 0.991999999999993  C 0.00435839479988953 0.445559657832716  0.446555543869035 0.00380782311308978  0.993 0  Z M 11 1.99999999999999  L 9 1.99999999999999  L 9 3.99999999999997  L 11 3.99999999999997  L 11 1.99999999999999  Z M 9 3.99999999999997  L 7 3.99999999999997  L 7 5.99999999999996  L 9 5.99999999999996  L 9 3.99999999999997  Z M 11 5.99999999999996  L 9 5.99999999999996  L 9 7.99999999999995  L 11 7.99999999999995  L 11 5.99999999999996  Z M 9 7.99999999999995  L 7 7.99999999999995  L 7 9.99999999999993  L 9 9.99999999999993  L 9 7.99999999999995  Z M 11 9.99999999999993  L 9 9.99999999999993  L 9 11.9999999999999  L 7 11.9999999999999  L 7 14.9999999999999  L 11 14.9999999999999  L 11 9.99999999999993  Z " fill-rule="nonzero" fill="#585de0" stroke="none" transform="matrix(1 0 0 1 71 250 )" />
  </g>
</svg>