<?xml version="1.0" encoding="utf-8"?>
<svg version="1.1" xmlns:xlink="http://www.w3.org/1999/xlink" width="48px" height="37px" xmlns="http://www.w3.org/2000/svg">
  <g transform="matrix(1 0 0 1 -117 -29 )">
    <path d="M 10.3083980517578 6.56451611621094  C 10.3083980517578 2.98387092578125  13.1729141679687 0  16.8729141679688 0  C 20.4535593222656 0  23.4374302841797 2.86451611621094  23.4374302841797 6.56451611621094  C 23.4374302841797 10.2645161162109  20.4535593222656 13.0096774228516  16.8729141679688 13.0096774228516  C 13.2922690136719 13.0096774228516  10.3083980517578 10.1451613066406  10.3083980517578 6.56451611621094  Z M 47.1890432060547 34.2548386933594  C 47.7858173984375 35.2096773867187  47.1890432060547 36.2838709619141  46.1148496308594 36  L 1.47613997558594 36  C 0.401946436523438 36.2838709619141  -0.194827755859375 35.2096774228516  0.282591590820313 34.2548386933594  L 5.5342044765625 21.6032258076172  C 7.56323674511719 18.0225806533203  12.6954947851562 18.0225806533203  14.7245270537109 21.6032258076172  L 17.2309786689453 25.9  C 18.3051722080078 27.8096774228516  21.0503335146484 27.6903225771484  21.8858173984375 25.6612903085937  L 29.8825915908203 8.95161288574219  C 31.3148496669922 5.96774192382812  35.611623859375 5.96774192382812  37.0438818994141 8.95161288574219  L 47.1890432060547 34.2548386933594  Z " fill-rule="nonzero" fill="#534aff" stroke="none" transform="matrix(1 0 0 1 117 29 )" />
  </g>
</svg>