<?xml version="1.0" encoding="utf-8"?>
<svg version="1.1" xmlns:xlink="http://www.w3.org/1999/xlink" width="26px" height="25px" xmlns="http://www.w3.org/2000/svg">
  <g transform="matrix(1 0 0 1 -155 -4 )">
    <path d="M 25.0212765957447 12.7021276595745  C 25.0212765957447 5.93617021276594  19.531914893617 0.446808510638306  12.7659574468085 0.446808510638306  C 6 0.446808510638306  0.510638297872333 6  0.510638297872333 12.7021276595745  C 0.510638297872333 19.4042553191489  6 24.9574468085106  12.7659574468085 24.9574468085106  C 19.531914893617 24.9574468085106  25.0212765957447 19.468085106383  25.0212765957447 12.7021276595745  Z M 20.2340425531915 8.2340425531915  C 20.5531914893617 8.55319148936169  20.5531914893617 9.06382978723406  20.2340425531915 9.31914893617022  L 12.063829787234 17.5531914893617  C 11.7446808510638 17.8723404255319  11.2978723404255 18.0638297872341  10.8510638297872 18.0638297872341  C 10.4042553191489 18.0638297872341  9.95744680851064 17.8723404255319  9.63829787234042 17.5531914893617  L 5.42553191489361 13.3404255319149  C 5.10638297872339 13.0212765957447  5.10638297872339 12.5744680851064  5.42553191489361 12.2553191489362  C 5.74468085106383 11.9361702127659  6.19148936170211 11.9361702127659  6.51063829787233 12.2553191489362  L 10.7234042553191 16.468085106383  C 10.7872340425532 16.531914893617  10.9787234042553 16.531914893617  11.0425531914894 16.468085106383  L 19.1489361702127 8.2340425531915  C 19.4680851063829 7.91489361702128  19.9148936170212 7.91489361702128  20.2340425531915 8.2340425531915  Z " fill-rule="nonzero" fill="#999999" stroke="none" fill-opacity="0.686274509803922" transform="matrix(1 0 0 1 155 4 )" />
  </g>
</svg>