<?xml version="1.0" encoding="utf-8"?>
<svg version="1.1" xmlns:xlink="http://www.w3.org/1999/xlink" width="24px" height="20px" xmlns="http://www.w3.org/2000/svg">
  <g transform="matrix(1 0 0 1 -35 -26 )">
    <path d="M 9.16303294573643 9.09254807692309  C 9.8453649870801 8.41546474358976  10.6669896640827 8.07692307692309  11.6279069767442 8.07692307692309  C 12.5888242894057 8.07692307692309  13.4104489664083 8.41546474358976  14.0927810077519 9.09254807692309  C 14.7751130490956 9.76963141025643  15.1162790697674 10.5849358974359  15.1162790697674 11.5384615384615  C 15.1162790697674 12.4919871794872  14.7751130490956 13.3072916666667  14.0927810077519 13.984375  C 13.4104489664083 14.6614583333333  12.5888242894057 15  11.6279069767442 15  C 10.6669896640827 15  9.8453649870801 14.6614583333333  9.16303294573643 13.984375  C 8.48070090439277 13.3072916666667  8.13953488372093 12.4919871794872  8.13953488372093 11.5384615384615  C 8.13953488372093 10.5849358974359  8.48070090439277 9.76963141025643  9.16303294573643 9.09254807692309  Z M 17.4418604651163 3.07692307692309  L 20.1550387596899 3.07692307692309  C 21.0109819121447 3.07692307692309  21.7417635658915 3.37740384615385  22.3473837209302 3.9783653846154  C 22.953003875969 4.57932692307691  23.2558139534884 5.30448717948718  23 6.15384615384615  L 23 16.9230769230769  C 23.2558139534884 17.7724358974359  22.953003875969 18.4975961538462  22.3473837209302 19.0985576923077  C 21.7417635658915 19.6995192307692  21.0109819121447 20  20.1550387596899 20  L 3.10077519379845 20  C 2.24483204134367 20  1.5140503875969 19.6995192307692  0.908430232558143 19.0985576923077  C 0.302810077519382 18.4975961538462  0 17.7724358974359  0 16.9230769230769  L 0 6.15384615384615  C 0 5.30448717948718  0.302810077519382 4.57932692307691  0.908430232558143 3.9783653846154  C 1.5140503875969 3.37740384615385  2.24483204134367 3.07692307692309  3.10077519379845 3.07692307692309  L 5.81395348837209 3.07692307692309  L 6.43168604651163 1.4423076923077  C 6.58510981912145 1.04967948717949  6.86571382428941 0.711137820512818  7.27349806201551 0.426682692307697  C 7.6812822997416 0.142227564102559  8.09916020671835 0  8.52713178294574 0  L 14.7286821705426 0  C 15.15665374677 0  15.5745316537468 0.142227564102559  15.9823158914729 0.426682692307697  C 16.390100129199 0.711137820512818  16.6707041343669 1.04967948717949  16.8241279069767 1.4423076923077  L 17.4418604651163 3.07692307692309  Z M 7.79433139534884 15.3425480769231  C 8.8561854005168 16.396233974359  10.1340439276486 16.9230769230769  11.6279069767442 16.9230769230769  C 13.1217700258398 16.9230769230769  14.3996285529716 16.396233974359  15.4614825581395 15.3425480769231  C 16.5233365633075 14.2888621794872  17.0542635658915 13.0208333333333  17.0542635658915 11.5384615384615  C 17.0542635658915 10.0560897435898  16.5233365633075 8.78806089743591  15.4614825581395 7.734375  C 14.3996285529716 6.68068910256409  13.1217700258398 6.15384615384615  11.6279069767442 6.15384615384615  C 10.1340439276486 6.15384615384615  8.8561854005168 6.68068910256409  7.79433139534884 7.734375  C 6.73247739018088 8.78806089743591  6.2015503875969 10.0560897435898  6.2015503875969 11.5384615384615  C 6.2015503875969 13.0208333333333  6.73247739018088 14.2888621794872  7.79433139534884 15.3425480769231  Z " fill-rule="nonzero" fill="#534aff" stroke="none" transform="matrix(1 0 0 1 35 26 )" />
  </g>
</svg>