<?xml version="1.0" encoding="utf-8"?>
<svg version="1.1" xmlns:xlink="http://www.w3.org/1999/xlink" width="12px" height="7px" xmlns="http://www.w3.org/2000/svg">
  <g transform="matrix(1 0 0 1 -1301 -813 )">
    <path d="M 11.8797595190381 5.69237113402062  C 11.9599198396793 5.77209621993131  12 5.8637800687286  12 5.96742268041237  C 12 6.07106529209625  11.9599198396793 6.16274914089354  11.8797595190381 6.24247422680412  L 11.2785571142284 6.84041237113411  C 11.1983967935872 6.92013745704469  11.1062124248497 6.96000000000004  11.002004008016 6.96000000000004  C 10.8977955911824 6.96000000000004  10.8056112224449 6.92013745704469  10.7254509018036 6.84041237113411  L 6 2.14061855670104  L 1.27454909819639 6.84041237113411  C 1.1943887775551 6.92013745704469  1.10220440881764 6.96000000000004  0.99799599198397 6.96000000000004  C 0.893787575150299 6.96000000000004  0.801603206412835 6.92013745704469  0.721442885771552 6.84041237113411  L 0.120240480961911 6.24247422680412  C 0.0400801603206276 6.16274914089354  0 6.07106529209625  0 5.96742268041237  C 0 5.8637800687286  0.0400801603206276 5.77209621993131  0.120240480961911 5.69237113402062  L 5.72344689378758 0.119587628865929  C 5.80360721442887 0.0398625429553476  5.89579158316633 0  6 0  C 6.10420841683367 0  6.19639278557113 0.0398625429553476  6.27655310621242 0.119587628865929  L 11.8797595190381 5.69237113402062  Z " fill-rule="nonzero" fill="#000000" stroke="none" transform="matrix(1 0 0 1 1301 813 )" />
  </g>
</svg>