<?xml version="1.0" encoding="utf-8"?>
<svg version="1.1" xmlns:xlink="http://www.w3.org/1999/xlink" width="19px" height="20px" xmlns="http://www.w3.org/2000/svg">
  <g transform="matrix(1 0 0 1 -327 -18 )">
    <path d="M 13.875 0.921052631578947  L 13.875 2.76315789473684  L 17.375 2.76315789473684  C 17.8582491561019 2.76315789473684  18.25 3.17552720410322  18 3.68421052631579  L 18 18.4210526315789  C 18.25 18.9297359537915  17.8582491561019 19.3421052631579  17.375 19  L 1.625 19  C 1.14175084389806 19.3421052631579  0.75 18.9297359537915  1 18.4210526315789  L 1 3.68421052631579  C 0.75 3.17552720410322  1.14175084389806 2.76315789473684  1.625 2.76315789473684  L 5.125 2.76315789473684  L 5.125 0.921052631578947  L 6.875 0.921052631578947  L 6.875 2.76315789473684  L 12.125 2.76315789473684  L 12.125 0.921052631578947  L 13.875 0.921052631578947  Z M 16.5 17.5  L 16.5 10  L 2.5 10  L 2.5 17.5  L 16.5 17.5  Z M 12.125 6.44736842105263  L 12.125 4.60526315789474  L 6.875 4.60526315789474  L 6.875 6.44736842105263  L 5.125 6.44736842105263  L 5.125 4.60526315789474  L 2.5 4.60526315789474  L 2.5 8.28947368421053  L 16.5 8.28947368421053  L 16.5 4.60526315789474  L 13.875 4.60526315789474  L 13.875 6.44736842105263  L 12.125 6.44736842105263  Z M 4.25 13.8157894736842  L 4.25 11.9736842105263  L 6 11.9736842105263  L 6 13.8157894736842  L 4.25 13.8157894736842  Z M 8.625 13.8157894736842  L 8.625 11.9736842105263  L 10.375 11.9736842105263  L 10.375 13.8157894736842  L 8.625 13.8157894736842  Z M 13 13.8157894736842  L 13 11.9736842105263  L 14.75 11.9736842105263  L 14.75 13.8157894736842  L 13 13.8157894736842  Z " fill-rule="nonzero" fill="#b0b0b0" stroke="none" transform="matrix(1 0 0 1 327 18 )" />
  </g>
</svg>