<?xml version="1.0" encoding="utf-8"?>
<svg version="1.1" xmlns:xlink="http://www.w3.org/1999/xlink" width="16px" height="16px" xmlns="http://www.w3.org/2000/svg">
  <g transform="matrix(1 0 0 1 -24 -689 )">
    <path d="M 32 689  C 36.48 689  40 692.52  40 697  C 40 701.48  36.48 705  32 705  C 27.52 705  24 701.48  24 697  C 24 692.52  27.52 689  32 689  Z " fill-rule="nonzero" fill="#ffffff" stroke="none" />
    <path d="M 32 689.5  C 36.2 689.5  39.5 692.8  39.5 697  C 39.5 701.2  36.2 704.5  32 704.5  C 27.8 704.5  24.5 701.2  24.5 697  C 24.5 692.8  27.8 689.5  32 689.5  Z " stroke-width="1" stroke="#cccccc" fill="none" />
  </g>
</svg>