<?xml version="1.0" encoding="utf-8"?>
<svg version="1.1" xmlns:xlink="http://www.w3.org/1999/xlink" width="16px" height="16px" xmlns="http://www.w3.org/2000/svg">
  <g transform="matrix(1 0 0 1 -24 -689 )">
    <path d="M 32 693  C 34.24 693  36 694.76  36 697  C 36 699.24  34.24 701  32 701  C 29.76 701  28 699.24  28 697  C 28 694.76  29.76 693  32 693  Z " fill-rule="nonzero" fill="#ffffff" stroke="none" />
    <path d="M 32 691.5  C 35.08 691.5  37.5 693.92  37.5 697  C 37.5 700.08  35.08 702.5  32 702.5  C 28.92 702.5  26.5 700.08  26.5 697  C 26.5 693.92  28.92 691.5  32 691.5  Z " stroke-width="5" stroke="#585de0" fill="none" />
  </g>
</svg>