<?xml version="1.0" encoding="utf-8"?>
<svg version="1.1" xmlns:xlink="http://www.w3.org/1999/xlink" width="11px" height="18px" xmlns="http://www.w3.org/2000/svg">
  <g transform="matrix(1 0 0 1 -874 -113 )">
    <path d="M 3.74368 9.21888  L 10.0944 15.5696  C 10.3248882003747 15.8082420461775  10.4537110966689 16.1270558162218  10.4537110966689 16.4588310966689  C 10.4537110966689 17.1657555764523  9.88063557645231 17.7388310966689  9.17371109666889 17.7388310966689  C 8.8419358162218 17.7388310966689  8.5231220461775 17.6100082003747  8.28448 17.37952  L 1.04352 10.13856  C 0.794101392548344 9.89739444957536  0.653264418121649 9.56531162468624  0.653264418121649 9.2183671558519  C 0.653264418121649 8.87826696294213  0.788615277693505 8.55214910856229  1.02944 8.312  L 8.2704 1.07232  C 8.5090420461775 0.841831799625314  8.8278558162218 0.713008903331106  9.1596310966689 0.713008903331106  C 9.86655557645231 0.713008903331106  10.4396310966689 1.28608442354769  10.4396310966689 1.99300890333111  C 10.4396310966689 2.3247841837782  10.3108082003747 2.6435979538225  10.08032 2.88224  L 3.74368 9.21952  Z " fill-rule="nonzero" fill="#585de0" stroke="none" transform="matrix(1 0 0 1 874 113 )" />
  </g>
</svg>