<?xml version="1.0" encoding="utf-8"?>
<svg version="1.1" xmlns:xlink="http://www.w3.org/1999/xlink" width="23px" height="29px" xmlns="http://www.w3.org/2000/svg">
  <g transform="matrix(1 0 0 1 -837 -799 )">
    <path d="M 2.875 29  L 0 29  C 0 22.8985684780598  5.14872537694588 17.952380952381  11.5 17.952380952381  C 17.8512746230541 17.952380952381  23 22.8985684780598  23 29  L 20.125 29  C 20.125 24.4239263585449  16.2634559672906 20.7142857142857  11.5 20.7142857142857  C 6.73654403270941 20.7142857142857  2.875 24.4239263585449  2.875 29  Z M 20.125 8.28571428571428  C 20.125 12.8635714285714  16.2653125 16.5714285714286  11.5 16.5714285714286  C 6.7346875 16.5714285714286  2.875 12.8635714285714  2.875 8.28571428571428  C 2.875 3.70785714285714  6.7346875 0  11.5 0  C 16.2653125 0  20.125 3.70785714285714  20.125 8.28571428571428  Z M 5.75 8.28571428571428  C 5.75 11.337619047619  8.323125 13.8095238095238  11.5 13.8095238095238  C 14.676875 13.8095238095238  17.25 11.337619047619  17.25 8.28571428571428  C 17.25 5.23380952380952  14.676875 2.76190476190476  11.5 2.76190476190476  C 8.323125 2.76190476190476  5.75 5.23380952380952  5.75 8.28571428571428  Z " fill-rule="nonzero" fill="#585de0" stroke="none" transform="matrix(1 0 0 1 837 799 )" />
  </g>
</svg>