<?xml version="1.0" encoding="utf-8"?>
<svg version="1.1" xmlns:xlink="http://www.w3.org/1999/xlink" width="45px" height="45px" xmlns="http://www.w3.org/2000/svg">
  <g transform="matrix(1 0 0 1 -265 -329 )">
    <path d="M 287.5 329  C 300.1 329  310 338.9  310 351.5  C 310 364.1  300.1 374  287.5 374  C 274.9 374  265 364.1  265 351.5  C 265 338.9  274.9 329  287.5 329  Z " fill-rule="nonzero" fill="#585de0" stroke="none" />
    <path d="M 287.5 329.5  C 299.82 329.5  309.5 339.18  309.5 351.5  C 309.5 363.82  299.82 373.5  287.5 373.5  C 275.18 373.5  265.5 363.82  265.5 351.5  C 265.5 339.18  275.18 329.5  287.5 329.5  Z " stroke-width="1" stroke="#585de0" fill="none" />
  </g>
</svg>