<?xml version="1.0" encoding="utf-8"?>
<svg version="1.1" xmlns:xlink="http://www.w3.org/1999/xlink" width="26px" height="26px" xmlns="http://www.w3.org/2000/svg">
  <g transform="matrix(1 0 0 1 -2 -2 )">
    <path d="M 15 2  C 22.28 2  28 7.72  28 15  C 28 22.28  22.28 28  15 28  C 7.72 28  2 22.28  2 15  C 2 7.72  7.72 2  15 2  Z " fill-rule="nonzero" fill="#ffffff" stroke="none" />
    <path d="M 15 2.5  C 22 2.5  27.5 8  27.5 15  C 27.5 22  22 27.5  15 27.5  C 8 27.5  2.5 22  2.5 15  C 2.5 8  8 2.5  15 2.5  Z " stroke-width="1" stroke="#ffffff" fill="none" />
  </g>
</svg>