<?xml version="1.0" encoding="utf-8"?>
<svg version="1.1" xmlns:xlink="http://www.w3.org/1999/xlink" width="19px" height="14px" xmlns="http://www.w3.org/2000/svg">
  <g transform="matrix(1 0 0 1 -20 -18 )">
    <path d="M 9.12957442434211 8.07096354166669  C 9.18354235197369 8.39605034722223  9.21052631578948 8.75303819444446  9.21052631578948 9.14192708333331  C 9.21052631578948 9.53081597222223  9.09959224232457 9.85438368055554  8.87772409539474 10.1126302083333  C 8.65585594846492 10.3708767361111  8.38301809210527 10.5  8.05921052631579 10.5  L 3.45394736842105 10.5  C 3.13013980263158 10.5  2.85730194627193 10.3708767361111  2.63543379934211 10.1126302083333  C 2.41356565241228 9.85438368055554  2.30263157894737 9.53081597222223  2.30263157894737 9.14192708333331  C 2.30263157894737 8.75303819444446  2.32961554276316 8.39605034722223  2.38358347039474 8.07096354166669  C 2.43755139802632 7.74587673611109  2.52599883497807 7.43294270833331  2.64892578125 7.13216145833331  C 2.77185272752193 6.83138020833331  2.95324492872807 6.59440104166669  3.19310238486842 6.42122395833331  C 3.43295984100877 6.248046875  3.72378700657895 6.16145833333331  4.06558388157895 6.16145833333331  C 4.1015625 6.18576388888891  4.19150904605263 6.24045138888891  4.33542351973684 6.32552083333331  C 4.47933799342105 6.41059027777777  4.59177117598684 6.47591145833331  4.67272306743421 6.521484375  C 4.75367495888158 6.56705729166669  4.86011170504386 6.62022569444446  4.99203330592105 6.68098958333331  C 5.12395490679825 6.74175347222223  5.25287828947369 6.78580729166669  5.37880345394737 6.81315104166669  C 5.50472861842105 6.84049479166669  5.63065378289474 6.85416666666669  5.75657894736842 6.85416666666669  C 5.88250411184211 6.85416666666669  6.00842927631579 6.84049479166669  6.13435444078948 6.81315104166669  C 6.26027960526316 6.78580729166669  6.3892029879386 6.74175347222223  6.52112458881579 6.68098958333331  C 6.65304618969299 6.62022569444446  6.75948293585527 6.56705729166669  6.84043482730263 6.521484375  C 6.92138671875 6.47591145833331  7.03381990131579 6.41059027777777  7.177734375 6.32552083333331  C 7.32164884868422 6.24045138888891  7.41159539473685 6.18576388888891  7.4475740131579 6.16145833333331  C 7.7893708881579 6.16145833333331  8.08019805372808 6.248046875  8.32005550986842 6.42122395833331  C 8.55991296600877 6.59440104166669  8.74130516721492 6.83138020833331  8.86423211348685 7.13216145833331  C 8.98715905975878 7.43294270833331  9.07560649671053 7.74587673611109  9.12957442434211 8.07096354166669  Z M 7.20022101151316 2.939453125  C 7.5989840323465 3.34353298611109  7.79836554276316 3.83116319444446  7.79836554276316 4.40234375  C 7.79836554276316 4.97352430555554  7.5989840323465 5.46115451388891  7.20022101151316 5.865234375  C 6.80145799067983 6.26931423611109  6.32024396929825 6.47135416666669  5.75657894736842 6.47135416666669  C 5.1929139254386 6.47135416666669  4.71169990405702 6.26931423611109  4.31293688322369 5.865234375  C 3.91417386239035 5.46115451388891  3.71479235197369 4.97352430555554  3.71479235197369 4.40234375  C 3.71479235197369 3.83116319444446  3.91417386239035 3.34353298611109  4.31293688322369 2.939453125  C 4.71169990405702 2.53537326388891  5.1929139254386 2.33333333333331  5.75657894736842 2.33333333333331  C 6.32024396929825 2.33333333333331  6.80145799067983 2.53537326388891  7.20022101151316 2.939453125  Z M 16.0374691611842 8.24869791666669  C 16.0914370888158 8.30338541666669  16.1184210526316 8.37326388888891  16.1184210526316 8.45833333333331  L 16.1184210526316 9.04166666666669  C 16.1184210526316 9.12673611111109  16.0914370888158 9.19661458333331  16.0374691611842 9.25130208333331  C 15.9835012335526 9.30598958333331  15.9145422149123 9.33333333333331  15.8305921052632 9.33333333333331  L 10.6496710526316 9.33333333333331  C 10.5657209429825 9.33333333333331  10.4967619243421 9.30598958333331  10.4427939967105 9.25130208333331  C 10.388826069079 9.19661458333331  10.3618421052632 9.12673611111109  10.3618421052632 9.04166666666669  L 10.3618421052632 8.45833333333331  C 10.3618421052632 8.37326388888891  10.388826069079 8.30338541666669  10.4427939967105 8.24869791666669  C 10.4967619243421 8.19401041666669  10.5657209429825 8.16666666666669  10.6496710526316 8.16666666666669  L 15.8305921052632 8.16666666666669  C 15.9145422149123 8.16666666666669  15.9835012335526 8.19401041666669  16.0374691611842 8.24869791666669  Z M 16.0239771792763 5.92903645833331  C 16.0869397615132 5.99283854166669  16.1184210526316 6.0703125  16.1184210526316 6.16145833333331  L 16.1184210526316 6.671875  C 16.1184210526316 6.76302083333331  16.0869397615132 6.84049479166669  16.0239771792763 6.904296875  C 15.9610145970395 6.96809895833331  15.8845600328947 7  15.7946134868421 7  L 10.6856496710526 7  C 10.595703125 7  10.5192485608553 6.96809895833331  10.4562859786184 6.904296875  C 10.3933233963816 6.84049479166669  10.3618421052632 6.76302083333331  10.3618421052632 6.671875  L 10.3618421052632 6.16145833333331  C 10.3618421052632 6.0703125  10.3933233963816 5.99283854166669  10.4562859786184 5.92903645833331  C 10.5192485608553 5.865234375  10.595703125 5.83333333333331  10.6856496710526 5.83333333333331  L 15.7946134868421 5.83333333333331  C 15.8845600328947 5.83333333333331  15.9610145970395 5.865234375  16.0239771792763 5.92903645833331  Z M 16.0374691611842 3.58203125  C 16.0914370888158 3.63671875  16.1184210526316 3.70659722222223  16.1184210526316 3.79166666666669  L 16.1184210526316 4.375  C 16.1184210526316 4.46006944444446  16.0914370888158 4.52994791666669  16.0374691611842 4.58463541666669  C 15.9835012335526 4.63932291666669  15.9145422149123 4.66666666666669  15.8305921052632 4.66666666666669  L 10.6496710526316 4.66666666666669  C 10.5657209429825 4.66666666666669  10.4967619243421 4.63932291666669  10.4427939967105 4.58463541666669  C 10.388826069079 4.52994791666669  10.3618421052632 4.46006944444446  10.3618421052632 4.375  L 10.3618421052632 3.79166666666669  C 10.3618421052632 3.70659722222223  10.388826069079 3.63671875  10.4427939967105 3.58203125  C 10.4967619243421 3.52734375  10.5657209429825 3.5  10.6496710526316 3.5  L 15.8305921052632 3.5  C 15.9145422149123 3.5  15.9835012335526 3.52734375  16.0374691611842 3.58203125  Z M 17.1842876233553 12.7467447916667  C 17.2412537691886 12.6890190972222  17.2697368421053 12.6206597222222  17 12.5416666666667  L 17 1.45833333333331  C 17.2697368421053 1.37934027777777  17.2412537691886 1.31098090277777  17.1842876233553 1.25325520833331  C 17.1273214775219 1.19552951388891  17.0598615679825 1.16666666666669  16.9819078947368 1.16666666666669  L 1.43914473684211 1.16666666666669  C 1.36119106359649 1.16666666666669  1.29373115405702 1.19552951388891  1.23676500822368 1.25325520833331  C 1.17979886239035 1.31098090277777  1.15131578947368 1.37934027777777  1.15131578947368 1.45833333333331  L 1.15131578947368 12.5416666666667  C 1.15131578947368 12.6206597222222  1.17979886239035 12.6890190972222  1.23676500822368 12.7467447916667  C 1.29373115405702 12.8044704861111  1.36119106359649 12.8333333333333  1.43914473684211 12.8333333333333  L 4.60526315789474 12.8333333333333  L 4.60526315789474 11.9583333333333  C 4.60526315789474 11.8732638888889  4.63224712171053 11.8033854166667  4.68621504934211 11.7486979166667  C 4.74018297697369 11.6940104166667  4.80914199561404 11.6666666666667  4.89309210526316 11.6666666666667  L 5.46875 11.6666666666667  C 5.55270010964913 11.6666666666667  5.62165912828948 11.6940104166667  5.67562705592106 11.7486979166667  C 5.72959498355263 11.8033854166667  5.75657894736842 11.8732638888889  5.75657894736842 11.9583333333333  L 5.75657894736842 12.8333333333333  L 12.6644736842105 12.8333333333333  L 12.6644736842105 11.9583333333333  C 12.6644736842105 11.8732638888889  12.6914576480263 11.8033854166667  12.7454255756579 11.7486979166667  C 12.7993935032895 11.6940104166667  12.8683525219298 11.6666666666667  12.952302631579 11.6666666666667  L 13.5279605263158 11.6666666666667  C 13.6119106359649 11.6666666666667  13.6808696546053 11.6940104166667  13.7348375822368 11.7486979166667  C 13.7888055098684 11.8033854166667  13.8157894736842 11.8732638888889  13.8157894736842 11.9583333333333  L 13.8157894736842 12.8333333333333  L 16.9819078947368 12.8333333333333  C 17.0598615679825 12.8333333333333  17.1273214775219 12.8044704861111  17.1842876233553 12.7467447916667  Z M 17.9983038651316 0.428385416666686  C 18.2801363760965 0.713975694444457  18.421052631579 1.05729166666669  18.421052631579 1.45833333333331  L 18.421052631579 12.5416666666667  C 18.421052631579 12.9427083333333  18.2801363760965 13.2860243055555  17.9983038651316 13.5716145833333  C 17.7164713541667 13.8572048611111  17.3776726973684 14  16.9819078947368 14  L 1.43914473684211 14  C 1.04337993421053 14  0.704581277412281 13.8572048611111  0.422748766447366 13.5716145833333  C 0.140916255482455 13.2860243055555  0 12.9427083333333  0 12.5416666666667  L 0 1.45833333333331  C 0 1.05729166666669  0.140916255482455 0.713975694444457  0.422748766447366 0.428385416666686  C 0.704581277412281 0.142795138888914  1.04337993421053 0  1.43914473684211 0  L 16.9819078947368 0  C 17.3776726973684 0  17.7164713541667 0.142795138888914  17.9983038651316 0.428385416666686  Z " fill-rule="nonzero" fill="#666ee8" stroke="none" transform="matrix(1 0 0 1 20 18 )" />
  </g>
</svg>